M48
INCH
T71C0.035
T70C0.020
T69C0.040
T68C0.036
T67C0.093
T66C0.071
T65C0.065
T64C0.030
T63C0.042
T62C0.032
T61C0.079
%
T70
X007450Y009450
X016150Y015600
T64
X010450Y010950
X014450Y010950
X019600Y010100
X020050Y012200
X021050Y012200
X023100Y008400
X023100Y004400
X023600Y011250
X023600Y010100
X024400Y016459
X024400Y012459
X024800Y010400
X024800Y006400
X027600Y011250
T62
X027350Y013900
X028350Y013900
T71
X002800Y008500
X008550Y007250
X008950Y010350
X009800Y008450
X009800Y007350
X009800Y006050
X011450Y008900
X015800Y006050
X016641Y012750
X017700Y013400
X018241Y009591
X019500Y013200
X022900Y006550
X023750Y007300
T68
X010661Y015262
X010661Y014278
X011488Y015262
X013339Y015262
X013339Y014278
T69
X020600Y008400
X020600Y007400
X020600Y006400
X020600Y005400
X020600Y004400
T63
X026400Y009200
X027400Y009200
X028400Y009200
X029400Y009200
X030400Y009200
T65
X002500Y017950
X004500Y017950
T66
X001650Y012950
X001650Y011450
X003500Y012950
X003500Y011450
X005350Y012950
X005350Y011450
T61
X026350Y015900
X030350Y015900
T67
X009342Y016443
X012000Y016758
X014658Y016443
M30
