G04 start of page 7 for group -4062 idx -4062 *
G04 Title: (unknown), soldermask *
G04 Creator: pcb 20110918 *
G04 CreationDate: Fri Dec 20 21:18:42 2013 UTC *
G04 For: fosse *
G04 Format: Gerber/RS-274X *
G04 PCB-Dimensions: 316500 193500 *
G04 PCB-Coordinate-Origin: lower left *
%MOIN*%
%FSLAX25Y25*%
%LNBOTTOMMASK*%
%ADD168C,0.0651*%
%ADD167C,0.1635*%
%ADD166C,0.1110*%
%ADD165C,0.0610*%
%ADD164C,0.0660*%
%ADD163C,0.0780*%
%ADD162C,0.0001*%
%ADD161C,0.0860*%
%ADD160C,0.2060*%
G54D160*X260500Y160500D03*
X300500D03*
G54D161*X270500Y140500D03*
X280500D03*
G54D162*G36*
X201600Y142400D02*Y134600D01*
X209400D01*
Y142400D01*
X201600D01*
G37*
G54D163*X215500Y138500D03*
X225500D03*
G54D162*G36*
X188450Y73550D02*Y67450D01*
X194550D01*
Y73550D01*
X188450D01*
G37*
G54D164*X176500Y54500D03*
G54D162*G36*
X198950Y37550D02*Y31450D01*
X205050D01*
Y37550D01*
X198950D01*
G37*
G54D165*X242000Y34500D03*
G54D162*G36*
X237450Y28550D02*Y22450D01*
X243550D01*
Y28550D01*
X237450D01*
G37*
G54D165*X197500Y124500D03*
G54D162*G36*
X210200Y108300D02*Y101700D01*
X216800D01*
Y108300D01*
X210200D01*
G37*
G54D164*X213500Y115000D03*
G54D165*X232500Y118500D03*
G54D162*G36*
X254450Y104050D02*Y97950D01*
X260550D01*
Y104050D01*
X254450D01*
G37*
G36*
X294200Y86800D02*Y80200D01*
X300800D01*
Y86800D01*
X294200D01*
G37*
G36*
X229450Y81550D02*Y75450D01*
X235550D01*
Y81550D01*
X229450D01*
G37*
G36*
X210200Y76800D02*Y70200D01*
X216800D01*
Y76800D01*
X210200D01*
G37*
G54D164*X213500Y83500D03*
G54D162*G36*
X275200Y86800D02*Y80200D01*
X281800D01*
Y86800D01*
X275200D01*
G37*
G54D164*X278500Y73500D03*
X297500D03*
G54D165*Y101000D03*
G54D164*Y63500D03*
Y53500D03*
Y43500D03*
X278500Y63500D03*
Y53500D03*
Y43500D03*
G54D165*X280500Y25500D03*
G54D162*G36*
X93200Y27800D02*Y21200D01*
X99800D01*
Y27800D01*
X93200D01*
G37*
G54D164*X20000Y23000D03*
X30000D03*
X40000D03*
X50000D03*
X119500Y24500D03*
X96500Y34500D03*
X119500Y44500D03*
Y34500D03*
G54D162*G36*
X36950Y108050D02*Y101950D01*
X43050D01*
Y108050D01*
X36950D01*
G37*
G36*
X18950D02*Y101950D01*
X25050D01*
Y108050D01*
X18950D01*
G37*
G54D165*X95500Y105000D03*
Y91000D03*
X40000Y65000D03*
G54D162*G36*
X57450Y75050D02*Y68950D01*
X63550D01*
Y75050D01*
X57450D01*
G37*
G54D165*X90500Y72000D03*
X22000Y65000D03*
G54D162*G36*
X52450Y68050D02*Y61950D01*
X58550D01*
Y68050D01*
X52450D01*
G37*
G54D165*X95500Y65000D03*
G54D166*X13500Y116000D03*
X32000D03*
X50500D03*
G54D162*G36*
X46700Y56300D02*Y49700D01*
X53300D01*
Y56300D01*
X46700D01*
G37*
G54D164*X40000Y53000D03*
X30000D03*
X20000D03*
G54D162*G36*
X116200Y57800D02*Y51200D01*
X122800D01*
Y57800D01*
X116200D01*
G37*
G54D166*X22000Y181000D03*
X42000D03*
G54D162*G36*
X26450Y136550D02*Y125450D01*
X37550D01*
Y136550D01*
X26450D01*
G37*
G54D166*X50500Y131000D03*
X13500D03*
G54D167*X117000Y169083D03*
X90425Y165933D03*
G54D168*X103614Y144280D03*
X111882Y154122D03*
X103614D03*
G54D167*X143575Y165933D03*
G54D168*X130386Y154122D03*
Y144280D03*
G54D165*X191500Y110500D03*
G54D162*G36*
X169200Y98800D02*Y92200D01*
X175800D01*
Y98800D01*
X169200D01*
G37*
G54D164*X172500Y105500D03*
G54D162*G36*
X154450Y127550D02*Y121450D01*
X160550D01*
Y127550D01*
X154450D01*
G37*
G36*
X173200Y47800D02*Y41200D01*
X179800D01*
Y47800D01*
X173200D01*
G37*
G54D164*X149500Y24500D03*
Y34500D03*
Y44500D03*
Y54500D03*
G54D162*G36*
X132450Y108050D02*Y101950D01*
X138550D01*
Y108050D01*
X132450D01*
G37*
G36*
Y94050D02*Y87950D01*
X138550D01*
Y94050D01*
X132450D01*
G37*
M02*
