M48
INCH
T68C0.036
T67C0.093
T66C0.065
T65C0.071
T64C0.028
T63C0.038
T62C0.030
T61C0.042
T60C0.032
T59C0.079
%
T64
X002000Y002300
X003000Y002300
X004000Y002300
X005000Y002300
X011950Y002450
X011950Y004450
X011950Y003450
X005000Y005300
X004000Y005300
X003000Y005300
X002000Y005300
X011950Y005450
X014950Y002450
X014950Y003450
X014950Y004450
X014950Y005450
T62
X019150Y007050
X017650Y005450
X020200Y003450
X024200Y003450
X024050Y002550
X019750Y012450
X021350Y010500
X021350Y011500
X023250Y011850
X025750Y010100
X023250Y007850
X021350Y007350
X021350Y008350
X029750Y010100
X028050Y002550
X009650Y002450
X009650Y003450
X004000Y010500
X002200Y010500
X009550Y010500
X009550Y009100
X004000Y006500
X006050Y007200
X009050Y007200
X002200Y006500
X005550Y006500
X009550Y006500
X019150Y011050
X017250Y009550
X017250Y010550
X015750Y012450
X017650Y004450
X013550Y010500
X013550Y009100
T60
X027050Y014050
X028050Y014050
T68
X010361Y014428
X011188Y015412
X010361Y015412
X013039Y015412
X013039Y014428
T63
X029750Y008350
X027850Y008350
X027850Y007350
X029750Y007350
X029750Y006350
X029750Y005350
X029750Y004350
X027850Y006350
X027850Y005350
X027850Y004350
T61
X020550Y013850
X021550Y013850
X022550Y013850
T66
X002200Y018100
X004200Y018100
T65
X001350Y011600
X003200Y011600
X005050Y011600
X003200Y013100
X005050Y013100
X001350Y013100
T59
X026050Y016050
X030050Y016050
T67
X011700Y016908
X009042Y016593
X014358Y016593
M30
