G04 start of page 3 for group 1 idx 1 *
G04 Title: (unknown), solder *
G04 Creator: pcb 20110918 *
G04 CreationDate: Fri Dec 20 21:41:05 2013 UTC *
G04 For: fosse *
G04 Format: Gerber/RS-274X *
G04 PCB-Dimensions: 316500 193500 *
G04 PCB-Coordinate-Origin: lower left *
%MOIN*%
%FSLAX25Y25*%
%LNBOTTOM*%
%ADD57C,0.0358*%
%ADD56C,0.0925*%
%ADD55C,0.0650*%
%ADD54C,0.0710*%
%ADD53C,0.0280*%
%ADD52C,0.0380*%
%ADD51C,0.0420*%
%ADD50C,0.0320*%
%ADD49C,0.0790*%
%ADD48C,0.0591*%
%ADD47C,0.1575*%
%ADD46C,0.1050*%
%ADD45C,0.0550*%
%ADD44C,0.0600*%
%ADD43C,0.0720*%
%ADD42C,0.0800*%
%ADD41C,0.2000*%
%ADD40C,0.0300*%
%ADD39C,0.0090*%
%ADD38C,0.0100*%
%ADD37C,0.0250*%
%ADD36C,0.0200*%
%ADD35C,0.0400*%
%ADD34C,0.0001*%
G54D34*G36*
X232493Y144466D02*X232528Y144029D01*
X232638Y143570D01*
X232819Y143134D01*
X233065Y142731D01*
X233372Y142372D01*
X233731Y142065D01*
X234134Y141819D01*
X234570Y141638D01*
X235029Y141528D01*
X235500Y141500D01*
X238500D01*
Y75500D01*
X232493Y69493D01*
Y74257D01*
X235485Y74264D01*
X235715Y74319D01*
X235933Y74409D01*
X236134Y74533D01*
X236314Y74686D01*
X236467Y74866D01*
X236591Y75067D01*
X236681Y75285D01*
X236736Y75515D01*
X236750Y75750D01*
X236736Y81485D01*
X236681Y81715D01*
X236591Y81933D01*
X236467Y82134D01*
X236314Y82314D01*
X236134Y82467D01*
X235933Y82591D01*
X235715Y82681D01*
X235485Y82736D01*
X235250Y82750D01*
X232493Y82743D01*
Y114237D01*
X232500Y114237D01*
X233167Y114289D01*
X233817Y114446D01*
X234435Y114702D01*
X235006Y115051D01*
X235514Y115486D01*
X235949Y115994D01*
X236298Y116565D01*
X236554Y117183D01*
X236711Y117833D01*
X236750Y118500D01*
X236711Y119167D01*
X236554Y119817D01*
X236298Y120435D01*
X235949Y121006D01*
X235514Y121514D01*
X235006Y121949D01*
X234435Y122298D01*
X233817Y122554D01*
X233167Y122711D01*
X232500Y122763D01*
X232493Y122763D01*
Y144466D01*
G37*
G36*
Y148500D02*X238500D01*
Y147500D01*
X235500D01*
X235029Y147472D01*
X234570Y147362D01*
X234134Y147181D01*
X233731Y146935D01*
X233372Y146628D01*
X233065Y146269D01*
X232819Y145866D01*
X232638Y145430D01*
X232528Y144971D01*
X232493Y144534D01*
Y148500D01*
G37*
G36*
X217250D02*X232493D01*
Y144534D01*
X232491Y144500D01*
X232493Y144466D01*
Y122763D01*
X231833Y122711D01*
X231183Y122554D01*
X230565Y122298D01*
X229994Y121949D01*
X229486Y121514D01*
X229051Y121006D01*
X228702Y120435D01*
X228446Y119817D01*
X228289Y119167D01*
X228237Y118500D01*
X228289Y117833D01*
X228446Y117183D01*
X228702Y116565D01*
X229051Y115994D01*
X229486Y115486D01*
X229994Y115051D01*
X230565Y114702D01*
X231183Y114446D01*
X231833Y114289D01*
X232493Y114237D01*
Y82743D01*
X229515Y82736D01*
X229285Y82681D01*
X229067Y82591D01*
X228866Y82467D01*
X228686Y82314D01*
X228533Y82134D01*
X228409Y81933D01*
X228319Y81715D01*
X228264Y81485D01*
X228250Y81250D01*
X228264Y75515D01*
X228319Y75285D01*
X228409Y75067D01*
X228533Y74866D01*
X228686Y74686D01*
X228866Y74533D01*
X229067Y74409D01*
X229285Y74319D01*
X229515Y74264D01*
X229750Y74250D01*
X232493Y74257D01*
Y69493D01*
X227500Y64500D01*
X217250D01*
Y69200D01*
X217384Y69283D01*
X217564Y69436D01*
X217717Y69616D01*
X217841Y69817D01*
X217931Y70035D01*
X217986Y70265D01*
X218000Y70500D01*
X217986Y76735D01*
X217931Y76965D01*
X217841Y77183D01*
X217717Y77384D01*
X217564Y77564D01*
X217384Y77717D01*
X217250Y77800D01*
Y81391D01*
X217268Y81397D01*
X217373Y81452D01*
X217468Y81522D01*
X217551Y81606D01*
X217619Y81702D01*
X217670Y81808D01*
X217818Y82216D01*
X217922Y82637D01*
X217984Y83067D01*
X218005Y83500D01*
X217984Y83933D01*
X217922Y84363D01*
X217818Y84784D01*
X217675Y85194D01*
X217622Y85300D01*
X217553Y85396D01*
X217470Y85481D01*
X217375Y85551D01*
X217269Y85606D01*
X217250Y85612D01*
Y102748D01*
X217368Y102757D01*
X217482Y102785D01*
X217592Y102830D01*
X217692Y102891D01*
X217782Y102968D01*
X217859Y103058D01*
X217920Y103158D01*
X217965Y103268D01*
X217993Y103382D01*
X218000Y103500D01*
Y106500D01*
X217993Y106618D01*
X217965Y106732D01*
X217920Y106842D01*
X217859Y106942D01*
X217782Y107032D01*
X217692Y107109D01*
X217592Y107170D01*
X217482Y107215D01*
X217368Y107243D01*
X217250Y107252D01*
Y112507D01*
X217522Y112951D01*
X217793Y113605D01*
X217958Y114294D01*
X218000Y115000D01*
X217958Y115706D01*
X217793Y116395D01*
X217522Y117049D01*
X217250Y117493D01*
Y133705D01*
X217822Y133942D01*
X218507Y134361D01*
X219117Y134883D01*
X219639Y135493D01*
X220058Y136178D01*
X220365Y136919D01*
X220500Y137480D01*
X220635Y136919D01*
X220942Y136178D01*
X221361Y135493D01*
X221883Y134883D01*
X222493Y134361D01*
X223178Y133942D01*
X223919Y133635D01*
X224700Y133447D01*
X225500Y133384D01*
X226300Y133447D01*
X227081Y133635D01*
X227822Y133942D01*
X228507Y134361D01*
X229117Y134883D01*
X229639Y135493D01*
X230058Y136178D01*
X230365Y136919D01*
X230553Y137700D01*
X230600Y138500D01*
X230553Y139300D01*
X230365Y140081D01*
X230058Y140822D01*
X229639Y141507D01*
X229117Y142117D01*
X228507Y142639D01*
X227822Y143058D01*
X227081Y143365D01*
X226300Y143553D01*
X225500Y143616D01*
X224700Y143553D01*
X223919Y143365D01*
X223178Y143058D01*
X222493Y142639D01*
X221883Y142117D01*
X221361Y141507D01*
X220942Y140822D01*
X220635Y140081D01*
X220500Y139520D01*
X220365Y140081D01*
X220058Y140822D01*
X219639Y141507D01*
X219117Y142117D01*
X218507Y142639D01*
X217822Y143058D01*
X217250Y143295D01*
Y148500D01*
G37*
G36*
Y117493D02*X217152Y117653D01*
X216692Y118192D01*
X216153Y118652D01*
X215549Y119022D01*
X215500Y119042D01*
Y133384D01*
X216300Y133447D01*
X217081Y133635D01*
X217250Y133705D01*
Y117493D01*
G37*
G36*
Y77800D02*X217183Y77841D01*
X216965Y77931D01*
X216735Y77986D01*
X216500Y78000D01*
X215500Y77998D01*
Y79556D01*
X215551Y79625D01*
X215606Y79731D01*
X215643Y79843D01*
X215663Y79960D01*
X215664Y80079D01*
X215646Y80196D01*
X215610Y80309D01*
X215557Y80415D01*
X215500Y80495D01*
Y86511D01*
X215554Y86587D01*
X215607Y86692D01*
X215643Y86805D01*
X215660Y86921D01*
X215659Y87039D01*
X215640Y87156D01*
X215603Y87268D01*
X215548Y87373D01*
X215500Y87438D01*
Y100691D01*
X215532Y100718D01*
X215609Y100808D01*
X215670Y100908D01*
X215715Y101018D01*
X215743Y101132D01*
X215752Y101250D01*
X215743Y101368D01*
X215715Y101482D01*
X215670Y101592D01*
X215609Y101692D01*
X215532Y101782D01*
X215500Y101809D01*
Y108191D01*
X215532Y108218D01*
X215609Y108308D01*
X215670Y108408D01*
X215715Y108518D01*
X215743Y108632D01*
X215752Y108750D01*
X215743Y108868D01*
X215715Y108982D01*
X215670Y109092D01*
X215609Y109192D01*
X215532Y109282D01*
X215500Y109309D01*
Y110958D01*
X215549Y110978D01*
X216153Y111348D01*
X216692Y111808D01*
X217152Y112347D01*
X217250Y112507D01*
Y107252D01*
X217132Y107243D01*
X217018Y107215D01*
X216908Y107170D01*
X216808Y107109D01*
X216718Y107032D01*
X216641Y106942D01*
X216580Y106842D01*
X216535Y106732D01*
X216507Y106618D01*
X216500Y106500D01*
Y103500D01*
X216507Y103382D01*
X216535Y103268D01*
X216580Y103158D01*
X216641Y103058D01*
X216718Y102968D01*
X216808Y102891D01*
X216908Y102830D01*
X217018Y102785D01*
X217132Y102757D01*
X217250Y102748D01*
Y85612D01*
X217157Y85643D01*
X217040Y85663D01*
X216921Y85664D01*
X216804Y85646D01*
X216691Y85610D01*
X216585Y85557D01*
X216488Y85488D01*
X216404Y85405D01*
X216333Y85309D01*
X216279Y85204D01*
X216241Y85092D01*
X216222Y84975D01*
X216221Y84856D01*
X216239Y84739D01*
X216277Y84626D01*
X216376Y84355D01*
X216444Y84075D01*
X216486Y83789D01*
X216500Y83500D01*
X216486Y83211D01*
X216444Y82925D01*
X216376Y82645D01*
X216280Y82372D01*
X216242Y82261D01*
X216225Y82144D01*
X216225Y82026D01*
X216245Y81909D01*
X216282Y81797D01*
X216336Y81693D01*
X216406Y81598D01*
X216491Y81515D01*
X216587Y81446D01*
X216692Y81393D01*
X216805Y81357D01*
X216921Y81340D01*
X217039Y81341D01*
X217156Y81360D01*
X217250Y81391D01*
Y77800D01*
G37*
G36*
Y64500D02*X215500D01*
Y69011D01*
X216735Y69014D01*
X216965Y69069D01*
X217183Y69159D01*
X217250Y69200D01*
Y64500D01*
G37*
G36*
X215500Y148500D02*X217250D01*
Y143295D01*
X217081Y143365D01*
X216300Y143553D01*
X215500Y143616D01*
Y148500D01*
G37*
G36*
X209750Y69200D02*X209817Y69159D01*
X210035Y69069D01*
X210265Y69014D01*
X210500Y69000D01*
X215500Y69011D01*
Y64500D01*
X209750D01*
Y69200D01*
G37*
G36*
Y112507D02*X209848Y112347D01*
X210308Y111808D01*
X210847Y111348D01*
X211451Y110978D01*
X212105Y110707D01*
X212794Y110542D01*
X213500Y110486D01*
X214206Y110542D01*
X214895Y110707D01*
X215500Y110958D01*
Y109309D01*
X215442Y109359D01*
X215342Y109420D01*
X215232Y109465D01*
X215118Y109493D01*
X215000Y109500D01*
X212000D01*
X211882Y109493D01*
X211768Y109465D01*
X211658Y109420D01*
X211558Y109359D01*
X211468Y109282D01*
X211391Y109192D01*
X211330Y109092D01*
X211285Y108982D01*
X211257Y108868D01*
X211248Y108750D01*
X211257Y108632D01*
X211285Y108518D01*
X211330Y108408D01*
X211391Y108308D01*
X211468Y108218D01*
X211558Y108141D01*
X211658Y108080D01*
X211768Y108035D01*
X211882Y108007D01*
X212000Y108000D01*
X215000D01*
X215118Y108007D01*
X215232Y108035D01*
X215342Y108080D01*
X215442Y108141D01*
X215500Y108191D01*
Y101809D01*
X215442Y101859D01*
X215342Y101920D01*
X215232Y101965D01*
X215118Y101993D01*
X215000Y102000D01*
X212000D01*
X211882Y101993D01*
X211768Y101965D01*
X211658Y101920D01*
X211558Y101859D01*
X211468Y101782D01*
X211391Y101692D01*
X211330Y101592D01*
X211285Y101482D01*
X211257Y101368D01*
X211248Y101250D01*
X211257Y101132D01*
X211285Y101018D01*
X211330Y100908D01*
X211391Y100808D01*
X211468Y100718D01*
X211558Y100641D01*
X211658Y100580D01*
X211768Y100535D01*
X211882Y100507D01*
X212000Y100500D01*
X215000D01*
X215118Y100507D01*
X215232Y100535D01*
X215342Y100580D01*
X215442Y100641D01*
X215500Y100691D01*
Y87438D01*
X215478Y87468D01*
X215394Y87551D01*
X215298Y87619D01*
X215192Y87670D01*
X214784Y87818D01*
X214363Y87922D01*
X213933Y87984D01*
X213500Y88005D01*
X213067Y87984D01*
X212637Y87922D01*
X212216Y87818D01*
X211806Y87675D01*
X211700Y87622D01*
X211604Y87553D01*
X211519Y87470D01*
X211449Y87375D01*
X211394Y87269D01*
X211357Y87157D01*
X211337Y87040D01*
X211336Y86921D01*
X211354Y86804D01*
X211390Y86691D01*
X211443Y86585D01*
X211512Y86488D01*
X211595Y86404D01*
X211691Y86333D01*
X211796Y86279D01*
X211908Y86241D01*
X212025Y86222D01*
X212144Y86221D01*
X212261Y86239D01*
X212374Y86277D01*
X212645Y86376D01*
X212925Y86444D01*
X213211Y86486D01*
X213500Y86500D01*
X213789Y86486D01*
X214075Y86444D01*
X214355Y86376D01*
X214628Y86280D01*
X214739Y86242D01*
X214856Y86225D01*
X214974Y86225D01*
X215091Y86245D01*
X215203Y86282D01*
X215307Y86336D01*
X215402Y86406D01*
X215485Y86491D01*
X215500Y86511D01*
Y80495D01*
X215488Y80512D01*
X215405Y80596D01*
X215309Y80667D01*
X215204Y80721D01*
X215092Y80759D01*
X214975Y80778D01*
X214856Y80779D01*
X214739Y80761D01*
X214626Y80723D01*
X214355Y80624D01*
X214075Y80556D01*
X213789Y80514D01*
X213500Y80500D01*
X213211Y80514D01*
X212925Y80556D01*
X212645Y80624D01*
X212372Y80720D01*
X212261Y80758D01*
X212144Y80775D01*
X212026Y80775D01*
X211909Y80755D01*
X211797Y80718D01*
X211693Y80664D01*
X211598Y80594D01*
X211515Y80509D01*
X211446Y80413D01*
X211393Y80308D01*
X211357Y80195D01*
X211340Y80079D01*
X211341Y79961D01*
X211360Y79844D01*
X211397Y79732D01*
X211452Y79627D01*
X211522Y79532D01*
X211606Y79449D01*
X211702Y79381D01*
X211808Y79330D01*
X212216Y79182D01*
X212637Y79078D01*
X213067Y79016D01*
X213500Y78995D01*
X213933Y79016D01*
X214363Y79078D01*
X214784Y79182D01*
X215194Y79325D01*
X215300Y79378D01*
X215396Y79447D01*
X215481Y79530D01*
X215500Y79556D01*
Y77998D01*
X210265Y77986D01*
X210035Y77931D01*
X209817Y77841D01*
X209750Y77800D01*
Y81388D01*
X209843Y81357D01*
X209960Y81337D01*
X210079Y81336D01*
X210196Y81354D01*
X210309Y81390D01*
X210415Y81443D01*
X210512Y81512D01*
X210596Y81595D01*
X210667Y81691D01*
X210721Y81796D01*
X210759Y81908D01*
X210778Y82025D01*
X210779Y82144D01*
X210761Y82261D01*
X210723Y82374D01*
X210624Y82645D01*
X210556Y82925D01*
X210514Y83211D01*
X210500Y83500D01*
X210514Y83789D01*
X210556Y84075D01*
X210624Y84355D01*
X210720Y84628D01*
X210758Y84739D01*
X210775Y84856D01*
X210775Y84974D01*
X210755Y85091D01*
X210718Y85203D01*
X210664Y85307D01*
X210594Y85402D01*
X210509Y85485D01*
X210413Y85554D01*
X210308Y85607D01*
X210195Y85643D01*
X210079Y85660D01*
X209961Y85659D01*
X209844Y85640D01*
X209750Y85609D01*
Y102748D01*
X209868Y102757D01*
X209982Y102785D01*
X210092Y102830D01*
X210192Y102891D01*
X210282Y102968D01*
X210359Y103058D01*
X210420Y103158D01*
X210465Y103268D01*
X210493Y103382D01*
X210500Y103500D01*
Y106500D01*
X210493Y106618D01*
X210465Y106732D01*
X210420Y106842D01*
X210359Y106942D01*
X210282Y107032D01*
X210192Y107109D01*
X210092Y107170D01*
X209982Y107215D01*
X209868Y107243D01*
X209750Y107252D01*
Y112507D01*
G37*
G36*
Y133546D02*X209783Y133559D01*
X209984Y133683D01*
X210164Y133836D01*
X210317Y134016D01*
X210441Y134217D01*
X210531Y134435D01*
X210586Y134665D01*
X210600Y134900D01*
X210596Y137080D01*
X210635Y136919D01*
X210942Y136178D01*
X211361Y135493D01*
X211883Y134883D01*
X212493Y134361D01*
X213178Y133942D01*
X213919Y133635D01*
X214700Y133447D01*
X215500Y133384D01*
Y119042D01*
X214895Y119293D01*
X214206Y119458D01*
X213500Y119514D01*
X212794Y119458D01*
X212105Y119293D01*
X211451Y119022D01*
X210847Y118652D01*
X210308Y118192D01*
X209848Y117653D01*
X209750Y117493D01*
Y133546D01*
G37*
G36*
Y148500D02*X215500D01*
Y143616D01*
X214700Y143553D01*
X213919Y143365D01*
X213178Y143058D01*
X212493Y142639D01*
X211883Y142117D01*
X211361Y141507D01*
X210942Y140822D01*
X210635Y140081D01*
X210591Y139898D01*
X210586Y142335D01*
X210531Y142565D01*
X210441Y142783D01*
X210317Y142984D01*
X210164Y143164D01*
X209984Y143317D01*
X209783Y143441D01*
X209750Y143454D01*
Y148500D01*
G37*
G36*
X195000D02*X209750D01*
Y143454D01*
X209565Y143531D01*
X209335Y143586D01*
X209100Y143600D01*
X201665Y143586D01*
X201435Y143531D01*
X201217Y143441D01*
X201016Y143317D01*
X200836Y143164D01*
X200683Y142984D01*
X200559Y142783D01*
X200469Y142565D01*
X200414Y142335D01*
X200400Y142100D01*
X200414Y134665D01*
X200469Y134435D01*
X200559Y134217D01*
X200683Y134016D01*
X200836Y133836D01*
X201016Y133683D01*
X201217Y133559D01*
X201435Y133469D01*
X201665Y133414D01*
X201900Y133400D01*
X209335Y133414D01*
X209565Y133469D01*
X209750Y133546D01*
Y117493D01*
X209478Y117049D01*
X209207Y116395D01*
X209042Y115706D01*
X208986Y115000D01*
X209042Y114294D01*
X209207Y113605D01*
X209478Y112951D01*
X209750Y112507D01*
Y107252D01*
X209632Y107243D01*
X209518Y107215D01*
X209408Y107170D01*
X209308Y107109D01*
X209218Y107032D01*
X209141Y106942D01*
X209080Y106842D01*
X209035Y106732D01*
X209007Y106618D01*
X209000Y106500D01*
Y103500D01*
X209007Y103382D01*
X209035Y103268D01*
X209080Y103158D01*
X209141Y103058D01*
X209218Y102968D01*
X209308Y102891D01*
X209408Y102830D01*
X209518Y102785D01*
X209632Y102757D01*
X209750Y102748D01*
Y85609D01*
X209732Y85603D01*
X209627Y85548D01*
X209532Y85478D01*
X209449Y85394D01*
X209381Y85298D01*
X209330Y85192D01*
X209182Y84784D01*
X209078Y84363D01*
X209016Y83933D01*
X208995Y83500D01*
X209016Y83067D01*
X209078Y82637D01*
X209182Y82216D01*
X209325Y81806D01*
X209378Y81700D01*
X209447Y81604D01*
X209530Y81519D01*
X209625Y81449D01*
X209731Y81394D01*
X209750Y81388D01*
Y77800D01*
X209616Y77717D01*
X209436Y77564D01*
X209283Y77384D01*
X209159Y77183D01*
X209069Y76965D01*
X209014Y76735D01*
X209000Y76500D01*
X209014Y70265D01*
X209069Y70035D01*
X209159Y69817D01*
X209283Y69616D01*
X209436Y69436D01*
X209616Y69283D01*
X209750Y69200D01*
Y64500D01*
X195000D01*
Y68498D01*
X195118Y68507D01*
X195232Y68535D01*
X195342Y68580D01*
X195442Y68641D01*
X195532Y68718D01*
X195609Y68808D01*
X195670Y68908D01*
X195715Y69018D01*
X195743Y69132D01*
X195750Y69250D01*
Y71750D01*
X195743Y71868D01*
X195715Y71982D01*
X195670Y72092D01*
X195609Y72192D01*
X195532Y72282D01*
X195442Y72359D01*
X195342Y72420D01*
X195232Y72465D01*
X195118Y72493D01*
X195000Y72502D01*
Y108078D01*
X195298Y108565D01*
X195554Y109183D01*
X195711Y109833D01*
X195750Y110500D01*
X195711Y111167D01*
X195554Y111817D01*
X195298Y112435D01*
X195000Y112922D01*
Y121048D01*
X195565Y120702D01*
X196183Y120446D01*
X196833Y120289D01*
X197500Y120237D01*
X198167Y120289D01*
X198817Y120446D01*
X199435Y120702D01*
X200006Y121051D01*
X200514Y121486D01*
X200949Y121994D01*
X201298Y122565D01*
X201554Y123183D01*
X201711Y123833D01*
X201750Y124500D01*
X201711Y125167D01*
X201554Y125817D01*
X201298Y126435D01*
X200949Y127006D01*
X200514Y127514D01*
X200006Y127949D01*
X199435Y128298D01*
X198817Y128554D01*
X198167Y128711D01*
X197500Y128763D01*
X196833Y128711D01*
X196183Y128554D01*
X195565Y128298D01*
X195000Y127952D01*
Y148500D01*
G37*
G36*
Y64500D02*X191500D01*
Y66250D01*
X192750D01*
X192868Y66257D01*
X192982Y66285D01*
X193092Y66330D01*
X193192Y66391D01*
X193282Y66468D01*
X193359Y66558D01*
X193420Y66658D01*
X193465Y66768D01*
X193493Y66882D01*
X193502Y67000D01*
X193493Y67118D01*
X193465Y67232D01*
X193420Y67342D01*
X193359Y67442D01*
X193282Y67532D01*
X193192Y67609D01*
X193092Y67670D01*
X192982Y67715D01*
X192868Y67743D01*
X192750Y67750D01*
X191500D01*
Y73250D01*
X192750D01*
X192868Y73257D01*
X192982Y73285D01*
X193092Y73330D01*
X193192Y73391D01*
X193282Y73468D01*
X193359Y73558D01*
X193420Y73658D01*
X193465Y73768D01*
X193493Y73882D01*
X193502Y74000D01*
X193493Y74118D01*
X193465Y74232D01*
X193420Y74342D01*
X193359Y74442D01*
X193282Y74532D01*
X193192Y74609D01*
X193092Y74670D01*
X192982Y74715D01*
X192868Y74743D01*
X192750Y74750D01*
X191500D01*
Y106237D01*
X192167Y106289D01*
X192817Y106446D01*
X193435Y106702D01*
X194006Y107051D01*
X194514Y107486D01*
X194949Y107994D01*
X195000Y108078D01*
Y72502D01*
X194882Y72493D01*
X194768Y72465D01*
X194658Y72420D01*
X194558Y72359D01*
X194468Y72282D01*
X194391Y72192D01*
X194330Y72092D01*
X194285Y71982D01*
X194257Y71868D01*
X194250Y71750D01*
Y69250D01*
X194257Y69132D01*
X194285Y69018D01*
X194330Y68908D01*
X194391Y68808D01*
X194468Y68718D01*
X194558Y68641D01*
X194658Y68580D01*
X194768Y68535D01*
X194882Y68507D01*
X195000Y68498D01*
Y64500D01*
G37*
G36*
X191500Y148500D02*X195000D01*
Y127952D01*
X194994Y127949D01*
X194486Y127514D01*
X194051Y127006D01*
X193702Y126435D01*
X193446Y125817D01*
X193289Y125167D01*
X193237Y124500D01*
X193289Y123833D01*
X193446Y123183D01*
X193702Y122565D01*
X194051Y121994D01*
X194486Y121486D01*
X194994Y121051D01*
X195000Y121048D01*
Y112922D01*
X194949Y113006D01*
X194514Y113514D01*
X194006Y113949D01*
X193435Y114298D01*
X192817Y114554D01*
X192167Y114711D01*
X191500Y114763D01*
Y148500D01*
G37*
G36*
X188000Y108078D02*X188051Y107994D01*
X188486Y107486D01*
X188994Y107051D01*
X189565Y106702D01*
X190183Y106446D01*
X190833Y106289D01*
X191500Y106237D01*
X191500D01*
Y74750D01*
X190250D01*
X190132Y74743D01*
X190018Y74715D01*
X189908Y74670D01*
X189808Y74609D01*
X189718Y74532D01*
X189641Y74442D01*
X189580Y74342D01*
X189535Y74232D01*
X189507Y74118D01*
X189498Y74000D01*
X189507Y73882D01*
X189535Y73768D01*
X189580Y73658D01*
X189641Y73558D01*
X189718Y73468D01*
X189808Y73391D01*
X189908Y73330D01*
X190018Y73285D01*
X190132Y73257D01*
X190250Y73250D01*
X191500D01*
Y67750D01*
X190250D01*
X190132Y67743D01*
X190018Y67715D01*
X189908Y67670D01*
X189808Y67609D01*
X189718Y67532D01*
X189641Y67442D01*
X189580Y67342D01*
X189535Y67232D01*
X189507Y67118D01*
X189498Y67000D01*
X189507Y66882D01*
X189535Y66768D01*
X189580Y66658D01*
X189641Y66558D01*
X189718Y66468D01*
X189808Y66391D01*
X189908Y66330D01*
X190018Y66285D01*
X190132Y66257D01*
X190250Y66250D01*
X191500D01*
Y64500D01*
X189500D01*
X188000Y66000D01*
Y68498D01*
X188118Y68507D01*
X188232Y68535D01*
X188342Y68580D01*
X188442Y68641D01*
X188532Y68718D01*
X188609Y68808D01*
X188670Y68908D01*
X188715Y69018D01*
X188743Y69132D01*
X188750Y69250D01*
Y71750D01*
X188743Y71868D01*
X188715Y71982D01*
X188670Y72092D01*
X188609Y72192D01*
X188532Y72282D01*
X188442Y72359D01*
X188342Y72420D01*
X188232Y72465D01*
X188118Y72493D01*
X188000Y72502D01*
Y108078D01*
G37*
G36*
Y148500D02*X191500D01*
Y114763D01*
X191500D01*
X190833Y114711D01*
X190183Y114554D01*
X189565Y114298D01*
X188994Y113949D01*
X188486Y113514D01*
X188051Y113006D01*
X188000Y112922D01*
Y148500D01*
G37*
G36*
X176113D02*X188000D01*
Y112922D01*
X187702Y112435D01*
X187446Y111817D01*
X187289Y111167D01*
X187237Y110500D01*
X187289Y109833D01*
X187446Y109183D01*
X187702Y108565D01*
X188000Y108078D01*
Y72502D01*
X187882Y72493D01*
X187768Y72465D01*
X187658Y72420D01*
X187558Y72359D01*
X187468Y72282D01*
X187391Y72192D01*
X187330Y72092D01*
X187285Y71982D01*
X187257Y71868D01*
X187250Y71750D01*
Y69250D01*
X187257Y69132D01*
X187285Y69018D01*
X187330Y68908D01*
X187391Y68808D01*
X187468Y68718D01*
X187558Y68641D01*
X187658Y68580D01*
X187768Y68535D01*
X187882Y68507D01*
X188000Y68498D01*
Y66000D01*
X176113Y77887D01*
Y91130D01*
X176183Y91159D01*
X176384Y91283D01*
X176564Y91436D01*
X176717Y91616D01*
X176841Y91817D01*
X176931Y92035D01*
X176986Y92265D01*
X177000Y92500D01*
X176986Y98735D01*
X176931Y98965D01*
X176841Y99183D01*
X176717Y99384D01*
X176564Y99564D01*
X176384Y99717D01*
X176183Y99841D01*
X176113Y99870D01*
Y103353D01*
X176156Y103360D01*
X176268Y103397D01*
X176373Y103452D01*
X176468Y103522D01*
X176551Y103606D01*
X176619Y103702D01*
X176670Y103808D01*
X176818Y104216D01*
X176922Y104637D01*
X176984Y105067D01*
X177005Y105500D01*
X176984Y105933D01*
X176922Y106363D01*
X176818Y106784D01*
X176675Y107194D01*
X176622Y107300D01*
X176553Y107396D01*
X176470Y107481D01*
X176375Y107551D01*
X176269Y107606D01*
X176157Y107643D01*
X176113Y107651D01*
Y148500D01*
G37*
G36*
Y77887D02*X172500Y81500D01*
Y91007D01*
X175735Y91014D01*
X175965Y91069D01*
X176113Y91130D01*
Y77887D01*
G37*
G36*
X172500Y148500D02*X176113D01*
Y107651D01*
X176040Y107663D01*
X175921Y107664D01*
X175804Y107646D01*
X175691Y107610D01*
X175585Y107557D01*
X175488Y107488D01*
X175404Y107405D01*
X175333Y107309D01*
X175279Y107204D01*
X175241Y107092D01*
X175222Y106975D01*
X175221Y106856D01*
X175239Y106739D01*
X175277Y106626D01*
X175376Y106355D01*
X175444Y106075D01*
X175486Y105789D01*
X175500Y105500D01*
X175486Y105211D01*
X175444Y104925D01*
X175376Y104645D01*
X175280Y104372D01*
X175242Y104261D01*
X175225Y104144D01*
X175225Y104026D01*
X175245Y103909D01*
X175282Y103797D01*
X175336Y103693D01*
X175406Y103598D01*
X175491Y103515D01*
X175587Y103446D01*
X175692Y103393D01*
X175805Y103357D01*
X175921Y103340D01*
X176039Y103341D01*
X176113Y103353D01*
Y99870D01*
X175965Y99931D01*
X175735Y99986D01*
X175500Y100000D01*
X172500Y99993D01*
Y100995D01*
X172933Y101016D01*
X173363Y101078D01*
X173784Y101182D01*
X174194Y101325D01*
X174300Y101378D01*
X174396Y101447D01*
X174481Y101530D01*
X174551Y101625D01*
X174606Y101731D01*
X174643Y101843D01*
X174663Y101960D01*
X174664Y102079D01*
X174646Y102196D01*
X174610Y102309D01*
X174557Y102415D01*
X174488Y102512D01*
X174405Y102596D01*
X174309Y102667D01*
X174204Y102721D01*
X174092Y102759D01*
X173975Y102778D01*
X173856Y102779D01*
X173739Y102761D01*
X173626Y102723D01*
X173355Y102624D01*
X173075Y102556D01*
X172789Y102514D01*
X172500Y102500D01*
Y108500D01*
X172789Y108486D01*
X173075Y108444D01*
X173355Y108376D01*
X173628Y108280D01*
X173739Y108242D01*
X173856Y108225D01*
X173974Y108225D01*
X174091Y108245D01*
X174203Y108282D01*
X174307Y108336D01*
X174402Y108406D01*
X174485Y108491D01*
X174554Y108587D01*
X174607Y108692D01*
X174643Y108805D01*
X174660Y108921D01*
X174659Y109039D01*
X174640Y109156D01*
X174603Y109268D01*
X174548Y109373D01*
X174478Y109468D01*
X174394Y109551D01*
X174298Y109619D01*
X174192Y109670D01*
X173784Y109818D01*
X173363Y109922D01*
X172933Y109984D01*
X172500Y110005D01*
Y148500D01*
G37*
G36*
X168887Y91130D02*X169035Y91069D01*
X169265Y91014D01*
X169500Y91000D01*
X172500Y91007D01*
Y81500D01*
X168887Y85113D01*
Y91130D01*
G37*
G36*
Y148500D02*X172500D01*
Y110005D01*
X172067Y109984D01*
X171637Y109922D01*
X171216Y109818D01*
X170806Y109675D01*
X170700Y109622D01*
X170604Y109553D01*
X170519Y109470D01*
X170449Y109375D01*
X170394Y109269D01*
X170357Y109157D01*
X170337Y109040D01*
X170336Y108921D01*
X170354Y108804D01*
X170390Y108691D01*
X170443Y108585D01*
X170512Y108488D01*
X170595Y108404D01*
X170691Y108333D01*
X170796Y108279D01*
X170908Y108241D01*
X171025Y108222D01*
X171144Y108221D01*
X171261Y108239D01*
X171374Y108277D01*
X171645Y108376D01*
X171925Y108444D01*
X172211Y108486D01*
X172500Y108500D01*
Y102500D01*
X172211Y102514D01*
X171925Y102556D01*
X171645Y102624D01*
X171372Y102720D01*
X171261Y102758D01*
X171144Y102775D01*
X171026Y102775D01*
X170909Y102755D01*
X170797Y102718D01*
X170693Y102664D01*
X170598Y102594D01*
X170515Y102509D01*
X170446Y102413D01*
X170393Y102308D01*
X170357Y102195D01*
X170340Y102079D01*
X170341Y101961D01*
X170360Y101844D01*
X170397Y101732D01*
X170452Y101627D01*
X170522Y101532D01*
X170606Y101449D01*
X170702Y101381D01*
X170808Y101330D01*
X171216Y101182D01*
X171637Y101078D01*
X172067Y101016D01*
X172500Y100995D01*
Y99993D01*
X169265Y99986D01*
X169035Y99931D01*
X168887Y99870D01*
Y103349D01*
X168960Y103337D01*
X169079Y103336D01*
X169196Y103354D01*
X169309Y103390D01*
X169415Y103443D01*
X169512Y103512D01*
X169596Y103595D01*
X169667Y103691D01*
X169721Y103796D01*
X169759Y103908D01*
X169778Y104025D01*
X169779Y104144D01*
X169761Y104261D01*
X169723Y104374D01*
X169624Y104645D01*
X169556Y104925D01*
X169514Y105211D01*
X169500Y105500D01*
X169514Y105789D01*
X169556Y106075D01*
X169624Y106355D01*
X169720Y106628D01*
X169758Y106739D01*
X169775Y106856D01*
X169775Y106974D01*
X169755Y107091D01*
X169718Y107203D01*
X169664Y107307D01*
X169594Y107402D01*
X169509Y107485D01*
X169413Y107554D01*
X169308Y107607D01*
X169195Y107643D01*
X169079Y107660D01*
X168961Y107659D01*
X168887Y107647D01*
Y148500D01*
G37*
G36*
X161500D02*X168887D01*
Y107647D01*
X168844Y107640D01*
X168732Y107603D01*
X168627Y107548D01*
X168532Y107478D01*
X168449Y107394D01*
X168381Y107298D01*
X168330Y107192D01*
X168182Y106784D01*
X168078Y106363D01*
X168016Y105933D01*
X167995Y105500D01*
X168016Y105067D01*
X168078Y104637D01*
X168182Y104216D01*
X168325Y103806D01*
X168378Y103700D01*
X168447Y103604D01*
X168530Y103519D01*
X168625Y103449D01*
X168731Y103394D01*
X168843Y103357D01*
X168887Y103349D01*
Y99870D01*
X168817Y99841D01*
X168616Y99717D01*
X168436Y99564D01*
X168283Y99384D01*
X168159Y99183D01*
X168069Y98965D01*
X168014Y98735D01*
X168000Y98500D01*
X168014Y92265D01*
X168069Y92035D01*
X168159Y91817D01*
X168283Y91616D01*
X168436Y91436D01*
X168616Y91283D01*
X168817Y91159D01*
X168887Y91130D01*
Y85113D01*
X157500Y96500D01*
Y120257D01*
X160485Y120264D01*
X160715Y120319D01*
X160933Y120409D01*
X161134Y120533D01*
X161314Y120686D01*
X161467Y120866D01*
X161591Y121067D01*
X161681Y121285D01*
X161736Y121515D01*
X161750Y121750D01*
X161736Y127485D01*
X161681Y127715D01*
X161591Y127933D01*
X161467Y128134D01*
X161314Y128314D01*
X161134Y128467D01*
X160933Y128591D01*
X160715Y128681D01*
X160485Y128736D01*
X160250Y128750D01*
X157500Y128743D01*
Y133500D01*
X161500D01*
Y148500D01*
G37*
G36*
X157500Y96500D02*X151500Y102500D01*
Y133500D01*
X157500D01*
Y128743D01*
X154515Y128736D01*
X154285Y128681D01*
X154067Y128591D01*
X153866Y128467D01*
X153686Y128314D01*
X153533Y128134D01*
X153409Y127933D01*
X153319Y127715D01*
X153264Y127485D01*
X153250Y127250D01*
X153264Y121515D01*
X153319Y121285D01*
X153409Y121067D01*
X153533Y120866D01*
X153686Y120686D01*
X153866Y120533D01*
X154067Y120409D01*
X154285Y120319D01*
X154515Y120264D01*
X154750Y120250D01*
X157500Y120257D01*
Y96500D01*
G37*
G36*
X231500Y148500D02*X238500D01*
Y140500D01*
X231500D01*
Y148500D01*
G37*
G54D35*X20000Y53000D02*X7500Y40500D01*
G54D36*X55500Y65000D02*X22000D01*
G54D35*X7500Y40500D02*Y14500D01*
X12500Y9500D01*
X81500D01*
G54D36*X40000Y53000D02*Y65000D01*
X60500Y72000D02*X55500Y65000D01*
G54D37*X42000Y82500D02*X160500D01*
X135500Y91000D02*X159000D01*
X103614Y153886D02*X112500Y145000D01*
Y114000D02*X135500Y91000D01*
X103614Y154122D02*Y153886D01*
X112500Y114000D02*Y145000D01*
X111882Y154122D02*Y163965D01*
X117000Y169083D01*
X32000Y92500D02*X42000Y82500D01*
X32000Y92500D02*Y104500D01*
X24000Y123000D02*X32000Y131000D01*
Y104500D02*X24000Y112500D01*
Y123000D01*
G54D38*X39500Y166500D02*X37500Y168500D01*
G54D39*X36500Y170500D02*X34500Y168500D01*
G54D38*X38500Y170000D02*X39500Y169000D01*
Y166500D01*
G54D39*X35000Y172000D02*X36500Y170500D01*
X28500Y172000D02*X35000D01*
G54D38*X27500Y174500D02*X36500D01*
X30000Y168500D02*X31000D01*
X38500Y172500D02*Y170000D01*
X30500Y168500D02*X37500D01*
X36500Y174500D02*X38500Y172500D01*
X43000Y165500D02*X41500Y164000D01*
X45500Y163000D02*X43000Y165500D01*
X43500Y162000D02*X45500D01*
X43500D02*X41500Y164000D01*
X45500Y163000D02*Y162000D01*
X47000Y160500D02*X45500Y162000D01*
X47500Y176000D02*Y163000D01*
Y176000D02*X52000D01*
Y163000D01*
X47000Y160500D02*X49000D01*
X49500Y161000D02*X49000Y160500D01*
X49500Y162000D02*Y161000D01*
Y162000D02*X48500Y163000D01*
X50500D02*X49500Y162000D01*
X50500Y163000D02*X52000D01*
X47500D02*X52000D01*
X26500Y167000D02*Y166000D01*
X28500Y165000D02*X27500Y164000D01*
X28500Y167000D02*Y165000D01*
X24000Y166000D02*X26500D01*
X23000Y165000D02*X24000Y166000D01*
X21500Y165000D02*X23000D01*
X25000Y172000D02*X27500Y174500D01*
X32500Y175500D02*Y175000D01*
G54D39*X27500Y171000D02*X28500Y172000D01*
G54D38*X30000Y176000D02*X34000D01*
X26500Y167000D02*X25000Y168500D01*
G54D39*X27500Y171000D02*Y169500D01*
X28500Y168500D02*X27500Y169500D01*
X28500Y168500D02*X30000D01*
G54D38*X25000Y172000D02*Y168500D01*
X30000D02*X28500Y167000D01*
X24000Y164000D02*X23000Y165000D01*
X24000Y164000D02*X27500D01*
X25500Y165000D02*Y164500D01*
G54D35*X77500Y9500D02*X264500D01*
X81500D02*X96500Y24500D01*
G54D40*X108500Y19500D02*X112500Y15500D01*
X178500D02*X230500D01*
X112500D02*X179500D01*
X96500Y34500D02*X103500D01*
X108500Y29500D01*
Y19500D01*
G54D35*X253000Y30500D02*X248000Y25500D01*
X240500D01*
X264500Y9500D02*X287500Y32500D01*
G54D40*X230500Y15500D02*X240500Y25500D01*
G54D37*X160500Y82500D02*X188500Y54500D01*
X254000D01*
X189000Y61000D02*X251000D01*
X159000Y91000D02*X189000Y61000D01*
G54D35*X253000Y38000D02*Y30500D01*
G54D37*X297500Y73500D02*X280000D01*
X263500D02*X283500D01*
X270500Y78500D02*X275500Y73500D01*
X254000Y54500D02*X273000Y73500D01*
X251000Y61000D02*X263500Y73500D01*
X279500Y63500D02*X297500D01*
G54D35*Y53500D02*X278500D01*
X297500Y63500D02*X280500D01*
G54D37*X270500Y78500D02*Y140500D01*
G54D35*X235500Y144500D02*X263000D01*
X266500Y148000D01*
X288000D01*
X307000Y129000D01*
G54D37*X297479Y73479D02*X297500Y73500D01*
Y63500D02*Y73500D01*
G54D35*X305000D01*
X307000Y75500D01*
Y129000D01*
X278500Y63500D02*X253000Y38000D01*
X287500Y32500D02*Y53500D01*
G54D38*X162980Y159490D02*X163475Y159985D01*
X161495Y159490D02*X162980D01*
X161000Y159985D02*X161495Y159490D01*
X161000Y159985D02*Y162955D01*
X161495Y163450D01*
X162980D01*
X163475Y162955D01*
Y161965D02*Y162955D01*
X162980Y161470D02*X163475Y161965D01*
X161990Y161470D02*X162980D01*
X165158Y161965D02*Y163450D01*
Y161965D02*X165653Y161470D01*
X166643D01*
X164663D02*X165158Y161965D01*
X167831D02*Y162955D01*
Y161965D02*X168326Y161470D01*
X169316D01*
X169811Y161965D01*
Y162955D01*
X169316Y163450D02*X169811Y162955D01*
X168326Y163450D02*X169316D01*
X167831Y162955D02*X168326Y163450D01*
X170999Y161470D02*Y162955D01*
X171494Y163450D01*
X172484D01*
X172979Y162955D01*
Y161470D02*Y162955D01*
X174662Y161965D02*Y163450D01*
Y161965D02*X175157Y161470D01*
X175652D01*
X176147Y161965D01*
Y163450D01*
X174167Y161470D02*X174662Y161965D01*
X179315Y159490D02*Y163450D01*
X178820D02*X179315Y162955D01*
X177830Y163450D02*X178820D01*
X177335Y162955D02*X177830Y163450D01*
X177335Y161965D02*Y162955D01*
Y161965D02*X177830Y161470D01*
X178820D01*
X179315Y161965D01*
X182780Y159490D02*Y163450D01*
X182285Y159490D02*X184265D01*
X184760Y159985D01*
Y160975D01*
X184265Y161470D02*X184760Y160975D01*
X182780Y161470D02*X184265D01*
X187433D02*X187928Y161965D01*
X186443Y161470D02*X187433D01*
X185948Y161965D02*X186443Y161470D01*
X185948Y161965D02*Y162955D01*
X186443Y163450D01*
X187928Y161470D02*Y162955D01*
X188423Y163450D01*
X186443D02*X187433D01*
X187928Y162955D01*
X190106Y159490D02*Y162955D01*
X190601Y163450D01*
X189611Y160975D02*X190601D01*
X191591Y159490D02*Y163450D01*
Y161965D02*X192086Y161470D01*
X193076D01*
X193571Y161965D01*
Y163450D01*
X197036D02*X198521D01*
X196541Y162955D02*X197036Y163450D01*
X196541Y159985D02*Y162955D01*
Y159985D02*X197036Y159490D01*
X198521D01*
X200204Y161965D02*Y163450D01*
Y161965D02*X200699Y161470D01*
X201689D01*
X199709D02*X200204Y161965D01*
X204362Y161470D02*X204857Y161965D01*
X203372Y161470D02*X204362D01*
X202877Y161965D02*X203372Y161470D01*
X202877Y161965D02*Y162955D01*
X203372Y163450D01*
X204857Y161470D02*Y162955D01*
X205352Y163450D01*
X203372D02*X204362D01*
X204857Y162955D01*
X206540Y161470D02*X208520D01*
X206540Y163450D02*X208520Y161470D01*
X206540Y163450D02*X208520D01*
X209708Y161470D02*Y162955D01*
X210203Y163450D01*
X211688Y161470D02*Y164440D01*
X211193Y164935D02*X211688Y164440D01*
X210203Y164935D02*X211193D01*
X209708Y164440D02*X210203Y164935D01*
Y163450D02*X211193D01*
X211688Y162955D01*
X213371Y161965D02*Y163450D01*
Y161965D02*X213866Y161470D01*
X214361D01*
X214856Y161965D01*
Y163450D01*
X212876Y161470D02*X213371Y161965D01*
X216539Y163450D02*X218024D01*
X216044Y162955D02*X216539Y163450D01*
X216044Y161965D02*Y162955D01*
Y161965D02*X216539Y161470D01*
X217529D01*
X218024Y161965D01*
X216044Y162460D02*X218024D01*
Y161965D02*Y162460D01*
X219707Y163450D02*X221192D01*
X221687Y162955D01*
X221192Y162460D02*X221687Y162955D01*
X219707Y162460D02*X221192D01*
X219212Y161965D02*X219707Y162460D01*
X219212Y161965D02*X219707Y161470D01*
X221192D01*
X221687Y161965D01*
X219212Y162955D02*X219707Y163450D01*
X223370D02*X224855D01*
X225350Y162955D01*
X224855Y162460D02*X225350Y162955D01*
X223370Y162460D02*X224855D01*
X222875Y161965D02*X223370Y162460D01*
X222875Y161965D02*X223370Y161470D01*
X224855D01*
X225350Y161965D01*
X222875Y162955D02*X223370Y163450D01*
X226538Y162955D02*Y163450D01*
Y159490D02*Y161965D01*
X229508Y160975D02*X230003D01*
X229508Y161965D02*X230003D01*
X231191Y159490D02*X231686Y159985D01*
Y162955D01*
X231191Y163450D02*X231686Y162955D01*
X10500Y153000D02*Y156500D01*
X11000Y157000D01*
X10000Y154500D02*X11000D01*
X12000Y155500D02*Y156500D01*
Y155500D02*X12500Y155000D01*
X13500D01*
X14000Y155500D01*
Y156500D01*
X13500Y157000D02*X14000Y156500D01*
X12500Y157000D02*X13500D01*
X12000Y156500D02*X12500Y157000D01*
X17500Y153500D02*Y157000D01*
Y153500D02*X18000Y153000D01*
X18500D01*
X17000Y155000D02*X18000D01*
X19500Y153000D02*Y156500D01*
X20000Y157000D01*
X22500Y155000D02*X23000Y155500D01*
X21500Y155000D02*X22500D01*
X21000Y155500D02*X21500Y155000D01*
X21000Y155500D02*Y156500D01*
X21500Y157000D01*
X23000Y155000D02*Y156500D01*
X23500Y157000D01*
X21500D02*X22500D01*
X23000Y156500D01*
X25200Y155500D02*Y157000D01*
Y155500D02*X25700Y155000D01*
X26200D01*
X26700Y155500D01*
Y157000D01*
Y155500D02*X27200Y155000D01*
X27700D01*
X28200Y155500D01*
Y157000D01*
X24700Y155000D02*X25200Y155500D01*
X29400Y154000D02*Y154500D01*
Y155500D02*Y157000D01*
X30900Y155500D02*Y157000D01*
Y155500D02*X31400Y155000D01*
X31900D01*
X32400Y155500D01*
Y157000D01*
X30400Y155000D02*X30900Y155500D01*
X35100Y155000D02*X35600Y155500D01*
X34100Y155000D02*X35100D01*
X33600Y155500D02*X34100Y155000D01*
X33600Y155500D02*Y156500D01*
X34100Y157000D01*
X35100D01*
X35600Y156500D01*
X33600Y158000D02*X34100Y158500D01*
X35100D01*
X35600Y158000D01*
Y155000D02*Y158000D01*
X40600Y153000D02*Y157000D01*
X40100D02*X40600Y156500D01*
X39100Y157000D02*X40100D01*
X38600Y156500D02*X39100Y157000D01*
X38600Y155500D02*Y156500D01*
Y155500D02*X39100Y155000D01*
X40100D01*
X40600Y155500D01*
X41800Y155000D02*Y156500D01*
X42300Y157000D01*
X43300D01*
X43800Y156500D01*
Y155000D02*Y156500D01*
X45500Y155000D02*X47000D01*
X45000Y155500D02*X45500Y155000D01*
X45000Y155500D02*Y156500D01*
X45500Y157000D01*
X47000D01*
X48200Y153000D02*Y157000D01*
Y155500D02*X49700Y157000D01*
X48200Y155500D02*X49200Y154500D01*
X51400Y157000D02*X52900D01*
X53400Y156500D01*
X52900Y156000D02*X53400Y156500D01*
X51400Y156000D02*X52900D01*
X50900Y155500D02*X51400Y156000D01*
X50900Y155500D02*X51400Y155000D01*
X52900D01*
X53400Y155500D01*
X50900Y156500D02*X51400Y157000D01*
X54600D02*X55100D01*
X15000Y145000D02*X16500D01*
Y148500D01*
X16000Y149000D02*X16500Y148500D01*
X15500Y149000D02*X16000D01*
X15000Y148500D02*X15500Y149000D01*
X17700Y147000D02*Y148500D01*
X18200Y149000D01*
X19200D01*
X19700Y148500D01*
Y147000D02*Y148500D01*
X21400Y149000D02*X22900D01*
X23400Y148500D01*
X22900Y148000D02*X23400Y148500D01*
X21400Y148000D02*X22900D01*
X20900Y147500D02*X21400Y148000D01*
X20900Y147500D02*X21400Y147000D01*
X22900D01*
X23400Y147500D01*
X20900Y148500D02*X21400Y149000D01*
X25100Y145000D02*Y148500D01*
X25600Y149000D01*
X24600Y146500D02*X25600D01*
X28900Y149000D02*X30400D01*
X30900Y148500D01*
X30400Y148000D02*X30900Y148500D01*
X28900Y148000D02*X30400D01*
X28400Y147500D02*X28900Y148000D01*
X28400Y147500D02*X28900Y147000D01*
X30400D01*
X30900Y147500D01*
X28400Y148500D02*X28900Y149000D01*
X33600Y147000D02*X34100Y147500D01*
X32600Y147000D02*X33600D01*
X32100Y147500D02*X32600Y147000D01*
X32100Y147500D02*Y148500D01*
X32600Y149000D01*
X34100Y147000D02*Y148500D01*
X34600Y149000D01*
X32600D02*X33600D01*
X34100Y148500D01*
X35800Y147000D02*Y148500D01*
X36300Y149000D01*
X37800Y147000D02*Y150000D01*
X37300Y150500D02*X37800Y150000D01*
X36300Y150500D02*X37300D01*
X35800Y150000D02*X36300Y150500D01*
Y149000D02*X37300D01*
X37800Y148500D01*
X40800Y145000D02*Y149000D01*
Y145000D02*Y145500D01*
X43300Y148000D01*
Y145000D02*Y149000D01*
X44500Y145500D02*Y148500D01*
Y145500D02*X45000Y145000D01*
X46000D01*
X46500Y145500D01*
Y148500D01*
X46000Y149000D02*X46500Y148500D01*
X45000Y149000D02*X46000D01*
X44500Y148500D02*X45000Y149000D01*
G54D41*X260500Y160500D03*
X300500D03*
G54D42*X270500Y140500D03*
X280500D03*
G54D34*G36*
X201900Y142100D02*Y134900D01*
X209100D01*
Y142100D01*
X201900D01*
G37*
G54D43*X215500Y138500D03*
X225500D03*
G54D34*G36*
X188750Y73250D02*Y67750D01*
X194250D01*
Y73250D01*
X188750D01*
G37*
G54D44*X176500Y54500D03*
G54D34*G36*
X199250Y37250D02*Y31750D01*
X204750D01*
Y37250D01*
X199250D01*
G37*
G54D45*X242000Y34500D03*
G54D34*G36*
X237750Y28250D02*Y22750D01*
X243250D01*
Y28250D01*
X237750D01*
G37*
G54D45*X197500Y124500D03*
G54D34*G36*
X210500Y108000D02*Y102000D01*
X216500D01*
Y108000D01*
X210500D01*
G37*
G54D44*X213500Y115000D03*
G54D45*X232500Y118500D03*
G54D34*G36*
X254750Y103750D02*Y98250D01*
X260250D01*
Y103750D01*
X254750D01*
G37*
G36*
X294500Y86500D02*Y80500D01*
X300500D01*
Y86500D01*
X294500D01*
G37*
G36*
X229750Y81250D02*Y75750D01*
X235250D01*
Y81250D01*
X229750D01*
G37*
G36*
X210500Y76500D02*Y70500D01*
X216500D01*
Y76500D01*
X210500D01*
G37*
G54D44*X213500Y83500D03*
G54D34*G36*
X275500Y86500D02*Y80500D01*
X281500D01*
Y86500D01*
X275500D01*
G37*
G54D44*X278500Y73500D03*
X297500D03*
G54D45*Y101000D03*
G54D44*Y63500D03*
Y53500D03*
Y43500D03*
X278500Y63500D03*
Y53500D03*
Y43500D03*
G54D45*X280500Y25500D03*
G54D34*G36*
X93500Y27500D02*Y21500D01*
X99500D01*
Y27500D01*
X93500D01*
G37*
G54D44*X20000Y23000D03*
X30000D03*
X40000D03*
X50000D03*
X119500Y24500D03*
X96500Y34500D03*
X119500Y44500D03*
Y34500D03*
G54D34*G36*
X37250Y107750D02*Y102250D01*
X42750D01*
Y107750D01*
X37250D01*
G37*
G36*
X19250D02*Y102250D01*
X24750D01*
Y107750D01*
X19250D01*
G37*
G54D45*X95500Y105000D03*
Y91000D03*
X40000Y65000D03*
G54D34*G36*
X57750Y74750D02*Y69250D01*
X63250D01*
Y74750D01*
X57750D01*
G37*
G54D45*X90500Y72000D03*
X22000Y65000D03*
G54D34*G36*
X52750Y67750D02*Y62250D01*
X58250D01*
Y67750D01*
X52750D01*
G37*
G54D45*X95500Y65000D03*
G54D46*X13500Y116000D03*
X32000D03*
X50500D03*
G54D34*G36*
X47000Y56000D02*Y50000D01*
X53000D01*
Y56000D01*
X47000D01*
G37*
G54D44*X40000Y53000D03*
X30000D03*
X20000D03*
G54D34*G36*
X116500Y57500D02*Y51500D01*
X122500D01*
Y57500D01*
X116500D01*
G37*
G54D46*X22000Y181000D03*
X42000D03*
G54D34*G36*
X26750Y136250D02*Y125750D01*
X37250D01*
Y136250D01*
X26750D01*
G37*
G54D46*X50500Y131000D03*
X13500D03*
G54D47*X117000Y169083D03*
X90425Y165933D03*
G54D48*X103614Y144280D03*
X111882Y154122D03*
X103614D03*
G54D47*X143575Y165933D03*
G54D48*X130386Y154122D03*
Y144280D03*
G54D45*X191500Y110500D03*
G54D34*G36*
X169500Y98500D02*Y92500D01*
X175500D01*
Y98500D01*
X169500D01*
G37*
G54D44*X172500Y105500D03*
G54D34*G36*
X154750Y127250D02*Y121750D01*
X160250D01*
Y127250D01*
X154750D01*
G37*
G36*
X173500Y47500D02*Y41500D01*
X179500D01*
Y47500D01*
X173500D01*
G37*
G54D44*X149500Y24500D03*
Y34500D03*
Y44500D03*
Y54500D03*
G54D34*G36*
X132750Y107750D02*Y102250D01*
X138250D01*
Y107750D01*
X132750D01*
G37*
G36*
Y93750D02*Y88250D01*
X138250D01*
Y93750D01*
X132750D01*
G37*
G54D49*G54D50*G54D51*G54D40*G54D52*G54D40*G54D52*G54D40*G54D52*G54D40*G54D53*G54D40*G54D53*G54D40*G54D54*G54D53*G54D55*G54D54*G54D56*G54D57*G54D56*G54D57*G54D40*G54D53*G54D40*M02*
