G04 start of page 9 for group -4078 idx -4078 *
G04 Title: (unknown), bottomsilk *
G04 Creator: pcb 20140316 *
G04 CreationDate: Wed 09 Mar 2016 04:49:46 PM GMT UTC *
G04 For: fosse *
G04 Format: Gerber/RS-274X *
G04 PCB-Dimensions (mil): 3665.00 1935.00 *
G04 PCB-Coordinate-Origin: lower left *
%MOIN*%
%FSLAX25Y25*%
%LNBOTTOMSILK*%
%ADD100C,0.0100*%
%ADD99C,0.0080*%
%ADD98C,0.0060*%
G54D98*X192208Y143558D02*Y138440D01*
X180791Y143558D02*Y138440D01*
Y143558D02*X192208D01*
X180791Y138440D02*X192208D01*
G54D99*X155000Y150500D02*Y140500D01*
Y150500D02*X176000D01*
Y140500D01*
X155000D02*X176000D01*
X207740Y143362D02*Y138638D01*
X200260Y143362D02*Y138638D01*
X158138Y123760D02*X162862D01*
X158138Y131240D02*X162862D01*
G54D100*X194902Y137138D02*X197902D01*
X194902D02*X193902Y138138D01*
X194902Y139138D01*
X197902D01*
Y140338D02*Y142338D01*
X197402Y142838D01*
X196402D02*X197402D01*
X195902Y142338D02*X196402Y142838D01*
X195902Y140838D02*Y142338D01*
X193902Y140838D02*X197902D01*
X195902D02*X193902Y142838D01*
X195902Y144038D02*Y145538D01*
X193902Y144038D02*Y146038D01*
Y144038D02*X197902D01*
Y146038D01*
Y149238D02*X197402Y149738D01*
X197902Y147738D02*Y149238D01*
X197402Y147238D02*X197902Y147738D01*
X194402Y147238D02*X197402D01*
X194402D02*X193902Y147738D01*
Y149238D01*
X194402Y149738D01*
X195402D01*
X195902Y149238D02*X195402Y149738D01*
X195902Y148238D02*Y149238D01*
X193902Y151438D02*Y152438D01*
Y151938D02*X197902D01*
X196902Y150938D02*X197902Y151938D01*
X209150Y138850D02*Y140350D01*
X209650Y138350D02*X209150Y138850D01*
X209650Y138350D02*X212650D01*
X213150Y138850D01*
Y140350D01*
X212650Y141550D02*X213150Y142050D01*
Y143050D01*
X212650Y143550D01*
X209650D02*X212650D01*
X209150Y143050D02*X209650Y143550D01*
X209150Y142050D02*Y143050D01*
X209650Y141550D02*X209150Y142050D01*
X211150D02*Y143550D01*
X158350Y122350D02*X159850D01*
X157850Y121850D02*X158350Y122350D01*
X157850Y118850D02*Y121850D01*
Y118850D02*X158350Y118350D01*
X159850D01*
X162550D02*X163050Y118850D01*
X161550Y118350D02*X162550D01*
X161050Y118850D02*X161550Y118350D01*
X161050Y118850D02*Y121850D01*
X161550Y122350D01*
X162550Y120350D02*X163050Y120850D01*
X161050Y120350D02*X162550D01*
X161550Y122350D02*X162550D01*
X163050Y121850D01*
Y120850D02*Y121850D01*
X163500Y139000D02*X165000D01*
X163000Y138500D02*X163500Y139000D01*
X163000Y135500D02*Y138500D01*
Y135500D02*X163500Y135000D01*
X165000D01*
X166200Y137000D02*X168200Y135000D01*
X166200Y137000D02*X168700D01*
X168200Y135000D02*Y139000D01*
M02*
