G04 start of page 12 for group -3984 idx -3984 *
G04 Title: (unknown), fab *
G04 Creator: pcb 20140316 *
G04 CreationDate: Wed 09 Mar 2016 04:49:46 PM GMT UTC *
G04 For: fosse *
G04 Format: Gerber/RS-274X *
G04 PCB-Dimensions (mil): 3665.00 1935.00 *
G04 PCB-Coordinate-Origin: lower left *
%MOIN*%
%FSLAX25Y25*%
%LNFAB*%
%ADD109C,0.0100*%
%ADD108C,0.0060*%
%ADD107C,0.0001*%
%ADD106R,0.0080X0.0080*%
G54D106*X120000Y167583D02*Y162783D01*
G54D107*G36*
X119454Y167730D02*X124307Y170529D01*
X124706Y169836D01*
X119853Y167037D01*
X119454Y167730D01*
G37*
G36*
X120147Y167037D02*X115294Y169836D01*
X115693Y170529D01*
X120546Y167730D01*
X120147Y167037D01*
G37*
G54D106*X118400Y167583D02*G75*G03X121600Y167583I1600J0D01*G01*
G75*G03X118400Y167583I-1600J0D01*G01*
X116800D02*G75*G03X123200Y167583I3200J0D01*G01*
G75*G03X116800Y167583I-3200J0D01*G01*
X93425Y164433D02*Y159633D01*
G54D107*G36*
X92879Y164580D02*X97732Y167379D01*
X98131Y166686D01*
X93278Y163887D01*
X92879Y164580D01*
G37*
G36*
X93572Y163887D02*X88719Y166686D01*
X89118Y167379D01*
X93971Y164580D01*
X93572Y163887D01*
G37*
G54D106*X91825Y164433D02*G75*G03X95025Y164433I1600J0D01*G01*
G75*G03X91825Y164433I-1600J0D01*G01*
X90225D02*G75*G03X96625Y164433I3200J0D01*G01*
G75*G03X90225Y164433I-3200J0D01*G01*
X146575D02*Y159633D01*
G54D107*G36*
X146029Y164580D02*X150882Y167379D01*
X151281Y166686D01*
X146428Y163887D01*
X146029Y164580D01*
G37*
G36*
X146722Y163887D02*X141869Y166686D01*
X142268Y167379D01*
X147121Y164580D01*
X146722Y163887D01*
G37*
G54D106*X144975Y164433D02*G75*G03X148175Y164433I1600J0D01*G01*
G75*G03X144975Y164433I-1600J0D01*G01*
X143375D02*G75*G03X149775Y164433I3200J0D01*G01*
G75*G03X143375Y164433I-3200J0D01*G01*
X15000Y204750D02*Y199950D01*
G54D107*G36*
X14454Y204897D02*X19307Y207696D01*
X19706Y207003D01*
X14853Y204204D01*
X14454Y204897D01*
G37*
G36*
X15147Y204204D02*X10294Y207003D01*
X10693Y207696D01*
X15546Y204897D01*
X15147Y204204D01*
G37*
G54D106*X13400Y204750D02*G75*G03X16600Y204750I1600J0D01*G01*
G75*G03X13400Y204750I-1600J0D01*G01*
X11800D02*G75*G03X18200Y204750I3200J0D01*G01*
G75*G03X11800Y204750I-3200J0D01*G01*
G54D108*X135000Y207000D02*Y206250D01*
X136500Y204750D01*
X138000Y206250D01*
Y207000D02*Y206250D01*
X136500Y204750D02*Y201000D01*
X139800Y204000D02*X142050D01*
X139800Y201000D02*X142800D01*
X139800Y207000D02*Y201000D01*
Y207000D02*X142800D01*
X147600D02*X148350Y206250D01*
X145350Y207000D02*X147600D01*
X144600Y206250D02*X145350Y207000D01*
X144600Y206250D02*Y204750D01*
X145350Y204000D01*
X147600D01*
X148350Y203250D01*
Y201750D01*
X147600Y201000D02*X148350Y201750D01*
X145350Y201000D02*X147600D01*
X144600Y201750D02*X145350Y201000D01*
X98000Y206250D02*X98750Y207000D01*
X100250D01*
X101000Y206250D01*
Y201750D01*
X100250Y201000D02*X101000Y201750D01*
X98750Y201000D02*X100250D01*
X98000Y201750D02*X98750Y201000D01*
Y204000D02*X101000D01*
X45000Y201750D02*X45750Y201000D01*
X45000Y206250D02*Y201750D01*
Y206250D02*X45750Y207000D01*
X47250D01*
X48000Y206250D01*
Y201750D01*
X47250Y201000D02*X48000Y201750D01*
X45750Y201000D02*X47250D01*
X45000Y202500D02*X48000Y205500D01*
X49800Y201000D02*X50550D01*
X52350Y201750D02*X53100Y201000D01*
X52350Y206250D02*Y201750D01*
Y206250D02*X53100Y207000D01*
X54600D01*
X55350Y206250D01*
Y201750D01*
X54600Y201000D02*X55350Y201750D01*
X53100Y201000D02*X54600D01*
X52350Y202500D02*X55350Y205500D01*
X57150Y201000D02*X60150Y204000D01*
Y206250D02*Y204000D01*
X59400Y207000D02*X60150Y206250D01*
X57900Y207000D02*X59400D01*
X57150Y206250D02*X57900Y207000D01*
X57150Y206250D02*Y204750D01*
X57900Y204000D01*
X60150D01*
X61950Y206250D02*X62700Y207000D01*
X64200D01*
X64950Y206250D01*
Y201750D01*
X64200Y201000D02*X64950Y201750D01*
X62700Y201000D02*X64200D01*
X61950Y201750D02*X62700Y201000D01*
Y204000D02*X64950D01*
X261900Y160600D02*X265100D01*
X261900D02*Y157400D01*
X265100D01*
Y160600D02*Y157400D01*
X260300Y162200D02*X266700D01*
X260300D02*Y155800D01*
X266700D01*
Y162200D02*Y155800D01*
X301900Y160600D02*X305100D01*
X301900D02*Y157400D01*
X305100D01*
Y160600D02*Y157400D01*
X300300Y162200D02*X306700D01*
X300300D02*Y155800D01*
X306700D01*
Y162200D02*Y155800D01*
X13400Y221350D02*X16600D01*
X13400D02*Y218150D01*
X16600D01*
Y221350D02*Y218150D01*
X11800Y222950D02*X18200D01*
X11800D02*Y216550D01*
X18200D01*
Y222950D02*Y216550D01*
X135000Y222000D02*Y221250D01*
X136500Y219750D01*
X138000Y221250D01*
Y222000D02*Y221250D01*
X136500Y219750D02*Y216000D01*
X139800Y219000D02*X142050D01*
X139800Y216000D02*X142800D01*
X139800Y222000D02*Y216000D01*
Y222000D02*X142800D01*
X147600D02*X148350Y221250D01*
X145350Y222000D02*X147600D01*
X144600Y221250D02*X145350Y222000D01*
X144600Y221250D02*Y219750D01*
X145350Y219000D01*
X147600D01*
X148350Y218250D01*
Y216750D01*
X147600Y216000D02*X148350Y216750D01*
X145350Y216000D02*X147600D01*
X144600Y216750D02*X145350Y216000D01*
X98000Y221250D02*X98750Y222000D01*
X101000D01*
X101750Y221250D01*
Y219750D01*
X98000Y216000D02*X101750Y219750D01*
X98000Y216000D02*X101750D01*
X45000Y216750D02*X45750Y216000D01*
X45000Y221250D02*Y216750D01*
Y221250D02*X45750Y222000D01*
X47250D01*
X48000Y221250D01*
Y216750D01*
X47250Y216000D02*X48000Y216750D01*
X45750Y216000D02*X47250D01*
X45000Y217500D02*X48000Y220500D01*
X49800Y216000D02*X50550D01*
X52350Y216750D02*X53100Y216000D01*
X52350Y221250D02*Y216750D01*
Y221250D02*X53100Y222000D01*
X54600D01*
X55350Y221250D01*
Y216750D01*
X54600Y216000D02*X55350Y216750D01*
X53100Y216000D02*X54600D01*
X52350Y217500D02*X55350Y220500D01*
X57150Y216000D02*X60900Y219750D01*
Y222000D02*Y219750D01*
X57150Y222000D02*X60900D01*
X62700Y216000D02*X65700Y219000D01*
Y221250D02*Y219000D01*
X64950Y222000D02*X65700Y221250D01*
X63450Y222000D02*X64950D01*
X62700Y221250D02*X63450Y222000D01*
X62700Y221250D02*Y219750D01*
X63450Y219000D01*
X65700D01*
X34200Y129500D02*G75*G03X35800Y129500I800J0D01*G01*
G75*G03X34200Y129500I-800J0D01*G01*
X32600D02*G75*G03X37400Y129500I2400J0D01*G01*
G75*G03X32600Y129500I-2400J0D01*G01*
X15700D02*G75*G03X17300Y129500I800J0D01*G01*
G75*G03X15700Y129500I-800J0D01*G01*
X14100D02*G75*G03X18900Y129500I2400J0D01*G01*
G75*G03X14100Y129500I-2400J0D01*G01*
X52700D02*G75*G03X54300Y129500I800J0D01*G01*
G75*G03X52700Y129500I-800J0D01*G01*
X51100D02*G75*G03X55900Y129500I2400J0D01*G01*
G75*G03X51100Y129500I-2400J0D01*G01*
X15700Y114500D02*G75*G03X17300Y114500I800J0D01*G01*
G75*G03X15700Y114500I-800J0D01*G01*
X14100D02*G75*G03X18900Y114500I2400J0D01*G01*
G75*G03X14100Y114500I-2400J0D01*G01*
X34200D02*G75*G03X35800Y114500I800J0D01*G01*
G75*G03X34200Y114500I-800J0D01*G01*
X32600D02*G75*G03X37400Y114500I2400J0D01*G01*
G75*G03X32600Y114500I-2400J0D01*G01*
X52700D02*G75*G03X54300Y114500I800J0D01*G01*
G75*G03X52700Y114500I-800J0D01*G01*
X51100D02*G75*G03X55900Y114500I2400J0D01*G01*
G75*G03X51100Y114500I-2400J0D01*G01*
X14200Y234750D02*G75*G03X15800Y234750I800J0D01*G01*
G75*G03X14200Y234750I-800J0D01*G01*
X12600D02*G75*G03X17400Y234750I2400J0D01*G01*
G75*G03X12600Y234750I-2400J0D01*G01*
X135000Y237000D02*Y236250D01*
X136500Y234750D01*
X138000Y236250D01*
Y237000D02*Y236250D01*
X136500Y234750D02*Y231000D01*
X139800Y234000D02*X142050D01*
X139800Y231000D02*X142800D01*
X139800Y237000D02*Y231000D01*
Y237000D02*X142800D01*
X147600D02*X148350Y236250D01*
X145350Y237000D02*X147600D01*
X144600Y236250D02*X145350Y237000D01*
X144600Y236250D02*Y234750D01*
X145350Y234000D01*
X147600D01*
X148350Y233250D01*
Y231750D01*
X147600Y231000D02*X148350Y231750D01*
X145350Y231000D02*X147600D01*
X144600Y231750D02*X145350Y231000D01*
X100250Y237000D02*X101000Y236250D01*
X98750Y237000D02*X100250D01*
X98000Y236250D02*X98750Y237000D01*
X98000Y236250D02*Y231750D01*
X98750Y231000D01*
X100250Y234000D02*X101000Y233250D01*
X98000Y234000D02*X100250D01*
X98750Y231000D02*X100250D01*
X101000Y231750D01*
Y233250D02*Y231750D01*
X45000D02*X45750Y231000D01*
X45000Y236250D02*Y231750D01*
Y236250D02*X45750Y237000D01*
X47250D01*
X48000Y236250D01*
Y231750D01*
X47250Y231000D02*X48000Y231750D01*
X45750Y231000D02*X47250D01*
X45000Y232500D02*X48000Y235500D01*
X49800Y231000D02*X50550D01*
X52350Y231750D02*X53100Y231000D01*
X52350Y236250D02*Y231750D01*
Y236250D02*X53100Y237000D01*
X54600D01*
X55350Y236250D01*
Y231750D01*
X54600Y231000D02*X55350Y231750D01*
X53100Y231000D02*X54600D01*
X52350Y232500D02*X55350Y235500D01*
X57150Y231000D02*X60900Y234750D01*
Y237000D02*Y234750D01*
X57150Y237000D02*X60900D01*
X63450Y231000D02*X64950D01*
X64200Y237000D02*Y231000D01*
X62700Y235500D02*X64200Y237000D01*
X22600Y181900D02*X27400Y177100D01*
X22600D02*X27400Y181900D01*
X23400Y181100D02*X26600D01*
X23400D02*Y177900D01*
X26600D01*
Y181100D02*Y177900D01*
X42600Y181900D02*X47400Y177100D01*
X42600D02*X47400Y181900D01*
X43400Y181100D02*X46600D01*
X43400D02*Y177900D01*
X46600D01*
Y181100D02*Y177900D01*
X12600Y252150D02*X17400Y247350D01*
X12600D02*X17400Y252150D01*
X13400Y251350D02*X16600D01*
X13400D02*Y248150D01*
X16600D01*
Y251350D02*Y248150D01*
X135000Y252000D02*Y251250D01*
X136500Y249750D01*
X138000Y251250D01*
Y252000D02*Y251250D01*
X136500Y249750D02*Y246000D01*
X139800Y249000D02*X142050D01*
X139800Y246000D02*X142800D01*
X139800Y252000D02*Y246000D01*
Y252000D02*X142800D01*
X147600D02*X148350Y251250D01*
X145350Y252000D02*X147600D01*
X144600Y251250D02*X145350Y252000D01*
X144600Y251250D02*Y249750D01*
X145350Y249000D01*
X147600D01*
X148350Y248250D01*
Y246750D01*
X147600Y246000D02*X148350Y246750D01*
X145350Y246000D02*X147600D01*
X144600Y246750D02*X145350Y246000D01*
X98000Y251250D02*X98750Y252000D01*
X101000D01*
X101750Y251250D01*
Y249750D01*
X98000Y246000D02*X101750Y249750D01*
X98000Y246000D02*X101750D01*
X45000Y246750D02*X45750Y246000D01*
X45000Y251250D02*Y246750D01*
Y251250D02*X45750Y252000D01*
X47250D01*
X48000Y251250D01*
Y246750D01*
X47250Y246000D02*X48000Y246750D01*
X45750Y246000D02*X47250D01*
X45000Y247500D02*X48000Y250500D01*
X49800Y246000D02*X50550D01*
X52350Y246750D02*X53100Y246000D01*
X52350Y251250D02*Y246750D01*
Y251250D02*X53100Y252000D01*
X54600D01*
X55350Y251250D01*
Y246750D01*
X54600Y246000D02*X55350Y246750D01*
X53100Y246000D02*X54600D01*
X52350Y247500D02*X55350Y250500D01*
X59400Y252000D02*X60150Y251250D01*
X57900Y252000D02*X59400D01*
X57150Y251250D02*X57900Y252000D01*
X57150Y251250D02*Y246750D01*
X57900Y246000D01*
X59400Y249000D02*X60150Y248250D01*
X57150Y249000D02*X59400D01*
X57900Y246000D02*X59400D01*
X60150Y246750D01*
Y248250D02*Y246750D01*
X61950Y252000D02*X64950D01*
X61950D02*Y249000D01*
X62700Y249750D01*
X64200D01*
X64950Y249000D01*
Y246750D01*
X64200Y246000D02*X64950Y246750D01*
X62700Y246000D02*X64200D01*
X61950Y246750D02*X62700Y246000D01*
X304000Y95200D02*Y88800D01*
X300800Y92000D02*X307200D01*
X302400Y93600D02*X305600D01*
X302400D02*Y90400D01*
X305600D01*
Y93600D02*Y90400D01*
X294000Y95200D02*Y88800D01*
X290800Y92000D02*X297200D01*
X292400Y93600D02*X295600D01*
X292400D02*Y90400D01*
X295600D01*
Y93600D02*Y90400D01*
X284000Y95200D02*Y88800D01*
X280800Y92000D02*X287200D01*
X282400Y93600D02*X285600D01*
X282400D02*Y90400D01*
X285600D01*
Y93600D02*Y90400D01*
X274000Y95200D02*Y88800D01*
X270800Y92000D02*X277200D01*
X272400Y93600D02*X275600D01*
X272400D02*Y90400D01*
X275600D01*
Y93600D02*Y90400D01*
X264000Y95200D02*Y88800D01*
X260800Y92000D02*X267200D01*
X262400Y93600D02*X265600D01*
X262400D02*Y90400D01*
X265600D01*
Y93600D02*Y90400D01*
X15000Y267950D02*Y261550D01*
X11800Y264750D02*X18200D01*
X13400Y266350D02*X16600D01*
X13400D02*Y263150D01*
X16600D01*
Y266350D02*Y263150D01*
X135000Y267000D02*Y266250D01*
X136500Y264750D01*
X138000Y266250D01*
Y267000D02*Y266250D01*
X136500Y264750D02*Y261000D01*
X139800Y264000D02*X142050D01*
X139800Y261000D02*X142800D01*
X139800Y267000D02*Y261000D01*
Y267000D02*X142800D01*
X147600D02*X148350Y266250D01*
X145350Y267000D02*X147600D01*
X144600Y266250D02*X145350Y267000D01*
X144600Y266250D02*Y264750D01*
X145350Y264000D01*
X147600D01*
X148350Y263250D01*
Y261750D01*
X147600Y261000D02*X148350Y261750D01*
X145350Y261000D02*X147600D01*
X144600Y261750D02*X145350Y261000D01*
X98000Y267000D02*X101000D01*
X98000D02*Y264000D01*
X98750Y264750D01*
X100250D01*
X101000Y264000D01*
Y261750D01*
X100250Y261000D02*X101000Y261750D01*
X98750Y261000D02*X100250D01*
X98000Y261750D02*X98750Y261000D01*
X45000Y261750D02*X45750Y261000D01*
X45000Y266250D02*Y261750D01*
Y266250D02*X45750Y267000D01*
X47250D01*
X48000Y266250D01*
Y261750D01*
X47250Y261000D02*X48000Y261750D01*
X45750Y261000D02*X47250D01*
X45000Y262500D02*X48000Y265500D01*
X49800Y261000D02*X50550D01*
X52350Y261750D02*X53100Y261000D01*
X52350Y266250D02*Y261750D01*
Y266250D02*X53100Y267000D01*
X54600D01*
X55350Y266250D01*
Y261750D01*
X54600Y261000D02*X55350Y261750D01*
X53100Y261000D02*X54600D01*
X52350Y262500D02*X55350Y265500D01*
X57150Y264000D02*X60150Y267000D01*
X57150Y264000D02*X60900D01*
X60150Y267000D02*Y261000D01*
X62700Y266250D02*X63450Y267000D01*
X65700D01*
X66450Y266250D01*
Y264750D01*
X62700Y261000D02*X66450Y264750D01*
X62700Y261000D02*X66450D01*
X206000Y84000D02*Y80800D01*
Y84000D02*X208773Y85600D01*
X206000Y84000D02*X203227Y85600D01*
X204400Y84000D02*G75*G03X207600Y84000I1600J0D01*G01*
G75*G03X204400Y84000I-1600J0D01*G01*
X206000Y74000D02*Y70800D01*
Y74000D02*X208773Y75600D01*
X206000Y74000D02*X203227Y75600D01*
X204400Y74000D02*G75*G03X207600Y74000I1600J0D01*G01*
G75*G03X204400Y74000I-1600J0D01*G01*
X206000Y64000D02*Y60800D01*
Y64000D02*X208773Y65600D01*
X206000Y64000D02*X203227Y65600D01*
X204400Y64000D02*G75*G03X207600Y64000I1600J0D01*G01*
G75*G03X204400Y64000I-1600J0D01*G01*
X206000Y54000D02*Y50800D01*
Y54000D02*X208773Y55600D01*
X206000Y54000D02*X203227Y55600D01*
X204400Y54000D02*G75*G03X207600Y54000I1600J0D01*G01*
G75*G03X204400Y54000I-1600J0D01*G01*
X206000Y44000D02*Y40800D01*
Y44000D02*X208773Y45600D01*
X206000Y44000D02*X203227Y45600D01*
X204400Y44000D02*G75*G03X207600Y44000I1600J0D01*G01*
G75*G03X204400Y44000I-1600J0D01*G01*
X15000Y279750D02*Y276550D01*
Y279750D02*X17773Y281350D01*
X15000Y279750D02*X12227Y281350D01*
X13400Y279750D02*G75*G03X16600Y279750I1600J0D01*G01*
G75*G03X13400Y279750I-1600J0D01*G01*
X135000Y282000D02*Y281250D01*
X136500Y279750D01*
X138000Y281250D01*
Y282000D02*Y281250D01*
X136500Y279750D02*Y276000D01*
X139800Y279000D02*X142050D01*
X139800Y276000D02*X142800D01*
X139800Y282000D02*Y276000D01*
Y282000D02*X142800D01*
X147600D02*X148350Y281250D01*
X145350Y282000D02*X147600D01*
X144600Y281250D02*X145350Y282000D01*
X144600Y281250D02*Y279750D01*
X145350Y279000D01*
X147600D01*
X148350Y278250D01*
Y276750D01*
X147600Y276000D02*X148350Y276750D01*
X145350Y276000D02*X147600D01*
X144600Y276750D02*X145350Y276000D01*
X98000Y282000D02*X101000D01*
X98000D02*Y279000D01*
X98750Y279750D01*
X100250D01*
X101000Y279000D01*
Y276750D01*
X100250Y276000D02*X101000Y276750D01*
X98750Y276000D02*X100250D01*
X98000Y276750D02*X98750Y276000D01*
X45000Y276750D02*X45750Y276000D01*
X45000Y281250D02*Y276750D01*
Y281250D02*X45750Y282000D01*
X47250D01*
X48000Y281250D01*
Y276750D01*
X47250Y276000D02*X48000Y276750D01*
X45750Y276000D02*X47250D01*
X45000Y277500D02*X48000Y280500D01*
X49800Y276000D02*X50550D01*
X52350Y276750D02*X53100Y276000D01*
X52350Y281250D02*Y276750D01*
Y281250D02*X53100Y282000D01*
X54600D01*
X55350Y281250D01*
Y276750D01*
X54600Y276000D02*X55350Y276750D01*
X53100Y276000D02*X54600D01*
X52350Y277500D02*X55350Y280500D01*
X57150Y279000D02*X60150Y282000D01*
X57150Y279000D02*X60900D01*
X60150Y282000D02*Y276000D01*
X62700Y276750D02*X63450Y276000D01*
X62700Y281250D02*Y276750D01*
Y281250D02*X63450Y282000D01*
X64950D01*
X65700Y281250D01*
Y276750D01*
X64950Y276000D02*X65700Y276750D01*
X63450Y276000D02*X64950D01*
X62700Y277500D02*X65700Y280500D01*
X105014Y144380D02*X108214D01*
X105014D02*Y141180D01*
X108214D01*
Y144380D02*Y141180D01*
X113282Y154222D02*X116482D01*
X113282D02*Y151022D01*
X116482D01*
Y154222D02*Y151022D01*
X105014Y154222D02*X108214D01*
X105014D02*Y151022D01*
X108214D01*
Y154222D02*Y151022D01*
X131786Y154222D02*X134986D01*
X131786D02*Y151022D01*
X134986D01*
Y154222D02*Y151022D01*
X131786Y144380D02*X134986D01*
X131786D02*Y141180D01*
X134986D01*
Y144380D02*Y141180D01*
X13400Y296350D02*X16600D01*
X13400D02*Y293150D01*
X16600D01*
Y296350D02*Y293150D01*
X135000Y297000D02*Y296250D01*
X136500Y294750D01*
X138000Y296250D01*
Y297000D02*Y296250D01*
X136500Y294750D02*Y291000D01*
X139800Y294000D02*X142050D01*
X139800Y291000D02*X142800D01*
X139800Y297000D02*Y291000D01*
Y297000D02*X142800D01*
X147600D02*X148350Y296250D01*
X145350Y297000D02*X147600D01*
X144600Y296250D02*X145350Y297000D01*
X144600Y296250D02*Y294750D01*
X145350Y294000D01*
X147600D01*
X148350Y293250D01*
Y291750D01*
X147600Y291000D02*X148350Y291750D01*
X145350Y291000D02*X147600D01*
X144600Y291750D02*X145350Y291000D01*
X98000Y297000D02*X101000D01*
X98000D02*Y294000D01*
X98750Y294750D01*
X100250D01*
X101000Y294000D01*
Y291750D01*
X100250Y291000D02*X101000Y291750D01*
X98750Y291000D02*X100250D01*
X98000Y291750D02*X98750Y291000D01*
X45000Y291750D02*X45750Y291000D01*
X45000Y296250D02*Y291750D01*
Y296250D02*X45750Y297000D01*
X47250D01*
X48000Y296250D01*
Y291750D01*
X47250Y291000D02*X48000Y291750D01*
X45750Y291000D02*X47250D01*
X45000Y292500D02*X48000Y295500D01*
X49800Y291000D02*X50550D01*
X52350Y291750D02*X53100Y291000D01*
X52350Y296250D02*Y291750D01*
Y296250D02*X53100Y297000D01*
X54600D01*
X55350Y296250D01*
Y291750D01*
X54600Y291000D02*X55350Y291750D01*
X53100Y291000D02*X54600D01*
X52350Y292500D02*X55350Y295500D01*
X57150Y296250D02*X57900Y297000D01*
X59400D01*
X60150Y296250D01*
Y291750D01*
X59400Y291000D02*X60150Y291750D01*
X57900Y291000D02*X59400D01*
X57150Y291750D02*X57900Y291000D01*
Y294000D02*X60150D01*
X64200Y297000D02*X64950Y296250D01*
X62700Y297000D02*X64200D01*
X61950Y296250D02*X62700Y297000D01*
X61950Y296250D02*Y291750D01*
X62700Y291000D01*
X64200Y294000D02*X64950Y293250D01*
X61950Y294000D02*X64200D01*
X62700Y291000D02*X64200D01*
X64950Y291750D01*
Y293250D02*Y291750D01*
X88700Y103500D02*G75*G03X90300Y103500I800J0D01*G01*
G75*G03X88700Y103500I-800J0D01*G01*
X27200Y85000D02*G75*G03X28800Y85000I800J0D01*G01*
G75*G03X27200Y85000I-800J0D01*G01*
X113700Y89000D02*G75*G03X115300Y89000I800J0D01*G01*
G75*G03X113700Y89000I-800J0D01*G01*
X84700Y72500D02*G75*G03X86300Y72500I800J0D01*G01*
G75*G03X84700Y72500I-800J0D01*G01*
X97200Y84500D02*G75*G03X98800Y84500I800J0D01*G01*
G75*G03X97200Y84500I-800J0D01*G01*
Y73500D02*G75*G03X98800Y73500I800J0D01*G01*
G75*G03X97200Y73500I-800J0D01*G01*
X228200Y65500D02*G75*G03X229800Y65500I800J0D01*G01*
G75*G03X228200Y65500I-800J0D01*G01*
X236700Y73000D02*G75*G03X238300Y73000I800J0D01*G01*
G75*G03X236700Y73000I-800J0D01*G01*
X157200Y60500D02*G75*G03X158800Y60500I800J0D01*G01*
G75*G03X157200Y60500I-800J0D01*G01*
X97200D02*G75*G03X98800Y60500I800J0D01*G01*
G75*G03X97200Y60500I-800J0D01*G01*
X181605Y95905D02*G75*G03X183205Y95905I800J0D01*G01*
G75*G03X181605Y95905I-800J0D01*G01*
X176200Y134000D02*G75*G03X177800Y134000I800J0D01*G01*
G75*G03X176200Y134000I-800J0D01*G01*
X194200Y132000D02*G75*G03X195800Y132000I800J0D01*G01*
G75*G03X194200Y132000I-800J0D01*G01*
X165605Y127500D02*G75*G03X167205Y127500I800J0D01*G01*
G75*G03X165605Y127500I-800J0D01*G01*
X14200Y309750D02*G75*G03X15800Y309750I800J0D01*G01*
G75*G03X14200Y309750I-800J0D01*G01*
X135000Y312000D02*Y311250D01*
X136500Y309750D01*
X138000Y311250D01*
Y312000D02*Y311250D01*
X136500Y309750D02*Y306000D01*
X139800Y309000D02*X142050D01*
X139800Y306000D02*X142800D01*
X139800Y312000D02*Y306000D01*
Y312000D02*X142800D01*
X147600D02*X148350Y311250D01*
X145350Y312000D02*X147600D01*
X144600Y311250D02*X145350Y312000D01*
X144600Y311250D02*Y309750D01*
X145350Y309000D01*
X147600D01*
X148350Y308250D01*
Y306750D01*
X147600Y306000D02*X148350Y306750D01*
X145350Y306000D02*X147600D01*
X144600Y306750D02*X145350Y306000D01*
X98750D02*X100250D01*
X99500Y312000D02*Y306000D01*
X98000Y310500D02*X99500Y312000D01*
X102050Y309000D02*X105050Y312000D01*
X102050Y309000D02*X105800D01*
X105050Y312000D02*Y306000D01*
X45000Y306750D02*X45750Y306000D01*
X45000Y311250D02*Y306750D01*
Y311250D02*X45750Y312000D01*
X47250D01*
X48000Y311250D01*
Y306750D01*
X47250Y306000D02*X48000Y306750D01*
X45750Y306000D02*X47250D01*
X45000Y307500D02*X48000Y310500D01*
X49800Y306000D02*X50550D01*
X52350Y306750D02*X53100Y306000D01*
X52350Y311250D02*Y306750D01*
Y311250D02*X53100Y312000D01*
X54600D01*
X55350Y311250D01*
Y306750D01*
X54600Y306000D02*X55350Y306750D01*
X53100Y306000D02*X54600D01*
X52350Y307500D02*X55350Y310500D01*
X57150Y311250D02*X57900Y312000D01*
X59400D01*
X60150Y311250D01*
Y306750D01*
X59400Y306000D02*X60150Y306750D01*
X57900Y306000D02*X59400D01*
X57150Y306750D02*X57900Y306000D01*
Y309000D02*X60150D01*
X61950Y312000D02*X64950D01*
X61950D02*Y309000D01*
X62700Y309750D01*
X64200D01*
X64950Y309000D01*
Y306750D01*
X64200Y306000D02*X64950Y306750D01*
X62700Y306000D02*X64200D01*
X61950Y306750D02*X62700Y306000D01*
X272300Y140200D02*X274700Y137800D01*
X272300D02*X274700Y140200D01*
X282300D02*X284700Y137800D01*
X282300D02*X284700Y140200D01*
X13800Y325950D02*X16200Y323550D01*
X13800D02*X16200Y325950D01*
X135000Y327000D02*Y326250D01*
X136500Y324750D01*
X138000Y326250D01*
Y327000D02*Y326250D01*
X136500Y324750D02*Y321000D01*
X139800Y324000D02*X142050D01*
X139800Y321000D02*X142800D01*
X139800Y327000D02*Y321000D01*
Y327000D02*X142800D01*
X147600D02*X148350Y326250D01*
X145350Y327000D02*X147600D01*
X144600Y326250D02*X145350Y327000D01*
X144600Y326250D02*Y324750D01*
X145350Y324000D01*
X147600D01*
X148350Y323250D01*
Y321750D01*
X147600Y321000D02*X148350Y321750D01*
X145350Y321000D02*X147600D01*
X144600Y321750D02*X145350Y321000D01*
X98000Y326250D02*X98750Y327000D01*
X101000D01*
X101750Y326250D01*
Y324750D01*
X98000Y321000D02*X101750Y324750D01*
X98000Y321000D02*X101750D01*
X45000Y321750D02*X45750Y321000D01*
X45000Y326250D02*Y321750D01*
Y326250D02*X45750Y327000D01*
X47250D01*
X48000Y326250D01*
Y321750D01*
X47250Y321000D02*X48000Y321750D01*
X45750Y321000D02*X47250D01*
X45000Y322500D02*X48000Y325500D01*
X49800Y321000D02*X50550D01*
X52350Y321750D02*X53100Y321000D01*
X52350Y326250D02*Y321750D01*
Y326250D02*X53100Y327000D01*
X54600D01*
X55350Y326250D01*
Y321750D01*
X54600Y321000D02*X55350Y321750D01*
X53100Y321000D02*X54600D01*
X52350Y322500D02*X55350Y325500D01*
X57150Y326250D02*X57900Y327000D01*
X59400D01*
X60150Y326250D01*
Y321750D01*
X59400Y321000D02*X60150Y321750D01*
X57900Y321000D02*X59400D01*
X57150Y321750D02*X57900Y321000D01*
Y324000D02*X60150D01*
X61950Y326250D02*X62700Y327000D01*
X64950D01*
X65700Y326250D01*
Y324750D01*
X61950Y321000D02*X65700Y324750D01*
X61950Y321000D02*X65700D01*
X104500Y111100D02*Y107900D01*
X102900Y109500D02*X106100D01*
X144500Y111100D02*Y107900D01*
X142900Y109500D02*X146100D01*
X196000Y102600D02*Y99400D01*
X194400Y101000D02*X197600D01*
X236000Y102600D02*Y99400D01*
X234400Y101000D02*X237600D01*
X231000Y85600D02*Y82400D01*
X229400Y84000D02*X232600D01*
X231000Y45600D02*Y42400D01*
X229400Y44000D02*X232600D01*
X248000Y105600D02*Y102400D01*
X246400Y104000D02*X249600D01*
X248000Y65600D02*Y62400D01*
X246400Y64000D02*X249600D01*
X236000Y114100D02*Y110900D01*
X234400Y112500D02*X237600D01*
X276000Y114100D02*Y110900D01*
X274400Y112500D02*X277600D01*
X244000Y166195D02*Y162995D01*
X242400Y164595D02*X245600D01*
X244000Y126195D02*Y122995D01*
X242400Y124595D02*X245600D01*
X200500Y123600D02*Y120400D01*
X198900Y122000D02*X202100D01*
X210500Y123600D02*Y120400D01*
X208900Y122000D02*X212100D01*
X15000Y341350D02*Y338150D01*
X13400Y339750D02*X16600D01*
X135000Y342000D02*Y341250D01*
X136500Y339750D01*
X138000Y341250D01*
Y342000D02*Y341250D01*
X136500Y339750D02*Y336000D01*
X139800Y339000D02*X142050D01*
X139800Y336000D02*X142800D01*
X139800Y342000D02*Y336000D01*
Y342000D02*X142800D01*
X147600D02*X148350Y341250D01*
X145350Y342000D02*X147600D01*
X144600Y341250D02*X145350Y342000D01*
X144600Y341250D02*Y339750D01*
X145350Y339000D01*
X147600D01*
X148350Y338250D01*
Y336750D01*
X147600Y336000D02*X148350Y336750D01*
X145350Y336000D02*X147600D01*
X144600Y336750D02*X145350Y336000D01*
X98750D02*X100250D01*
X99500Y342000D02*Y336000D01*
X98000Y340500D02*X99500Y342000D01*
X102050Y339000D02*X105050Y342000D01*
X102050Y339000D02*X105800D01*
X105050Y342000D02*Y336000D01*
X45000Y336750D02*X45750Y336000D01*
X45000Y341250D02*Y336750D01*
Y341250D02*X45750Y342000D01*
X47250D01*
X48000Y341250D01*
Y336750D01*
X47250Y336000D02*X48000Y336750D01*
X45750Y336000D02*X47250D01*
X45000Y337500D02*X48000Y340500D01*
X49800Y336000D02*X50550D01*
X52350Y336750D02*X53100Y336000D01*
X52350Y341250D02*Y336750D01*
Y341250D02*X53100Y342000D01*
X54600D01*
X55350Y341250D01*
Y336750D01*
X54600Y336000D02*X55350Y336750D01*
X53100Y336000D02*X54600D01*
X52350Y337500D02*X55350Y340500D01*
X57150Y341250D02*X57900Y342000D01*
X59400D01*
X60150Y341250D01*
Y336750D01*
X59400Y336000D02*X60150Y336750D01*
X57900Y336000D02*X59400D01*
X57150Y336750D02*X57900Y336000D01*
Y339000D02*X60150D01*
X61950Y336750D02*X62700Y336000D01*
X61950Y341250D02*Y336750D01*
Y341250D02*X62700Y342000D01*
X64200D01*
X64950Y341250D01*
Y336750D01*
X64200Y336000D02*X64950Y336750D01*
X62700Y336000D02*X64200D01*
X61950Y337500D02*X64950Y340500D01*
X74500Y94500D02*Y92900D01*
Y94500D02*X75887Y95300D01*
X74500Y94500D02*X73113Y95300D01*
X161500Y156000D02*Y154400D01*
Y156000D02*X162887Y156800D01*
X161500Y156000D02*X160113Y156800D01*
X15000Y354750D02*Y353150D01*
Y354750D02*X16387Y355550D01*
X15000Y354750D02*X13613Y355550D01*
X135000Y357000D02*Y356250D01*
X136500Y354750D01*
X138000Y356250D01*
Y357000D02*Y356250D01*
X136500Y354750D02*Y351000D01*
X139800Y354000D02*X142050D01*
X139800Y351000D02*X142800D01*
X139800Y357000D02*Y351000D01*
Y357000D02*X142800D01*
X147600D02*X148350Y356250D01*
X145350Y357000D02*X147600D01*
X144600Y356250D02*X145350Y357000D01*
X144600Y356250D02*Y354750D01*
X145350Y354000D01*
X147600D01*
X148350Y353250D01*
Y351750D01*
X147600Y351000D02*X148350Y351750D01*
X145350Y351000D02*X147600D01*
X144600Y351750D02*X145350Y351000D01*
X98000Y356250D02*X98750Y357000D01*
X101000D01*
X101750Y356250D01*
Y354750D01*
X98000Y351000D02*X101750Y354750D01*
X98000Y351000D02*X101750D01*
X45000Y351750D02*X45750Y351000D01*
X45000Y356250D02*Y351750D01*
Y356250D02*X45750Y357000D01*
X47250D01*
X48000Y356250D01*
Y351750D01*
X47250Y351000D02*X48000Y351750D01*
X45750Y351000D02*X47250D01*
X45000Y352500D02*X48000Y355500D01*
X49800Y351000D02*X50550D01*
X52350Y351750D02*X53100Y351000D01*
X52350Y356250D02*Y351750D01*
Y356250D02*X53100Y357000D01*
X54600D01*
X55350Y356250D01*
Y351750D01*
X54600Y351000D02*X55350Y351750D01*
X53100Y351000D02*X54600D01*
X52350Y352500D02*X55350Y355500D01*
X57150Y356250D02*X57900Y357000D01*
X60150D01*
X60900Y356250D01*
Y354750D01*
X57150Y351000D02*X60900Y354750D01*
X57150Y351000D02*X60900D01*
X62700Y351750D02*X63450Y351000D01*
X62700Y356250D02*Y351750D01*
Y356250D02*X63450Y357000D01*
X64950D01*
X65700Y356250D01*
Y351750D01*
X64950Y351000D02*X65700Y351750D01*
X63450Y351000D02*X64950D01*
X62700Y352500D02*X65700Y355500D01*
X3000Y372000D02*X3750Y371250D01*
X750Y372000D02*X3000D01*
X0Y371250D02*X750Y372000D01*
X0Y371250D02*Y369750D01*
X750Y369000D01*
X3000D01*
X3750Y368250D01*
Y366750D01*
X3000Y366000D02*X3750Y366750D01*
X750Y366000D02*X3000D01*
X0Y366750D02*X750Y366000D01*
X5550Y369000D02*Y366750D01*
X6300Y366000D01*
X8550Y369000D02*Y364500D01*
X7800Y363750D02*X8550Y364500D01*
X6300Y363750D02*X7800D01*
X5550Y364500D02*X6300Y363750D01*
Y366000D02*X7800D01*
X8550Y366750D01*
X11100Y368250D02*Y366000D01*
Y368250D02*X11850Y369000D01*
X12600D01*
X13350Y368250D01*
Y366000D01*
Y368250D02*X14100Y369000D01*
X14850D01*
X15600Y368250D01*
Y366000D01*
X10350Y369000D02*X11100Y368250D01*
X17400Y372000D02*Y366000D01*
Y366750D02*X18150Y366000D01*
X19650D01*
X20400Y366750D01*
Y368250D02*Y366750D01*
X19650Y369000D02*X20400Y368250D01*
X18150Y369000D02*X19650D01*
X17400Y368250D02*X18150Y369000D01*
X22200Y368250D02*Y366750D01*
Y368250D02*X22950Y369000D01*
X24450D01*
X25200Y368250D01*
Y366750D01*
X24450Y366000D02*X25200Y366750D01*
X22950Y366000D02*X24450D01*
X22200Y366750D02*X22950Y366000D01*
X27000Y372000D02*Y366750D01*
X27750Y366000D01*
X0Y362750D02*X29250D01*
X41750Y372000D02*Y366000D01*
X44000Y372000D02*X44750Y371250D01*
Y366750D01*
X44000Y366000D02*X44750Y366750D01*
X41000Y366000D02*X44000D01*
X41000Y372000D02*X44000D01*
X46550Y370500D02*Y369750D01*
Y368250D02*Y366000D01*
X50300Y369000D02*X51050Y368250D01*
X48800Y369000D02*X50300D01*
X48050Y368250D02*X48800Y369000D01*
X48050Y368250D02*Y366750D01*
X48800Y366000D01*
X51050Y369000D02*Y366750D01*
X51800Y366000D01*
X48800D02*X50300D01*
X51050Y366750D01*
X54350Y368250D02*Y366000D01*
Y368250D02*X55100Y369000D01*
X55850D01*
X56600Y368250D01*
Y366000D01*
Y368250D02*X57350Y369000D01*
X58100D01*
X58850Y368250D01*
Y366000D01*
X53600Y369000D02*X54350Y368250D01*
X60650Y366000D02*X61400D01*
X65900Y366750D02*X66650Y366000D01*
X65900Y371250D02*X66650Y372000D01*
X65900Y371250D02*Y366750D01*
X68450Y372000D02*X69950D01*
X69200D02*Y366000D01*
X68450D02*X69950D01*
X72500Y368250D02*Y366000D01*
Y368250D02*X73250Y369000D01*
X74000D01*
X74750Y368250D01*
Y366000D01*
X71750Y369000D02*X72500Y368250D01*
X77300Y369000D02*X79550D01*
X76550Y368250D02*X77300Y369000D01*
X76550Y368250D02*Y366750D01*
X77300Y366000D01*
X79550D01*
X81350Y372000D02*Y366000D01*
Y368250D02*X82100Y369000D01*
X83600D01*
X84350Y368250D01*
Y366000D01*
X86150Y372000D02*X86900Y371250D01*
Y366750D01*
X86150Y366000D02*X86900Y366750D01*
X41000Y362750D02*X88700D01*
X95750Y366000D02*X98000D01*
X95000Y366750D02*X95750Y366000D01*
X95000Y371250D02*Y366750D01*
Y371250D02*X95750Y372000D01*
X98000D01*
X99800Y368250D02*Y366750D01*
Y368250D02*X100550Y369000D01*
X102050D01*
X102800Y368250D01*
Y366750D01*
X102050Y366000D02*X102800Y366750D01*
X100550Y366000D02*X102050D01*
X99800Y366750D02*X100550Y366000D01*
X104600Y369000D02*Y366750D01*
X105350Y366000D01*
X106850D01*
X107600Y366750D01*
Y369000D02*Y366750D01*
X110150Y368250D02*Y366000D01*
Y368250D02*X110900Y369000D01*
X111650D01*
X112400Y368250D01*
Y366000D01*
X109400Y369000D02*X110150Y368250D01*
X114950Y372000D02*Y366750D01*
X115700Y366000D01*
X114200Y369750D02*X115700D01*
X95000Y362750D02*X117200D01*
X130750Y372000D02*Y366000D01*
X130000Y372000D02*X133000D01*
X133750Y371250D01*
Y369750D01*
X133000Y369000D02*X133750Y369750D01*
X130750Y369000D02*X133000D01*
X135550Y372000D02*Y366750D01*
X136300Y366000D01*
X140050Y369000D02*X140800Y368250D01*
X138550Y369000D02*X140050D01*
X137800Y368250D02*X138550Y369000D01*
X137800Y368250D02*Y366750D01*
X138550Y366000D01*
X140800Y369000D02*Y366750D01*
X141550Y366000D01*
X138550D02*X140050D01*
X140800Y366750D01*
X144100Y372000D02*Y366750D01*
X144850Y366000D01*
X143350Y369750D02*X144850D01*
X147100Y366000D02*X149350D01*
X146350Y366750D02*X147100Y366000D01*
X146350Y368250D02*Y366750D01*
Y368250D02*X147100Y369000D01*
X148600D01*
X149350Y368250D01*
X146350Y367500D02*X149350D01*
Y368250D02*Y367500D01*
X154150Y372000D02*Y366000D01*
X153400D02*X154150Y366750D01*
X151900Y366000D02*X153400D01*
X151150Y366750D02*X151900Y366000D01*
X151150Y368250D02*Y366750D01*
Y368250D02*X151900Y369000D01*
X153400D01*
X154150Y368250D01*
X157450Y369000D02*Y368250D01*
Y366750D02*Y366000D01*
X155950Y371250D02*Y370500D01*
Y371250D02*X156700Y372000D01*
X158200D01*
X158950Y371250D01*
Y370500D01*
X157450Y369000D02*X158950Y370500D01*
X130000Y362750D02*X160750D01*
X0Y387000D02*X3000D01*
X1500D02*Y381000D01*
X4800Y387000D02*Y381000D01*
Y383250D02*X5550Y384000D01*
X7050D01*
X7800Y383250D01*
Y381000D01*
X10350D02*X12600D01*
X9600Y381750D02*X10350Y381000D01*
X9600Y383250D02*Y381750D01*
Y383250D02*X10350Y384000D01*
X11850D01*
X12600Y383250D01*
X9600Y382500D02*X12600D01*
Y383250D02*Y382500D01*
X15150Y383250D02*Y381000D01*
Y383250D02*X15900Y384000D01*
X17400D01*
X14400D02*X15150Y383250D01*
X19950Y381000D02*X22200D01*
X19200Y381750D02*X19950Y381000D01*
X19200Y383250D02*Y381750D01*
Y383250D02*X19950Y384000D01*
X21450D01*
X22200Y383250D01*
X19200Y382500D02*X22200D01*
Y383250D02*Y382500D01*
X28950Y384000D02*X29700Y383250D01*
X27450Y384000D02*X28950D01*
X26700Y383250D02*X27450Y384000D01*
X26700Y383250D02*Y381750D01*
X27450Y381000D01*
X29700Y384000D02*Y381750D01*
X30450Y381000D01*
X27450D02*X28950D01*
X29700Y381750D01*
X33000Y383250D02*Y381000D01*
Y383250D02*X33750Y384000D01*
X35250D01*
X32250D02*X33000Y383250D01*
X37800Y381000D02*X40050D01*
X37050Y381750D02*X37800Y381000D01*
X37050Y383250D02*Y381750D01*
Y383250D02*X37800Y384000D01*
X39300D01*
X40050Y383250D01*
X37050Y382500D02*X40050D01*
Y383250D02*Y382500D01*
X45300Y381000D02*X46800D01*
X46050Y387000D02*Y381000D01*
X44550Y385500D02*X46050Y387000D01*
X49350Y381000D02*X50850D01*
X50100Y387000D02*Y381000D01*
X48600Y385500D02*X50100Y387000D01*
X58350D02*Y381000D01*
X57600D02*X58350Y381750D01*
X56100Y381000D02*X57600D01*
X55350Y381750D02*X56100Y381000D01*
X55350Y383250D02*Y381750D01*
Y383250D02*X56100Y384000D01*
X57600D01*
X58350Y383250D01*
X60150Y385500D02*Y384750D01*
Y383250D02*Y381000D01*
X62400Y386250D02*Y381000D01*
Y386250D02*X63150Y387000D01*
X63900D01*
X61650Y384000D02*X63150D01*
X66150Y386250D02*Y381000D01*
Y386250D02*X66900Y387000D01*
X67650D01*
X65400Y384000D02*X66900D01*
X69900Y381000D02*X72150D01*
X69150Y381750D02*X69900Y381000D01*
X69150Y383250D02*Y381750D01*
Y383250D02*X69900Y384000D01*
X71400D01*
X72150Y383250D01*
X69150Y382500D02*X72150D01*
Y383250D02*Y382500D01*
X74700Y383250D02*Y381000D01*
Y383250D02*X75450Y384000D01*
X76950D01*
X73950D02*X74700Y383250D01*
X79500Y381000D02*X81750D01*
X78750Y381750D02*X79500Y381000D01*
X78750Y383250D02*Y381750D01*
Y383250D02*X79500Y384000D01*
X81000D01*
X81750Y383250D01*
X78750Y382500D02*X81750D01*
Y383250D02*Y382500D01*
X84300Y383250D02*Y381000D01*
Y383250D02*X85050Y384000D01*
X85800D01*
X86550Y383250D01*
Y381000D01*
X83550Y384000D02*X84300Y383250D01*
X89100Y387000D02*Y381750D01*
X89850Y381000D01*
X88350Y384750D02*X89850D01*
X97050Y387000D02*Y381000D01*
X96300D02*X97050Y381750D01*
X94800Y381000D02*X96300D01*
X94050Y381750D02*X94800Y381000D01*
X94050Y383250D02*Y381750D01*
Y383250D02*X94800Y384000D01*
X96300D01*
X97050Y383250D01*
X99600D02*Y381000D01*
Y383250D02*X100350Y384000D01*
X101850D01*
X98850D02*X99600Y383250D01*
X103650Y385500D02*Y384750D01*
Y383250D02*Y381000D01*
X105150Y387000D02*Y381750D01*
X105900Y381000D01*
X107400Y387000D02*Y381750D01*
X108150Y381000D01*
X113100D02*X115350D01*
X116100Y381750D01*
X115350Y382500D02*X116100Y381750D01*
X113100Y382500D02*X115350D01*
X112350Y383250D02*X113100Y382500D01*
X112350Y383250D02*X113100Y384000D01*
X115350D01*
X116100Y383250D01*
X112350Y381750D02*X113100Y381000D01*
X117900Y385500D02*Y384750D01*
Y383250D02*Y381000D01*
X119400Y384000D02*X122400D01*
X119400Y381000D02*X122400Y384000D01*
X119400Y381000D02*X122400D01*
X124950D02*X127200D01*
X124200Y381750D02*X124950Y381000D01*
X124200Y383250D02*Y381750D01*
Y383250D02*X124950Y384000D01*
X126450D01*
X127200Y383250D01*
X124200Y382500D02*X127200D01*
Y383250D02*Y382500D01*
X129750Y381000D02*X132000D01*
X132750Y381750D01*
X132000Y382500D02*X132750Y381750D01*
X129750Y382500D02*X132000D01*
X129000Y383250D02*X129750Y382500D01*
X129000Y383250D02*X129750Y384000D01*
X132000D01*
X132750Y383250D01*
X129000Y381750D02*X129750Y381000D01*
X137250Y384000D02*Y381750D01*
X138000Y381000D01*
X139500D01*
X140250Y381750D01*
Y384000D02*Y381750D01*
X142800Y381000D02*X145050D01*
X145800Y381750D01*
X145050Y382500D02*X145800Y381750D01*
X142800Y382500D02*X145050D01*
X142050Y383250D02*X142800Y382500D01*
X142050Y383250D02*X142800Y384000D01*
X145050D01*
X145800Y383250D01*
X142050Y381750D02*X142800Y381000D01*
X148350D02*X150600D01*
X147600Y381750D02*X148350Y381000D01*
X147600Y383250D02*Y381750D01*
Y383250D02*X148350Y384000D01*
X149850D01*
X150600Y383250D01*
X147600Y382500D02*X150600D01*
Y383250D02*Y382500D01*
X155400Y387000D02*Y381000D01*
X154650D02*X155400Y381750D01*
X153150Y381000D02*X154650D01*
X152400Y381750D02*X153150Y381000D01*
X152400Y383250D02*Y381750D01*
Y383250D02*X153150Y384000D01*
X154650D01*
X155400Y383250D01*
X159900Y385500D02*Y384750D01*
Y383250D02*Y381000D01*
X162150Y383250D02*Y381000D01*
Y383250D02*X162900Y384000D01*
X163650D01*
X164400Y383250D01*
Y381000D01*
X161400Y384000D02*X162150Y383250D01*
X169650Y387000D02*Y381750D01*
X170400Y381000D01*
X168900Y384750D02*X170400D01*
X171900Y387000D02*Y381000D01*
Y383250D02*X172650Y384000D01*
X174150D01*
X174900Y383250D01*
Y381000D01*
X176700Y385500D02*Y384750D01*
Y383250D02*Y381000D01*
X178950D02*X181200D01*
X181950Y381750D01*
X181200Y382500D02*X181950Y381750D01*
X178950Y382500D02*X181200D01*
X178200Y383250D02*X178950Y382500D01*
X178200Y383250D02*X178950Y384000D01*
X181200D01*
X181950Y383250D01*
X178200Y381750D02*X178950Y381000D01*
X186450Y387000D02*Y381750D01*
X187200Y381000D01*
X190950Y384000D02*X191700Y383250D01*
X189450Y384000D02*X190950D01*
X188700Y383250D02*X189450Y384000D01*
X188700Y383250D02*Y381750D01*
X189450Y381000D01*
X191700Y384000D02*Y381750D01*
X192450Y381000D01*
X189450D02*X190950D01*
X191700Y381750D01*
X194250Y384000D02*Y381750D01*
X195000Y381000D01*
X197250Y384000D02*Y379500D01*
X196500Y378750D02*X197250Y379500D01*
X195000Y378750D02*X196500D01*
X194250Y379500D02*X195000Y378750D01*
Y381000D02*X196500D01*
X197250Y381750D01*
X199050Y383250D02*Y381750D01*
Y383250D02*X199800Y384000D01*
X201300D01*
X202050Y383250D01*
Y381750D01*
X201300Y381000D02*X202050Y381750D01*
X199800Y381000D02*X201300D01*
X199050Y381750D02*X199800Y381000D01*
X203850Y384000D02*Y381750D01*
X204600Y381000D01*
X206100D01*
X206850Y381750D01*
Y384000D02*Y381750D01*
X209400Y387000D02*Y381750D01*
X210150Y381000D01*
X208650Y384750D02*X210150D01*
X211650Y379500D02*X213150Y381000D01*
X219900Y387000D02*X220650Y386250D01*
X218400Y387000D02*X219900D01*
X217650Y386250D02*X218400Y387000D01*
X217650Y386250D02*Y381750D01*
X218400Y381000D01*
X219900Y384000D02*X220650Y383250D01*
X217650Y384000D02*X219900D01*
X218400Y381000D02*X219900D01*
X220650Y381750D01*
Y383250D02*Y381750D01*
X222450D02*X223200Y381000D01*
X222450Y386250D02*Y381750D01*
Y386250D02*X223200Y387000D01*
X224700D01*
X225450Y386250D01*
Y381750D01*
X224700Y381000D02*X225450Y381750D01*
X223200Y381000D02*X224700D01*
X222450Y382500D02*X225450Y385500D01*
X229950Y387000D02*Y381000D01*
Y383250D02*X230700Y384000D01*
X232200D01*
X232950Y383250D01*
Y381000D01*
X234750Y383250D02*Y381750D01*
Y383250D02*X235500Y384000D01*
X237000D01*
X237750Y383250D01*
Y381750D01*
X237000Y381000D02*X237750Y381750D01*
X235500Y381000D02*X237000D01*
X234750Y381750D02*X235500Y381000D01*
X239550Y387000D02*Y381750D01*
X240300Y381000D01*
X242550D02*X244800D01*
X241800Y381750D02*X242550Y381000D01*
X241800Y383250D02*Y381750D01*
Y383250D02*X242550Y384000D01*
X244050D01*
X244800Y383250D01*
X241800Y382500D02*X244800D01*
Y383250D02*Y382500D01*
X247350Y381000D02*X249600D01*
X250350Y381750D01*
X249600Y382500D02*X250350Y381750D01*
X247350Y382500D02*X249600D01*
X246600Y383250D02*X247350Y382500D01*
X246600Y383250D02*X247350Y384000D01*
X249600D01*
X250350Y383250D01*
X246600Y381750D02*X247350Y381000D01*
X255600Y387000D02*Y381750D01*
X256350Y381000D01*
X254850Y384750D02*X256350D01*
X257850Y383250D02*Y381750D01*
Y383250D02*X258600Y384000D01*
X260100D01*
X260850Y383250D01*
Y381750D01*
X260100Y381000D02*X260850Y381750D01*
X258600Y381000D02*X260100D01*
X257850Y381750D02*X258600Y381000D01*
X263400Y387000D02*Y381750D01*
X264150Y381000D01*
X262650Y384750D02*X264150D01*
X267900Y384000D02*X268650Y383250D01*
X266400Y384000D02*X267900D01*
X265650Y383250D02*X266400Y384000D01*
X265650Y383250D02*Y381750D01*
X266400Y381000D01*
X268650Y384000D02*Y381750D01*
X269400Y381000D01*
X266400D02*X267900D01*
X268650Y381750D01*
X271200Y387000D02*Y381750D01*
X271950Y381000D01*
G54D109*X6000Y187000D02*X315500D01*
Y39000D01*
X6000Y38500D02*Y187000D01*
X308500Y32000D02*X13000D01*
X6000Y39000D02*G75*G03X13000Y32000I7000J0D01*G01*
X308500D02*G75*G03X315500Y39000I0J7000D01*G01*
G54D108*X96925Y-9500D02*X99925D01*
X100675Y-8750D01*
Y-7250D02*Y-8750D01*
X99925Y-6500D02*X100675Y-7250D01*
X97675Y-6500D02*X99925D01*
X97675Y-3500D02*Y-9500D01*
X96925Y-3500D02*X99925D01*
X100675Y-4250D01*
Y-5750D01*
X99925Y-6500D02*X100675Y-5750D01*
X102475Y-7250D02*Y-8750D01*
Y-7250D02*X103225Y-6500D01*
X104725D01*
X105475Y-7250D01*
Y-8750D01*
X104725Y-9500D02*X105475Y-8750D01*
X103225Y-9500D02*X104725D01*
X102475Y-8750D02*X103225Y-9500D01*
X109525Y-6500D02*X110275Y-7250D01*
X108025Y-6500D02*X109525D01*
X107275Y-7250D02*X108025Y-6500D01*
X107275Y-7250D02*Y-8750D01*
X108025Y-9500D01*
X110275Y-6500D02*Y-8750D01*
X111025Y-9500D01*
X108025D02*X109525D01*
X110275Y-8750D01*
X113575Y-7250D02*Y-9500D01*
Y-7250D02*X114325Y-6500D01*
X115825D01*
X112825D02*X113575Y-7250D01*
X120625Y-3500D02*Y-9500D01*
X119875D02*X120625Y-8750D01*
X118375Y-9500D02*X119875D01*
X117625Y-8750D02*X118375Y-9500D01*
X117625Y-7250D02*Y-8750D01*
Y-7250D02*X118375Y-6500D01*
X119875D01*
X120625Y-7250D01*
X125125D02*Y-8750D01*
Y-7250D02*X125875Y-6500D01*
X127375D01*
X128125Y-7250D01*
Y-8750D01*
X127375Y-9500D02*X128125Y-8750D01*
X125875Y-9500D02*X127375D01*
X125125Y-8750D02*X125875Y-9500D01*
X129925Y-6500D02*Y-8750D01*
X130675Y-9500D01*
X132175D01*
X132925Y-8750D01*
Y-6500D02*Y-8750D01*
X135475Y-3500D02*Y-8750D01*
X136225Y-9500D01*
X134725Y-5750D02*X136225D01*
X137725Y-3500D02*Y-8750D01*
X138475Y-9500D01*
X139975Y-5000D02*Y-5750D01*
Y-7250D02*Y-9500D01*
X142225Y-7250D02*Y-9500D01*
Y-7250D02*X142975Y-6500D01*
X143725D01*
X144475Y-7250D01*
Y-9500D01*
X141475Y-6500D02*X142225Y-7250D01*
X147025Y-9500D02*X149275D01*
X146275Y-8750D02*X147025Y-9500D01*
X146275Y-7250D02*Y-8750D01*
Y-7250D02*X147025Y-6500D01*
X148525D01*
X149275Y-7250D01*
X146275Y-8000D02*X149275D01*
Y-7250D02*Y-8000D01*
X153775Y-5000D02*Y-5750D01*
Y-7250D02*Y-9500D01*
X156025D02*X158275D01*
X159025Y-8750D01*
X158275Y-8000D02*X159025Y-8750D01*
X156025Y-8000D02*X158275D01*
X155275Y-7250D02*X156025Y-8000D01*
X155275Y-7250D02*X156025Y-6500D01*
X158275D01*
X159025Y-7250D01*
X155275Y-8750D02*X156025Y-9500D01*
X164275Y-3500D02*Y-8750D01*
X165025Y-9500D01*
X163525Y-5750D02*X165025D01*
X166525Y-3500D02*Y-9500D01*
Y-7250D02*X167275Y-6500D01*
X168775D01*
X169525Y-7250D01*
Y-9500D01*
X172075D02*X174325D01*
X171325Y-8750D02*X172075Y-9500D01*
X171325Y-7250D02*Y-8750D01*
Y-7250D02*X172075Y-6500D01*
X173575D01*
X174325Y-7250D01*
X171325Y-8000D02*X174325D01*
Y-7250D02*Y-8000D01*
X179575Y-6500D02*X181825D01*
X178825Y-7250D02*X179575Y-6500D01*
X178825Y-7250D02*Y-8750D01*
X179575Y-9500D01*
X181825D01*
X184375D02*X186625D01*
X183625Y-8750D02*X184375Y-9500D01*
X183625Y-7250D02*Y-8750D01*
Y-7250D02*X184375Y-6500D01*
X185875D01*
X186625Y-7250D01*
X183625Y-8000D02*X186625D01*
Y-7250D02*Y-8000D01*
X189175Y-7250D02*Y-9500D01*
Y-7250D02*X189925Y-6500D01*
X190675D01*
X191425Y-7250D01*
Y-9500D01*
X188425Y-6500D02*X189175Y-7250D01*
X193975Y-3500D02*Y-8750D01*
X194725Y-9500D01*
X193225Y-5750D02*X194725D01*
X196975Y-9500D02*X199225D01*
X196225Y-8750D02*X196975Y-9500D01*
X196225Y-7250D02*Y-8750D01*
Y-7250D02*X196975Y-6500D01*
X198475D01*
X199225Y-7250D01*
X196225Y-8000D02*X199225D01*
Y-7250D02*Y-8000D01*
X201775Y-7250D02*Y-9500D01*
Y-7250D02*X202525Y-6500D01*
X204025D01*
X201025D02*X201775Y-7250D01*
X205825Y-3500D02*Y-8750D01*
X206575Y-9500D01*
X208075Y-5000D02*Y-5750D01*
Y-7250D02*Y-9500D01*
X210325Y-7250D02*Y-9500D01*
Y-7250D02*X211075Y-6500D01*
X211825D01*
X212575Y-7250D01*
Y-9500D01*
X209575Y-6500D02*X210325Y-7250D01*
X215125Y-9500D02*X217375D01*
X214375Y-8750D02*X215125Y-9500D01*
X214375Y-7250D02*Y-8750D01*
Y-7250D02*X215125Y-6500D01*
X216625D01*
X217375Y-7250D01*
X214375Y-8000D02*X217375D01*
Y-7250D02*Y-8000D01*
X221875Y-7250D02*Y-8750D01*
Y-7250D02*X222625Y-6500D01*
X224125D01*
X224875Y-7250D01*
Y-8750D01*
X224125Y-9500D02*X224875Y-8750D01*
X222625Y-9500D02*X224125D01*
X221875Y-8750D02*X222625Y-9500D01*
X227425Y-4250D02*Y-9500D01*
Y-4250D02*X228175Y-3500D01*
X228925D01*
X226675Y-6500D02*X228175D01*
X233875Y-3500D02*Y-8750D01*
X234625Y-9500D01*
X233125Y-5750D02*X234625D01*
X236125Y-3500D02*Y-9500D01*
Y-7250D02*X236875Y-6500D01*
X238375D01*
X239125Y-7250D01*
Y-9500D01*
X240925Y-5000D02*Y-5750D01*
Y-7250D02*Y-9500D01*
X243175D02*X245425D01*
X246175Y-8750D01*
X245425Y-8000D02*X246175Y-8750D01*
X243175Y-8000D02*X245425D01*
X242425Y-7250D02*X243175Y-8000D01*
X242425Y-7250D02*X243175Y-6500D01*
X245425D01*
X246175Y-7250D01*
X242425Y-8750D02*X243175Y-9500D01*
X251425Y-7250D02*Y-11750D01*
X250675Y-6500D02*X251425Y-7250D01*
X252175Y-6500D01*
X253675D01*
X254425Y-7250D01*
Y-8750D01*
X253675Y-9500D02*X254425Y-8750D01*
X252175Y-9500D02*X253675D01*
X251425Y-8750D02*X252175Y-9500D01*
X258475Y-6500D02*X259225Y-7250D01*
X256975Y-6500D02*X258475D01*
X256225Y-7250D02*X256975Y-6500D01*
X256225Y-7250D02*Y-8750D01*
X256975Y-9500D01*
X259225Y-6500D02*Y-8750D01*
X259975Y-9500D01*
X256975D02*X258475D01*
X259225Y-8750D01*
X262525Y-3500D02*Y-8750D01*
X263275Y-9500D01*
X261775Y-5750D02*X263275D01*
X264775Y-3500D02*Y-9500D01*
Y-7250D02*X265525Y-6500D01*
X267025D01*
X267775Y-7250D01*
Y-9500D01*
X200750Y222000D02*Y216000D01*
X203000Y222000D02*X203750Y221250D01*
Y216750D01*
X203000Y216000D02*X203750Y216750D01*
X200000Y216000D02*X203000D01*
X200000Y222000D02*X203000D01*
X207800Y219000D02*X208550Y218250D01*
X206300Y219000D02*X207800D01*
X205550Y218250D02*X206300Y219000D01*
X205550Y218250D02*Y216750D01*
X206300Y216000D01*
X208550Y219000D02*Y216750D01*
X209300Y216000D01*
X206300D02*X207800D01*
X208550Y216750D01*
X211850Y222000D02*Y216750D01*
X212600Y216000D01*
X211100Y219750D02*X212600D01*
X214850Y216000D02*X217100D01*
X214100Y216750D02*X214850Y216000D01*
X214100Y218250D02*Y216750D01*
Y218250D02*X214850Y219000D01*
X216350D01*
X217100Y218250D01*
X214100Y217500D02*X217100D01*
Y218250D02*Y217500D01*
X218900Y219750D02*X219650D01*
X218900Y218250D02*X219650D01*
X224150Y222000D02*Y216000D01*
X226400Y218250D01*
X228650Y216000D01*
Y222000D02*Y216000D01*
X231200D02*X233450D01*
X230450Y216750D02*X231200Y216000D01*
X230450Y218250D02*Y216750D01*
Y218250D02*X231200Y219000D01*
X232700D01*
X233450Y218250D01*
X230450Y217500D02*X233450D01*
Y218250D02*Y217500D01*
X238250Y222000D02*Y216000D01*
X237500D02*X238250Y216750D01*
X236000Y216000D02*X237500D01*
X235250Y216750D02*X236000Y216000D01*
X235250Y218250D02*Y216750D01*
Y218250D02*X236000Y219000D01*
X237500D01*
X238250Y218250D01*
X242750Y216750D02*X243500Y216000D01*
X242750Y221250D02*Y216750D01*
Y221250D02*X243500Y222000D01*
X245000D01*
X245750Y221250D01*
Y216750D01*
X245000Y216000D02*X245750Y216750D01*
X243500Y216000D02*X245000D01*
X242750Y217500D02*X245750Y220500D01*
X247550Y216000D02*X250550Y219000D01*
Y221250D02*Y219000D01*
X249800Y222000D02*X250550Y221250D01*
X248300Y222000D02*X249800D01*
X247550Y221250D02*X248300Y222000D01*
X247550Y221250D02*Y219750D01*
X248300Y219000D01*
X250550D01*
X255050Y222000D02*Y216000D01*
Y222000D02*X257300Y219750D01*
X259550Y222000D01*
Y216000D01*
X263600Y219000D02*X264350Y218250D01*
X262100Y219000D02*X263600D01*
X261350Y218250D02*X262100Y219000D01*
X261350Y218250D02*Y216750D01*
X262100Y216000D01*
X264350Y219000D02*Y216750D01*
X265100Y216000D01*
X262100D02*X263600D01*
X264350Y216750D01*
X267650Y218250D02*Y216000D01*
Y218250D02*X268400Y219000D01*
X269900D01*
X266900D02*X267650Y218250D01*
X274400Y221250D02*X275150Y222000D01*
X277400D01*
X278150Y221250D01*
Y219750D01*
X274400Y216000D02*X278150Y219750D01*
X274400Y216000D02*X278150D01*
X279950Y216750D02*X280700Y216000D01*
X279950Y221250D02*Y216750D01*
Y221250D02*X280700Y222000D01*
X282200D01*
X282950Y221250D01*
Y216750D01*
X282200Y216000D02*X282950Y216750D01*
X280700Y216000D02*X282200D01*
X279950Y217500D02*X282950Y220500D01*
X285500Y216000D02*X287000D01*
X286250Y222000D02*Y216000D01*
X284750Y220500D02*X286250Y222000D01*
X291050D02*X291800Y221250D01*
X289550Y222000D02*X291050D01*
X288800Y221250D02*X289550Y222000D01*
X288800Y221250D02*Y216750D01*
X289550Y216000D01*
X291050Y219000D02*X291800Y218250D01*
X288800Y219000D02*X291050D01*
X289550Y216000D02*X291050D01*
X291800Y216750D01*
Y218250D02*Y216750D01*
X296300D02*X297050Y216000D01*
X296300Y221250D02*Y216750D01*
Y221250D02*X297050Y222000D01*
X298550D01*
X299300Y221250D01*
Y216750D01*
X298550Y216000D02*X299300Y216750D01*
X297050Y216000D02*X298550D01*
X296300Y217500D02*X299300Y220500D01*
X301100Y219000D02*X304100Y222000D01*
X301100Y219000D02*X304850D01*
X304100Y222000D02*Y216000D01*
X306650Y219750D02*X307400D01*
X306650Y218250D02*X307400D01*
X309200Y219000D02*X312200Y222000D01*
X309200Y219000D02*X312950D01*
X312200Y222000D02*Y216000D01*
X314750D02*X317750Y219000D01*
Y221250D02*Y219000D01*
X317000Y222000D02*X317750Y221250D01*
X315500Y222000D02*X317000D01*
X314750Y221250D02*X315500Y222000D01*
X314750Y221250D02*Y219750D01*
X315500Y219000D01*
X317750D01*
X319550Y219750D02*X320300D01*
X319550Y218250D02*X320300D01*
X322100Y219000D02*X325100Y222000D01*
X322100Y219000D02*X325850D01*
X325100Y222000D02*Y216000D01*
X329900Y222000D02*X330650Y221250D01*
X328400Y222000D02*X329900D01*
X327650Y221250D02*X328400Y222000D01*
X327650Y221250D02*Y216750D01*
X328400Y216000D01*
X329900Y219000D02*X330650Y218250D01*
X327650Y219000D02*X329900D01*
X328400Y216000D02*X329900D01*
X330650Y216750D01*
Y218250D02*Y216750D01*
X335900Y222000D02*Y216000D01*
X335150Y222000D02*X338150D01*
X338900Y221250D01*
Y219750D01*
X338150Y219000D02*X338900Y219750D01*
X335900Y219000D02*X338150D01*
X340700Y222000D02*Y216000D01*
Y222000D02*X342950Y219750D01*
X345200Y222000D01*
Y216000D01*
X352700Y222000D02*X353450Y221250D01*
X350450Y222000D02*X352700D01*
X349700Y221250D02*X350450Y222000D01*
X349700Y221250D02*Y216750D01*
X350450Y216000D01*
X352700D01*
X353450Y216750D01*
Y218250D02*Y216750D01*
X352700Y219000D02*X353450Y218250D01*
X351200Y219000D02*X352700D01*
X355250Y222000D02*Y216000D01*
Y222000D02*X357500Y219750D01*
X359750Y222000D01*
Y216000D01*
X361550Y222000D02*X364550D01*
X363050D02*Y216000D01*
X369050Y222000D02*Y216750D01*
X369800Y216000D01*
X371300D01*
X372050Y216750D01*
Y222000D02*Y216750D01*
X373850Y222000D02*X376850D01*
X375350D02*Y216000D01*
X379400D02*X381650D01*
X378650Y216750D02*X379400Y216000D01*
X378650Y221250D02*Y216750D01*
Y221250D02*X379400Y222000D01*
X381650D01*
X200000Y236250D02*Y231000D01*
Y236250D02*X200750Y237000D01*
X203000D01*
X203750Y236250D01*
Y231000D01*
X200000Y234000D02*X203750D01*
X205550D02*Y231750D01*
X206300Y231000D01*
X207800D01*
X208550Y231750D01*
Y234000D02*Y231750D01*
X211100Y237000D02*Y231750D01*
X211850Y231000D01*
X210350Y234750D02*X211850D01*
X213350Y237000D02*Y231000D01*
Y233250D02*X214100Y234000D01*
X215600D01*
X216350Y233250D01*
Y231000D01*
X218150Y233250D02*Y231750D01*
Y233250D02*X218900Y234000D01*
X220400D01*
X221150Y233250D01*
Y231750D01*
X220400Y231000D02*X221150Y231750D01*
X218900Y231000D02*X220400D01*
X218150Y231750D02*X218900Y231000D01*
X223700Y233250D02*Y231000D01*
Y233250D02*X224450Y234000D01*
X225950D01*
X222950D02*X223700Y233250D01*
X227750Y234750D02*X228500D01*
X227750Y233250D02*X228500D01*
X200000Y252000D02*X203000D01*
X201500D02*Y246000D01*
X204800Y250500D02*Y249750D01*
Y248250D02*Y246000D01*
X207050Y252000D02*Y246750D01*
X207800Y246000D01*
X206300Y249750D02*X207800D01*
X209300Y252000D02*Y246750D01*
X210050Y246000D01*
X212300D02*X214550D01*
X211550Y246750D02*X212300Y246000D01*
X211550Y248250D02*Y246750D01*
Y248250D02*X212300Y249000D01*
X213800D01*
X214550Y248250D01*
X211550Y247500D02*X214550D01*
Y248250D02*Y247500D01*
X216350Y249750D02*X217100D01*
X216350Y248250D02*X217100D01*
X221600Y246750D02*X222350Y246000D01*
X221600Y251250D02*X222350Y252000D01*
X221600Y251250D02*Y246750D01*
X224150Y249000D02*Y246750D01*
X224900Y246000D01*
X226400D01*
X227150Y246750D01*
Y249000D02*Y246750D01*
X229700Y248250D02*Y246000D01*
Y248250D02*X230450Y249000D01*
X231200D01*
X231950Y248250D01*
Y246000D01*
X228950Y249000D02*X229700Y248250D01*
X233750Y252000D02*Y246000D01*
Y248250D02*X236000Y246000D01*
X233750Y248250D02*X235250Y249750D01*
X238550Y248250D02*Y246000D01*
Y248250D02*X239300Y249000D01*
X240050D01*
X240800Y248250D01*
Y246000D01*
X237800Y249000D02*X238550Y248250D01*
X242600D02*Y246750D01*
Y248250D02*X243350Y249000D01*
X244850D01*
X245600Y248250D01*
Y246750D01*
X244850Y246000D02*X245600Y246750D01*
X243350Y246000D02*X244850D01*
X242600Y246750D02*X243350Y246000D01*
X247400Y249000D02*Y246750D01*
X248150Y246000D01*
X248900D01*
X249650Y246750D01*
Y249000D02*Y246750D01*
X250400Y246000D01*
X251150D01*
X251900Y246750D01*
Y249000D02*Y246750D01*
X254450Y248250D02*Y246000D01*
Y248250D02*X255200Y249000D01*
X255950D01*
X256700Y248250D01*
Y246000D01*
X253700Y249000D02*X254450Y248250D01*
X258500Y252000D02*X259250Y251250D01*
Y246750D01*
X258500Y246000D02*X259250Y246750D01*
X263750Y249000D02*X266750D01*
X271250Y252000D02*Y246000D01*
Y252000D02*X274250D01*
X271250Y249000D02*X273500D01*
X278300D02*X279050Y248250D01*
X276800Y249000D02*X278300D01*
X276050Y248250D02*X276800Y249000D01*
X276050Y248250D02*Y246750D01*
X276800Y246000D01*
X279050Y249000D02*Y246750D01*
X279800Y246000D01*
X276800D02*X278300D01*
X279050Y246750D01*
X281600Y252000D02*Y246000D01*
Y246750D02*X282350Y246000D01*
X283850D01*
X284600Y246750D01*
Y248250D02*Y246750D01*
X283850Y249000D02*X284600Y248250D01*
X282350Y249000D02*X283850D01*
X281600Y248250D02*X282350Y249000D01*
X287150Y248250D02*Y246000D01*
Y248250D02*X287900Y249000D01*
X289400D01*
X286400D02*X287150Y248250D01*
X291200Y250500D02*Y249750D01*
Y248250D02*Y246000D01*
X293450Y249000D02*X295700D01*
X292700Y248250D02*X293450Y249000D01*
X292700Y248250D02*Y246750D01*
X293450Y246000D01*
X295700D01*
X299750Y249000D02*X300500Y248250D01*
X298250Y249000D02*X299750D01*
X297500Y248250D02*X298250Y249000D01*
X297500Y248250D02*Y246750D01*
X298250Y246000D01*
X300500Y249000D02*Y246750D01*
X301250Y246000D01*
X298250D02*X299750D01*
X300500Y246750D01*
X303800Y252000D02*Y246750D01*
X304550Y246000D01*
X303050Y249750D02*X304550D01*
X306050Y250500D02*Y249750D01*
Y248250D02*Y246000D01*
X307550Y248250D02*Y246750D01*
Y248250D02*X308300Y249000D01*
X309800D01*
X310550Y248250D01*
Y246750D01*
X309800Y246000D02*X310550Y246750D01*
X308300Y246000D02*X309800D01*
X307550Y246750D02*X308300Y246000D01*
X313100Y248250D02*Y246000D01*
Y248250D02*X313850Y249000D01*
X314600D01*
X315350Y248250D01*
Y246000D01*
X312350Y249000D02*X313100Y248250D01*
X320600Y252000D02*Y246000D01*
X322850Y252000D02*X323600Y251250D01*
Y246750D01*
X322850Y246000D02*X323600Y246750D01*
X319850Y246000D02*X322850D01*
X319850Y252000D02*X322850D01*
X326150Y248250D02*Y246000D01*
Y248250D02*X326900Y249000D01*
X328400D01*
X325400D02*X326150Y248250D01*
X332450Y249000D02*X333200Y248250D01*
X330950Y249000D02*X332450D01*
X330200Y248250D02*X330950Y249000D01*
X330200Y248250D02*Y246750D01*
X330950Y246000D01*
X333200Y249000D02*Y246750D01*
X333950Y246000D01*
X330950D02*X332450D01*
X333200Y246750D01*
X335750Y249000D02*Y246750D01*
X336500Y246000D01*
X337250D01*
X338000Y246750D01*
Y249000D02*Y246750D01*
X338750Y246000D01*
X339500D01*
X340250Y246750D01*
Y249000D02*Y246750D01*
X342050Y250500D02*Y249750D01*
Y248250D02*Y246000D01*
X344300Y248250D02*Y246000D01*
Y248250D02*X345050Y249000D01*
X345800D01*
X346550Y248250D01*
Y246000D01*
X343550Y249000D02*X344300Y248250D01*
X350600Y249000D02*X351350Y248250D01*
X349100Y249000D02*X350600D01*
X348350Y248250D02*X349100Y249000D01*
X348350Y248250D02*Y246750D01*
X349100Y246000D01*
X350600D01*
X351350Y246750D01*
X348350Y244500D02*X349100Y243750D01*
X350600D01*
X351350Y244500D01*
Y249000D02*Y244500D01*
M02*
