G04 start of page 10 for group -4015 idx -4015 *
G04 Title: (unknown), toppaste *
G04 Creator: pcb 20140316 *
G04 CreationDate: Wed 09 Mar 2016 04:49:46 PM GMT UTC *
G04 For: fosse *
G04 Format: Gerber/RS-274X *
G04 PCB-Dimensions (mil): 3665.00 1935.00 *
G04 PCB-Coordinate-Origin: lower left *
%MOIN*%
%FSLAX25Y25*%
%LNTOPPASTE*%
%ADD102R,0.0512X0.0512*%
%ADD101R,0.0200X0.0200*%
G54D101*X131000Y89000D02*X137500D01*
X131000Y84000D02*X137500D01*
X131000Y79000D02*X137500D01*
X131000Y74000D02*X137500D01*
X151500D02*X158000D01*
X151500Y79000D02*X158000D01*
X151500Y84000D02*X158000D01*
X151500Y89000D02*X158000D01*
G54D102*X33107Y100543D02*X33893D01*
X33107Y93457D02*X33893D01*
X16107Y100543D02*X16893D01*
X16107Y93457D02*X16893D01*
G54D101*X50000Y89000D02*X56500D01*
X50000Y84000D02*X56500D01*
X50000Y79000D02*X56500D01*
X50000Y74000D02*X56500D01*
X70500D02*X77000D01*
X70500Y79000D02*X77000D01*
X70500Y84000D02*X77000D01*
X70500Y89000D02*X77000D01*
G54D102*X88319Y96000D02*X90681D01*
X88319Y84190D02*X90681D01*
X35319Y84905D02*X37681D01*
X35319Y73095D02*X37681D01*
X113319Y81905D02*X115681D01*
X113319Y70095D02*X115681D01*
X169319Y95905D02*X171681D01*
X169319Y84095D02*X171681D01*
X57595Y61681D02*Y59319D01*
X69405Y61681D02*Y59319D01*
X137595Y61681D02*Y59319D01*
X149405Y61681D02*Y59319D01*
M02*
