G04 start of page 8 for group -4079 idx -4079 *
G04 Title: (unknown), topsilk *
G04 Creator: pcb 20140316 *
G04 CreationDate: Wed 09 Mar 2016 04:49:46 PM GMT UTC *
G04 For: fosse *
G04 Format: Gerber/RS-274X *
G04 PCB-Dimensions (mil): 3665.00 1935.00 *
G04 PCB-Coordinate-Origin: lower left *
%MOIN*%
%FSLAX25Y25*%
%LNTOPSILK*%
%ADD97C,0.0080*%
%ADD96C,0.0150*%
%ADD95C,0.0400*%
%ADD94C,0.0100*%
%ADD93C,0.0110*%
G54D93*X314500Y40500D02*Y186000D01*
X7000D02*Y39000D01*
X13500Y33000D02*X307000D01*
X314500Y40500D01*
X7000Y39500D02*X13500Y33000D01*
G54D94*X302500Y122550D02*X304480D01*
X304975Y123045D01*
Y124035D02*Y123045D01*
X304480Y124530D02*X304975Y124035D01*
X302995Y124530D02*X304480D01*
X302995Y126510D02*Y122550D01*
X302500Y126510D02*X304480D01*
X304975Y126015D01*
Y125025D01*
X304480Y124530D02*X304975Y125025D01*
X306163Y126510D02*Y122550D01*
Y126510D02*Y126015D01*
X308638Y123540D01*
Y126510D02*Y122550D01*
X310321D02*X311806D01*
X309826Y123045D02*X310321Y122550D01*
X309826Y126015D02*Y123045D01*
Y126015D02*X310321Y126510D01*
X311806D01*
X179500Y53030D02*X181480D01*
X183163Y51050D02*X184153D01*
X183658Y55010D02*Y51050D01*
X182668Y54020D02*X183658Y55010D01*
X185341D02*X187321D01*
X185341D02*Y53030D01*
X185836Y53525D01*
X186826D01*
X187321Y53030D01*
Y51545D01*
X186826Y51050D02*X187321Y51545D01*
X185836Y51050D02*X186826D01*
X185341Y51545D02*X185836Y51050D01*
X188509Y55010D02*Y52040D01*
X189499Y51050D01*
X190489Y52040D01*
Y55010D02*Y52040D01*
X182980Y75510D02*X183475Y75015D01*
X181495Y75510D02*X182980D01*
X181000Y75015D02*X181495Y75510D01*
X181000Y75015D02*Y72045D01*
X181495Y71550D01*
X182980D01*
X183475Y72045D01*
Y73035D02*Y72045D01*
X182980Y73530D02*X183475Y73035D01*
X181990Y73530D02*X182980D01*
X184663Y75510D02*Y71550D01*
Y75510D02*Y75015D01*
X187138Y72540D01*
Y75510D02*Y71550D01*
X188821Y75510D02*Y71550D01*
X190306Y75510D02*X190801Y75015D01*
Y72045D01*
X190306Y71550D02*X190801Y72045D01*
X188326Y71550D02*X190306D01*
X188326Y75510D02*X190306D01*
X182980Y65010D02*X183475Y64515D01*
X181495Y65010D02*X182980D01*
X181000Y64515D02*X181495Y65010D01*
X181000Y64515D02*Y61545D01*
X181495Y61050D01*
X182980D01*
X183475Y61545D01*
Y62535D02*Y61545D01*
X182980Y63030D02*X183475Y62535D01*
X181990Y63030D02*X182980D01*
X184663Y65010D02*Y61050D01*
Y65010D02*Y64515D01*
X187138Y62040D01*
Y65010D02*Y61050D01*
X188821Y65010D02*Y61050D01*
X190306Y65010D02*X190801Y64515D01*
Y61545D01*
X190306Y61050D02*X190801Y61545D01*
X188326Y61050D02*X190306D01*
X188326Y65010D02*X190306D01*
X180000Y83530D02*X181980D01*
X180990Y84520D02*Y82540D01*
X183663Y81550D02*X184653D01*
X184158Y85510D02*Y81550D01*
X183168Y84520D02*X184158Y85510D01*
X185841D02*X187821D01*
X185841D02*Y83530D01*
X186336Y84025D01*
X187326D01*
X187821Y83530D01*
Y82045D01*
X187326Y81550D02*X187821Y82045D01*
X186336Y81550D02*X187326D01*
X185841Y82045D02*X186336Y81550D01*
X189009Y85510D02*Y82540D01*
X189999Y81550D01*
X190989Y82540D01*
Y85510D02*Y82540D01*
X169995Y41050D02*X171480D01*
X169500Y41545D02*X169995Y41050D01*
X169500Y44515D02*Y41545D01*
Y44515D02*X169995Y45010D01*
X171480D01*
X172668D02*Y41050D01*
Y42535D02*X173163Y43030D01*
X174153D01*
X174648Y42535D01*
Y41050D01*
X177321Y43030D02*X177816Y42535D01*
X176331Y43030D02*X177321D01*
X175836Y42535D02*X176331Y43030D01*
X175836Y42535D02*Y41545D01*
X176331Y41050D01*
X177816Y43030D02*Y41545D01*
X178311Y41050D01*
X176331D02*X177321D01*
X177816Y41545D01*
X179994Y41050D02*X181479D01*
X181974Y41545D01*
X181479Y42040D02*X181974Y41545D01*
X179994Y42040D02*X181479D01*
X179499Y42535D02*X179994Y42040D01*
X179499Y42535D02*X179994Y43030D01*
X181479D01*
X181974Y42535D01*
X179499Y41545D02*X179994Y41050D01*
X183657D02*X185142D01*
X185637Y41545D01*
X185142Y42040D02*X185637Y41545D01*
X183657Y42040D02*X185142D01*
X183162Y42535D02*X183657Y42040D01*
X183162Y42535D02*X183657Y43030D01*
X185142D01*
X185637Y42535D01*
X183162Y41545D02*X183657Y41050D01*
X186825Y44020D02*Y43525D01*
Y42535D02*Y41050D01*
X188310D02*X189795D01*
X190290Y41545D01*
X189795Y42040D02*X190290Y41545D01*
X188310Y42040D02*X189795D01*
X187815Y42535D02*X188310Y42040D01*
X187815Y42535D02*X188310Y43030D01*
X189795D01*
X190290Y42535D01*
X187815Y41545D02*X188310Y41050D01*
X126000Y132510D02*Y128550D01*
Y132510D02*X127485Y131025D01*
X128970Y132510D01*
Y128550D01*
X130158Y131520D02*Y131025D01*
Y130035D02*Y128550D01*
X131643Y130035D02*Y128550D01*
Y130035D02*X132138Y130530D01*
X132633D01*
X133128Y130035D01*
Y128550D01*
X131148Y130530D02*X131643Y130035D01*
X134316Y131520D02*Y131025D01*
Y130035D02*Y128550D01*
X135801Y132510D02*Y128550D01*
X137286Y132510D02*X137781Y132015D01*
Y129045D01*
X137286Y128550D02*X137781Y129045D01*
X135306Y128550D02*X137286D01*
X135306Y132510D02*X137286D01*
X138969D02*X139959D01*
X139464D02*Y128550D01*
X138969D02*X139959D01*
X141147Y132510D02*Y128550D01*
Y132510D02*Y132015D01*
X143622Y129540D01*
Y132510D02*Y128550D01*
X144810Y132510D02*X146790D01*
X144810D02*Y130530D01*
X145305Y131025D01*
X146295D01*
X146790Y130530D01*
Y129045D01*
X146295Y128550D02*X146790Y129045D01*
X145305Y128550D02*X146295D01*
X144810Y129045D02*X145305Y128550D01*
X14500Y68000D02*X15000Y68500D01*
X16500D01*
X17000Y68000D01*
Y67000D01*
X14500Y64500D02*X17000Y67000D01*
X14500Y64500D02*X17000D01*
X18200Y65000D02*X18700Y64500D01*
X18200Y68000D02*Y65000D01*
Y68000D02*X18700Y68500D01*
X19700D01*
X20200Y68000D01*
Y65000D01*
X19700Y64500D02*X20200Y65000D01*
X18700Y64500D02*X19700D01*
X18200Y65500D02*X20200Y67500D01*
X21900Y64500D02*X22900D01*
X22400Y68500D02*Y64500D01*
X21400Y67500D02*X22400Y68500D01*
X25600D02*X26100Y68000D01*
X24600Y68500D02*X25600D01*
X24100Y68000D02*X24600Y68500D01*
X24100Y68000D02*Y65000D01*
X24600Y64500D01*
X25600Y66500D02*X26100Y66000D01*
X24100Y66500D02*X25600D01*
X24600Y64500D02*X25600D01*
X26100Y65000D01*
Y66000D02*Y65000D01*
X27300Y64500D02*X27800D01*
X29000Y65000D02*X29500Y64500D01*
X29000Y68000D02*Y65000D01*
Y68000D02*X29500Y68500D01*
X30500D01*
X31000Y68000D01*
Y65000D01*
X30500Y64500D02*X31000Y65000D01*
X29500Y64500D02*X30500D01*
X29000Y65500D02*X31000Y67500D01*
X32200Y68000D02*X32700Y68500D01*
X33700D01*
X34200Y68000D01*
Y65000D01*
X33700Y64500D02*X34200Y65000D01*
X32700Y64500D02*X33700D01*
X32200Y65000D02*X32700Y64500D01*
Y66500D02*X34200D01*
X35400Y64500D02*X35900D01*
X37100Y65000D02*X37600Y64500D01*
X37100Y68000D02*Y65000D01*
Y68000D02*X37600Y68500D01*
X38600D01*
X39100Y68000D01*
Y65000D01*
X38600Y64500D02*X39100Y65000D01*
X37600Y64500D02*X38600D01*
X37100Y65500D02*X39100Y67500D01*
X40300Y65000D02*X40800Y64500D01*
X40300Y66000D02*Y65000D01*
Y66000D02*X40800Y66500D01*
X41800D01*
X42300Y66000D01*
Y65000D01*
X41800Y64500D02*X42300Y65000D01*
X40800Y64500D02*X41800D01*
X40300Y67000D02*X40800Y66500D01*
X40300Y68000D02*Y67000D01*
Y68000D02*X40800Y68500D01*
X41800D01*
X42300Y68000D01*
Y67000D01*
X41800Y66500D02*X42300Y67000D01*
X14500Y52500D02*X16000D01*
X14500Y50500D02*X16500D01*
X14500Y54500D02*Y50500D01*
Y54500D02*X16500D01*
X18200D02*Y50500D01*
X17700Y54500D02*X19700D01*
X20200Y54000D01*
Y53000D01*
X19700Y52500D02*X20200Y53000D01*
X18200Y52500D02*X19700D01*
X21400Y54500D02*Y50500D01*
X23400D01*
X28400Y54500D02*X28900Y54000D01*
X26900Y54500D02*X28400D01*
X26400Y54000D02*X26900Y54500D01*
X26400Y54000D02*Y53000D01*
X26900Y52500D01*
X28400D01*
X28900Y52000D01*
Y51000D01*
X28400Y50500D02*X28900Y51000D01*
X26900Y50500D02*X28400D01*
X26400Y51000D02*X26900Y50500D01*
X30600Y54500D02*Y51000D01*
X31100Y50500D01*
X30100Y53000D02*X31100D01*
X32600Y52000D02*Y50500D01*
Y52000D02*X33100Y52500D01*
X34100D01*
X32100D02*X32600Y52000D01*
X36800Y52500D02*X37300Y52000D01*
X35800Y52500D02*X36800D01*
X35300Y52000D02*X35800Y52500D01*
X35300Y52000D02*Y51000D01*
X35800Y50500D01*
X37300Y52500D02*Y51000D01*
X37800Y50500D01*
X35800D02*X36800D01*
X37300Y51000D01*
X39000Y53500D02*Y53000D01*
Y52000D02*Y50500D01*
X40500Y52000D02*Y50500D01*
Y52000D02*X41000Y52500D01*
X41500D01*
X42000Y52000D01*
Y50500D01*
X40000Y52500D02*X40500Y52000D01*
X47000Y54500D02*X47500Y54000D01*
X45500Y54500D02*X47000D01*
X45000Y54000D02*X45500Y54500D01*
X45000Y54000D02*Y51000D01*
X45500Y50500D01*
X47000D01*
X47500Y51000D01*
Y52000D02*Y51000D01*
X47000Y52500D02*X47500Y52000D01*
X46000Y52500D02*X47000D01*
X50200D02*X50700Y52000D01*
X49200Y52500D02*X50200D01*
X48700Y52000D02*X49200Y52500D01*
X48700Y52000D02*Y51000D01*
X49200Y50500D01*
X50700Y52500D02*Y51000D01*
X51200Y50500D01*
X49200D02*X50200D01*
X50700Y51000D01*
X52400Y52500D02*Y51000D01*
X52900Y50500D01*
X53900D01*
X54400Y51000D01*
Y52500D02*Y51000D01*
X57100Y52500D02*X57600Y52000D01*
X56100Y52500D02*X57100D01*
X55600Y52000D02*X56100Y52500D01*
X55600Y52000D02*Y51000D01*
X56100Y50500D01*
X57100D01*
X57600Y51000D01*
X55600Y49500D02*X56100Y49000D01*
X57100D01*
X57600Y49500D01*
Y52500D02*Y49500D01*
X59300Y50500D02*X60800D01*
X58800Y51000D02*X59300Y50500D01*
X58800Y52000D02*Y51000D01*
Y52000D02*X59300Y52500D01*
X60300D01*
X60800Y52000D01*
X58800Y51500D02*X60800D01*
Y52000D02*Y51500D01*
X63800Y54000D02*Y50500D01*
Y54000D02*X64300Y54500D01*
X65800D01*
X66300Y54000D01*
Y50500D01*
X63800Y52500D02*X66300D01*
X68000Y52000D02*Y50500D01*
Y52000D02*X68500Y52500D01*
X69000D01*
X69500Y52000D01*
Y50500D01*
Y52000D02*X70000Y52500D01*
X70500D01*
X71000Y52000D01*
Y50500D01*
X67500Y52500D02*X68000Y52000D01*
X72700D02*Y49000D01*
X72200Y52500D02*X72700Y52000D01*
X73200Y52500D01*
X74200D01*
X74700Y52000D01*
Y51000D01*
X74200Y50500D02*X74700Y51000D01*
X73200Y50500D02*X74200D01*
X72700Y51000D02*X73200Y50500D01*
X75900Y54500D02*Y51000D01*
X76400Y50500D01*
X77400Y53500D02*Y53000D01*
Y52000D02*Y50500D01*
X78900Y54000D02*Y50500D01*
Y54000D02*X79400Y54500D01*
X79900D01*
X78400Y52500D02*X79400D01*
X80900Y53500D02*Y53000D01*
Y52000D02*Y50500D01*
X82400D02*X83900D01*
X81900Y51000D02*X82400Y50500D01*
X81900Y52000D02*Y51000D01*
Y52000D02*X82400Y52500D01*
X83400D01*
X83900Y52000D01*
X81900Y51500D02*X83900D01*
Y52000D02*Y51500D01*
X85600Y52000D02*Y50500D01*
Y52000D02*X86100Y52500D01*
X87100D01*
X85100D02*X85600Y52000D01*
X14500Y57500D02*X16500D01*
X17000Y58000D01*
Y59000D02*Y58000D01*
X16500Y59500D02*X17000Y59000D01*
X15000Y59500D02*X16500D01*
X15000Y61500D02*Y57500D01*
X14500Y61500D02*X16500D01*
X17000Y61000D01*
Y60000D01*
X16500Y59500D02*X17000Y60000D01*
X18200Y59500D02*Y58000D01*
X18700Y57500D01*
X20200Y59500D02*Y56500D01*
X19700Y56000D02*X20200Y56500D01*
X18700Y56000D02*X19700D01*
X18200Y56500D02*X18700Y56000D01*
Y57500D02*X19700D01*
X20200Y58000D01*
X23200Y59500D02*X24700D01*
X23200Y57500D02*X25200D01*
X23200Y61500D02*Y57500D01*
Y61500D02*X25200D01*
X26400Y59500D02*Y58500D01*
X27400Y57500D01*
X28400Y58500D01*
Y59500D02*Y58500D01*
X31100Y59500D02*X31600Y59000D01*
X30100Y59500D02*X31100D01*
X29600Y59000D02*X30100Y59500D01*
X29600Y59000D02*Y58000D01*
X30100Y57500D01*
X31600Y59500D02*Y58000D01*
X32100Y57500D01*
X30100D02*X31100D01*
X31600Y58000D01*
X33800Y59000D02*Y57500D01*
Y59000D02*X34300Y59500D01*
X34800D01*
X35300Y59000D01*
Y57500D01*
X33300Y59500D02*X33800Y59000D01*
X38300Y61500D02*Y57500D01*
Y61500D02*X40300D01*
X38300Y59500D02*X39800D01*
X41500Y59000D02*Y58000D01*
Y59000D02*X42000Y59500D01*
X43000D01*
X43500Y59000D01*
Y58000D01*
X43000Y57500D02*X43500Y58000D01*
X42000Y57500D02*X43000D01*
X41500Y58000D02*X42000Y57500D01*
X45200D02*X46700D01*
X47200Y58000D01*
X46700Y58500D02*X47200Y58000D01*
X45200Y58500D02*X46700D01*
X44700Y59000D02*X45200Y58500D01*
X44700Y59000D02*X45200Y59500D01*
X46700D01*
X47200Y59000D01*
X44700Y58000D02*X45200Y57500D01*
X48900D02*X50400D01*
X50900Y58000D01*
X50400Y58500D02*X50900Y58000D01*
X48900Y58500D02*X50400D01*
X48400Y59000D02*X48900Y58500D01*
X48400Y59000D02*X48900Y59500D01*
X50400D01*
X50900Y59000D01*
X48400Y58000D02*X48900Y57500D01*
X15000Y47500D02*Y43500D01*
X16500Y47500D02*X17000Y47000D01*
Y44000D01*
X16500Y43500D02*X17000Y44000D01*
X14500Y43500D02*X16500D01*
X14500Y47500D02*X16500D01*
X18700Y43500D02*X20200D01*
X18200Y44000D02*X18700Y43500D01*
X18200Y45000D02*Y44000D01*
Y45000D02*X18700Y45500D01*
X19700D01*
X20200Y45000D01*
X18200Y44500D02*X20200D01*
Y45000D02*Y44500D01*
X21900Y43500D02*X23400D01*
X23900Y44000D01*
X23400Y44500D02*X23900Y44000D01*
X21900Y44500D02*X23400D01*
X21400Y45000D02*X21900Y44500D01*
X21400Y45000D02*X21900Y45500D01*
X23400D01*
X23900Y45000D01*
X21400Y44000D02*X21900Y43500D01*
X25100Y46500D02*Y46000D01*
Y45000D02*Y43500D01*
X27600Y45500D02*X28100Y45000D01*
X26600Y45500D02*X27600D01*
X26100Y45000D02*X26600Y45500D01*
X26100Y45000D02*Y44000D01*
X26600Y43500D01*
X27600D01*
X28100Y44000D01*
X26100Y42500D02*X26600Y42000D01*
X27600D01*
X28100Y42500D01*
Y45500D02*Y42500D01*
X29800Y45000D02*Y43500D01*
Y45000D02*X30300Y45500D01*
X30800D01*
X31300Y45000D01*
Y43500D01*
X29300Y45500D02*X29800Y45000D01*
X33000Y43500D02*X34500D01*
X32500Y44000D02*X33000Y43500D01*
X32500Y45000D02*Y44000D01*
Y45000D02*X33000Y45500D01*
X34000D01*
X34500Y45000D01*
X32500Y44500D02*X34500D01*
Y45000D02*Y44500D01*
X37700Y47500D02*Y43500D01*
X37200D02*X37700Y44000D01*
X36200Y43500D02*X37200D01*
X35700Y44000D02*X36200Y43500D01*
X35700Y45000D02*Y44000D01*
Y45000D02*X36200Y45500D01*
X37200D01*
X37700Y45000D01*
X41200Y47500D02*Y44000D01*
X41700Y43500D01*
X40700Y46000D02*X41700D01*
X42700Y45000D02*Y44000D01*
Y45000D02*X43200Y45500D01*
X44200D01*
X44700Y45000D01*
Y44000D01*
X44200Y43500D02*X44700Y44000D01*
X43200Y43500D02*X44200D01*
X42700Y44000D02*X43200Y43500D01*
X48200Y47000D02*Y43500D01*
Y47000D02*X48700Y47500D01*
X49200D01*
X47700Y45500D02*X48700D01*
X50200Y46500D02*Y46000D01*
Y45000D02*Y43500D01*
X51700Y47500D02*Y44000D01*
X52200Y43500D01*
X51200Y46000D02*X52200D01*
X55000Y45500D02*X56500D01*
X55000Y43500D02*X57000D01*
X55000Y47500D02*Y43500D01*
Y47500D02*X57000D01*
X58700D02*Y43500D01*
X58200Y47500D02*X60200D01*
X60700Y47000D01*
Y46000D01*
X60200Y45500D02*X60700Y46000D01*
X58700Y45500D02*X60200D01*
X61900Y47500D02*Y43500D01*
X63900D01*
X66900Y47500D02*Y43500D01*
Y47500D02*X68400Y46000D01*
X69900Y47500D01*
Y43500D01*
X71100Y46500D02*Y46000D01*
Y45000D02*Y43500D01*
X72600Y45500D02*X74100D01*
X72100Y45000D02*X72600Y45500D01*
X72100Y45000D02*Y44000D01*
X72600Y43500D01*
X74100D01*
X75300D02*X75800D01*
X78800Y47000D02*Y43500D01*
Y47000D02*X79300Y47500D01*
X80800D01*
X81300Y47000D01*
Y43500D01*
X78800Y45500D02*X81300D01*
X83000Y45000D02*Y43500D01*
Y45000D02*X83500Y45500D01*
X84000D01*
X84500Y45000D01*
Y43500D01*
Y45000D02*X85000Y45500D01*
X85500D01*
X86000Y45000D01*
Y43500D01*
X82500Y45500D02*X83000Y45000D01*
X87700D02*Y42000D01*
X87200Y45500D02*X87700Y45000D01*
X88200Y45500D01*
X89200D01*
X89700Y45000D01*
Y44000D01*
X89200Y43500D02*X89700Y44000D01*
X88200Y43500D02*X89200D01*
X87700Y44000D02*X88200Y43500D01*
X90900D02*X91400D01*
X94400Y47500D02*Y43500D01*
Y47500D02*X96400D01*
X94400Y45500D02*X95900D01*
X98100Y45000D02*Y43500D01*
Y45000D02*X98600Y45500D01*
X99600D01*
X97600D02*X98100Y45000D01*
X100800D02*Y44000D01*
Y45000D02*X101300Y45500D01*
X102300D01*
X102800Y45000D01*
Y44000D01*
X102300Y43500D02*X102800Y44000D01*
X101300Y43500D02*X102300D01*
X100800Y44000D02*X101300Y43500D01*
X104500Y45000D02*Y43500D01*
Y45000D02*X105000Y45500D01*
X105500D01*
X106000Y45000D01*
Y43500D01*
X104000Y45500D02*X104500Y45000D01*
X107700Y47500D02*Y44000D01*
X108200Y43500D01*
X107200Y46000D02*X108200D01*
X111500Y47500D02*Y43500D01*
X111000Y47500D02*X113000D01*
X113500Y47000D01*
Y46000D01*
X113000Y45500D02*X113500Y46000D01*
X111500Y45500D02*X113000D01*
X116200D02*X116700Y45000D01*
X115200Y45500D02*X116200D01*
X114700Y45000D02*X115200Y45500D01*
X114700Y45000D02*Y44000D01*
X115200Y43500D01*
X116700Y45500D02*Y44000D01*
X117200Y43500D01*
X115200D02*X116200D01*
X116700Y44000D01*
X118900Y45000D02*Y43500D01*
Y45000D02*X119400Y45500D01*
X119900D01*
X120400Y45000D01*
Y43500D01*
X118400Y45500D02*X118900Y45000D01*
X122100Y43500D02*X123600D01*
X121600Y44000D02*X122100Y43500D01*
X121600Y45000D02*Y44000D01*
Y45000D02*X122100Y45500D01*
X123100D01*
X123600Y45000D01*
X121600Y44500D02*X123600D01*
Y45000D02*Y44500D01*
X124800Y47500D02*Y44000D01*
X125300Y43500D01*
X128100Y44000D02*X128600Y43500D01*
X128100Y47000D02*Y46000D01*
Y47000D02*X128600Y47500D01*
X128100Y45000D02*X129600Y46500D01*
X128600Y43500D02*X129100D01*
X130100Y44500D01*
X128100Y46000D02*X130600Y43500D01*
X128600Y47500D02*X129100D01*
X129600Y47000D01*
Y46500D01*
X128100Y45000D02*Y44000D01*
X14500Y37000D02*X15000Y36500D01*
X14500Y40000D02*Y39000D01*
Y40000D02*X15000Y40500D01*
X14500Y38000D02*X16000Y39500D01*
X15000Y36500D02*X15500D01*
X16500Y37500D01*
X14500Y39000D02*X17000Y36500D01*
X15000Y40500D02*X15500D01*
X16000Y40000D01*
Y39500D01*
X14500Y38000D02*Y37000D01*
X20500Y40500D02*Y36500D01*
X20000Y40500D02*X22000D01*
X22500Y40000D01*
Y39000D01*
X22000Y38500D02*X22500Y39000D01*
X20500Y38500D02*X22000D01*
X23700Y38000D02*Y37000D01*
Y38000D02*X24200Y38500D01*
X25200D01*
X25700Y38000D01*
Y37000D01*
X25200Y36500D02*X25700Y37000D01*
X24200Y36500D02*X25200D01*
X23700Y37000D02*X24200Y36500D01*
X26900Y38500D02*Y37000D01*
X27400Y36500D01*
X27900D01*
X28400Y37000D01*
Y38500D02*Y37000D01*
X28900Y36500D01*
X29400D01*
X29900Y37000D01*
Y38500D02*Y37000D01*
X31600Y36500D02*X33100D01*
X31100Y37000D02*X31600Y36500D01*
X31100Y38000D02*Y37000D01*
Y38000D02*X31600Y38500D01*
X32600D01*
X33100Y38000D01*
X31100Y37500D02*X33100D01*
Y38000D02*Y37500D01*
X34800Y38000D02*Y36500D01*
Y38000D02*X35300Y38500D01*
X36300D01*
X34300D02*X34800Y38000D01*
X39800Y36500D02*X41300D01*
X39300Y37000D02*X39800Y36500D01*
X39300Y40000D02*Y37000D01*
Y40000D02*X39800Y40500D01*
X41300D01*
X42500Y38000D02*Y37000D01*
Y38000D02*X43000Y38500D01*
X44000D01*
X44500Y38000D01*
Y37000D01*
X44000Y36500D02*X44500Y37000D01*
X43000Y36500D02*X44000D01*
X42500Y37000D02*X43000Y36500D01*
X46200Y38000D02*Y36500D01*
Y38000D02*X46700Y38500D01*
X47200D01*
X47700Y38000D01*
Y36500D01*
X45700Y38500D02*X46200Y38000D01*
X49400D02*Y36500D01*
Y38000D02*X49900Y38500D01*
X50400D01*
X50900Y38000D01*
Y36500D01*
X48900Y38500D02*X49400Y38000D01*
X52600Y36500D02*X54100D01*
X52100Y37000D02*X52600Y36500D01*
X52100Y38000D02*Y37000D01*
Y38000D02*X52600Y38500D01*
X53600D01*
X54100Y38000D01*
X52100Y37500D02*X54100D01*
Y38000D02*Y37500D01*
X55800Y38500D02*X57300D01*
X55300Y38000D02*X55800Y38500D01*
X55300Y38000D02*Y37000D01*
X55800Y36500D01*
X57300D01*
X59000Y40500D02*Y37000D01*
X59500Y36500D01*
X58500Y39000D02*X59500D01*
X60500Y38000D02*Y37000D01*
Y38000D02*X61000Y38500D01*
X62000D01*
X62500Y38000D01*
Y37000D01*
X62000Y36500D02*X62500Y37000D01*
X61000Y36500D02*X62000D01*
X60500Y37000D02*X61000Y36500D01*
X64200Y38000D02*Y36500D01*
Y38000D02*X64700Y38500D01*
X65700D01*
X63700D02*X64200Y38000D01*
X66900Y37000D02*X67400Y36500D01*
X66900Y40000D02*X67400Y40500D01*
X66900Y40000D02*Y37000D01*
X69100Y36500D02*X70600D01*
X71100Y37000D01*
X70600Y37500D02*X71100Y37000D01*
X69100Y37500D02*X70600D01*
X68600Y38000D02*X69100Y37500D01*
X68600Y38000D02*X69100Y38500D01*
X70600D01*
X71100Y38000D01*
X68600Y37000D02*X69100Y36500D01*
X72300Y40500D02*X72800Y40000D01*
Y37000D01*
X72300Y36500D02*X72800Y37000D01*
X74000Y36500D02*X74500D01*
X312500Y188850D02*X254500D01*
X312500Y129150D02*Y150000D01*
X254500Y129150D02*X312500D01*
X254500Y188850D02*Y168000D01*
X312500Y188850D02*Y168000D01*
X254500Y129150D02*Y150000D01*
X312500Y188016D03*
X304000Y49300D02*Y69000D01*
X309000D02*Y81500D01*
Y69000D02*X304000D01*
X300500D02*X297500D01*
G54D95*X294000Y55600D02*Y57800D01*
X304000Y55600D02*Y57800D01*
X294000Y64600D02*Y66800D01*
X304000Y64600D02*Y66800D01*
Y73600D02*Y75800D01*
X294000Y73600D02*Y75800D01*
X304000Y83500D02*Y92000D01*
X294000Y83500D02*Y92000D01*
G54D94*X304000Y49300D02*X290500D01*
G54D95*X294000Y44600D02*Y47800D01*
X304000Y44600D02*Y47800D01*
G54D96*X305250Y47600D02*Y68700D01*
G54D94*X264000Y49300D02*Y69000D01*
X259000D02*Y81500D01*
X264000Y69000D02*X259000D01*
X270500D02*X267500D01*
X280500D02*X277500D01*
X290500D02*X287500D01*
G54D95*X284000Y55600D02*Y57800D01*
X274000Y55600D02*Y57800D01*
X264000Y55600D02*Y57800D01*
Y64600D02*Y66800D01*
X284000Y73600D02*Y75800D01*
X264000Y73600D02*Y75800D01*
X274000Y73600D02*Y75800D01*
Y64600D02*Y66800D01*
X284000Y64600D02*Y66800D01*
Y83500D02*Y92000D01*
X274000Y83500D02*Y92000D01*
X264000Y83500D02*Y92000D01*
X284000Y44600D02*Y47800D01*
X274000Y44600D02*Y47800D01*
X264000Y44600D02*Y47800D01*
G54D96*X262750Y47300D02*Y68700D01*
G54D94*X309000Y81500D02*X259000D01*
X304000Y49300D02*X264000D01*
X244000Y164595D02*Y154595D01*
Y134595D02*Y124595D01*
X247300Y154595D02*Y134595D01*
X240700D02*X247300D01*
X240700Y154595D02*Y134595D01*
Y154595D02*X247300D01*
G54D97*X174240Y92362D02*Y87638D01*
X166760Y92362D02*Y87638D01*
G54D94*X193200Y89000D02*Y39000D01*
X218200Y89000D02*Y39000D01*
X212200Y84000D02*X218200D01*
X212200D02*Y44000D01*
X218200D01*
X193200Y89000D02*X218200D01*
X193200Y39000D02*X218200D01*
X231000Y84000D02*Y74000D01*
Y54000D02*Y44000D01*
X234300Y74000D02*Y54000D01*
X227700D02*X234300D01*
X227700Y74000D02*Y54000D01*
Y74000D02*X234300D01*
X196000Y101000D02*X206000D01*
X226000D02*X236000D01*
X206000Y104300D02*X226000D01*
Y97700D01*
X206000D02*X226000D01*
X206000Y104300D02*Y97700D01*
X248000Y104000D02*Y94000D01*
Y74000D02*Y64000D01*
X251300Y94000D02*Y74000D01*
X244700D02*X251300D01*
X244700Y94000D02*Y74000D01*
Y94000D02*X251300D01*
X236000Y112500D02*X246000D01*
X266000D02*X276000D01*
X246000Y115800D02*X266000D01*
Y109200D01*
X246000D01*
Y115800D01*
X189500Y122000D02*X193500D01*
X191500Y124000D02*Y120000D01*
X217500Y122000D02*X221500D01*
X195500D02*G75*G03X195500Y122000I10000J0D01*G01*
G54D95*X53500Y122500D02*Y121500D01*
G54D94*X60000Y129500D02*Y179500D01*
X45000Y185000D02*Y186000D01*
X11000Y129500D02*X10000D01*
X60000D02*X59000D01*
X22000D02*X29500D01*
X40500D02*X48000D01*
X28500Y184000D02*Y186000D01*
X25000Y185000D02*Y186000D01*
X10000Y179500D02*X19500D01*
X30500D02*X39500D01*
X60000D02*X50500D01*
X19500Y180500D02*X16500D01*
Y186000D01*
X53500D01*
Y180500D01*
X50500D01*
X39500D02*X30500D01*
X41500Y184000D02*Y186000D01*
G54D95*X16500Y122500D02*Y121500D01*
X35000Y122500D02*Y121500D01*
G54D94*X10000Y179500D02*Y129500D01*
Y135500D02*X60000D01*
X35000Y175500D02*Y168000D01*
Y175500D02*X32500Y173000D01*
X37500D01*
X35000Y175500D01*
Y174500D02*X36500Y173000D01*
X33500D02*X35000Y174500D01*
X28000Y154500D02*Y150500D01*
X29000D01*
X30000Y151500D01*
Y153500D01*
X29000Y154500D01*
X28000D01*
X32000Y150500D02*Y154500D01*
X33500D01*
X34000Y154000D01*
Y153000D01*
X33500Y152500D01*
X32500D01*
X38000Y153500D02*X37000Y154500D01*
X36000D01*
X15000Y148500D02*X15500Y148000D01*
Y147000D01*
X15000Y146500D01*
X14000D01*
X13500Y142000D02*X15000D01*
X15500Y141500D01*
Y140500D01*
X15000Y140000D01*
X14000D01*
X15000Y146000D02*X15500Y144500D01*
X15000Y139500D02*X15500Y138000D01*
X56000Y177500D02*Y173500D01*
Y177500D02*X57500D01*
X58000Y177000D01*
Y176000D01*
X57500Y175500D01*
X56500D01*
X57500Y175000D02*X58000Y173500D01*
X12000Y177500D02*Y173500D01*
X14000D01*
X19500Y141500D02*Y140000D01*
X13500Y142000D02*Y138000D01*
X17500Y144500D02*X19500D01*
X18500D02*Y148500D01*
X17500Y147500D01*
X50500Y138000D02*X52500D01*
X17500D02*X19500D01*
X55000Y142000D02*X56000D01*
X54500Y141500D02*X55000Y142000D01*
X56000D02*X56500Y141500D01*
Y140000D01*
X54500Y138000D01*
X56500D01*
X50500Y148500D02*Y144500D01*
X52500D01*
X54500D02*X56500D01*
X55500D02*Y148500D01*
X54500Y147500D01*
X50500Y142000D02*Y138000D01*
X19500Y140000D02*X17500Y138000D01*
Y141500D02*X18000Y142000D01*
X19000D02*X19500Y141500D01*
X18000Y142000D02*X19000D01*
X13500Y148500D02*Y144500D01*
Y148500D02*X15000D01*
X36000Y154500D02*Y150500D01*
X37000D01*
X38000Y151500D01*
Y153500D01*
X40000Y154500D02*X42000D01*
X41000D02*Y150500D01*
X33500Y141000D02*Y139000D01*
Y147500D02*Y145500D01*
X34500Y148500D02*X33500Y147500D01*
Y145500D02*X34500Y144500D01*
X35000D02*X36000Y145500D01*
X34500Y144500D02*X35000D01*
Y148500D02*X34500D01*
X36000Y141000D02*X35000Y142000D01*
X34500D01*
X33500Y141000D01*
Y139000D02*X34500Y138000D01*
X35000D02*X36000Y139000D01*
X34500Y138000D02*X35000D01*
X36000Y147500D02*X35000Y148500D01*
G54D97*X36255Y97393D02*Y96607D01*
X30745Y97393D02*Y96607D01*
X19255Y97393D02*Y96607D01*
X13745Y97393D02*Y96607D01*
G54D94*X48000Y91000D02*Y72000D01*
X79000D01*
Y91000D01*
X48000D02*X61000D01*
X79000D02*X66000D01*
X61000D02*G75*G03X66000Y91000I2500J0D01*G01*
G54D97*X61138Y64240D02*X65862D01*
X61138Y56760D02*X65862D01*
G54D94*X129000Y91000D02*Y72000D01*
X160000D01*
Y91000D01*
X129000D02*X142000D01*
X160000D02*X147000D01*
X142000D02*G75*G03X147000Y91000I2500J0D01*G01*
X104500Y109500D02*X114500D01*
X134500D02*X144500D01*
X114500Y112800D02*X134500D01*
Y106200D01*
X114500D02*X134500D01*
X114500Y112800D02*Y106200D01*
X93425Y179000D02*X146574D01*
X93425Y134906D02*Y154237D01*
Y185890D02*X146575D01*
Y134906D02*X93425D01*
Y185890D02*Y174552D01*
X146575Y185890D02*Y174552D01*
Y134906D02*Y154237D01*
G54D97*X93240Y92457D02*Y87733D01*
X85760Y92457D02*Y87733D01*
X40240Y81362D02*Y76638D01*
X32760Y81362D02*Y76638D01*
X118240Y78362D02*Y73638D01*
X110760Y78362D02*Y73638D01*
X141138Y64240D02*X145862D01*
X141138Y56760D02*X145862D01*
G54D94*X256037Y123190D02*X257537D01*
X255537Y123690D02*X256037Y123190D01*
X255537Y126690D02*Y123690D01*
Y126690D02*X256037Y127190D01*
X257537D01*
X258737Y126690D02*Y123690D01*
Y126690D02*X259237Y127190D01*
X260237D01*
X260737Y126690D01*
Y123690D01*
X260237Y123190D02*X260737Y123690D01*
X259237Y123190D02*X260237D01*
X258737Y123690D02*X259237Y123190D01*
X261937Y127190D02*Y123190D01*
Y127190D02*Y126690D01*
X264437Y124190D01*
Y127190D02*Y123190D01*
X265637Y127190D02*Y123190D01*
Y127190D02*Y126690D01*
X268137Y124190D01*
Y127190D02*Y123190D01*
X269337Y126690D02*X269837Y127190D01*
X270837D01*
X271337Y126690D01*
Y123690D01*
X270837Y123190D02*X271337Y123690D01*
X269837Y123190D02*X270837D01*
X269337Y123690D02*X269837Y123190D01*
Y125190D02*X271337D01*
X276500Y97500D02*X278000D01*
X276000Y98000D02*X276500Y97500D01*
X276000Y101000D02*Y98000D01*
Y101000D02*X276500Y101500D01*
X278000D01*
X279200Y101000D02*Y98000D01*
Y101000D02*X279700Y101500D01*
X280700D01*
X281200Y101000D01*
Y98000D01*
X280700Y97500D02*X281200Y98000D01*
X279700Y97500D02*X280700D01*
X279200Y98000D02*X279700Y97500D01*
X282400Y101500D02*Y97500D01*
Y101500D02*Y101000D01*
X284900Y98500D01*
Y101500D02*Y97500D01*
X286100Y101500D02*Y97500D01*
Y101500D02*Y101000D01*
X288600Y98500D01*
Y101500D02*Y97500D01*
X290300D02*X291300D01*
X290800Y101500D02*Y97500D01*
X289800Y100500D02*X290800Y101500D01*
X253500Y121300D02*X255500D01*
X256000Y120800D01*
Y119800D01*
X255500Y119300D02*X256000Y119800D01*
X254000Y119300D02*X255500D01*
X254000Y121300D02*Y117300D01*
Y119300D02*X256000Y117300D01*
X257200Y119300D02*X259200Y121300D01*
X257200Y119300D02*X259700D01*
X259200Y121300D02*Y117300D01*
X249300Y147095D02*Y145595D01*
X249800Y147595D02*X249300Y147095D01*
X249800Y147595D02*X252800D01*
X253300Y147095D01*
Y145595D01*
X252800Y144395D02*X253300Y143895D01*
Y142395D01*
X252800Y141895D01*
X251800D02*X252800D01*
X249300Y144395D02*X251800Y141895D01*
X249300Y144395D02*Y141895D01*
X119650Y81650D02*Y80150D01*
X120150Y82150D02*X119650Y81650D01*
X120150Y82150D02*X123150D01*
X123650Y81650D01*
Y80150D01*
X119650Y78450D02*Y77450D01*
Y77950D02*X123650D01*
X122650Y78950D02*X123650Y77950D01*
X120150Y76250D02*X119650Y75750D01*
X120150Y76250D02*X123150D01*
X123650Y75750D01*
Y74750D01*
X123150Y74250D01*
X120150D02*X123150D01*
X119650Y74750D02*X120150Y74250D01*
X119650Y75750D02*Y74750D01*
X120650Y76250D02*X122650Y74250D01*
X140350Y66150D02*X141850D01*
X139850Y66650D02*X140350Y66150D01*
X139850Y69650D02*Y66650D01*
Y69650D02*X140350Y70150D01*
X141850D01*
X143550Y66150D02*X144550D01*
X144050Y70150D02*Y66150D01*
X143050Y69150D02*X144050Y70150D01*
X145750Y69650D02*X146250Y70150D01*
X147250D01*
X147750Y69650D01*
Y66650D01*
X147250Y66150D02*X147750Y66650D01*
X146250Y66150D02*X147250D01*
X145750Y66650D02*X146250Y66150D01*
Y68150D02*X147750D01*
X220000Y71500D02*Y70000D01*
X220500Y72000D02*X220000Y71500D01*
X220500Y72000D02*X223500D01*
X224000Y71500D01*
Y70000D01*
X220500Y68800D02*X223500D01*
X224000Y68300D01*
Y67300D01*
X223500Y66800D01*
X220500D02*X223500D01*
X220000Y67300D02*X220500Y66800D01*
X220000Y68300D02*Y67300D01*
X220500Y68800D02*X220000Y68300D01*
Y65600D02*X224000D01*
X223500D02*X224000D01*
X223500D02*X221000Y63100D01*
X220000D02*X224000D01*
X220000Y61900D02*X224000D01*
X223500D02*X224000D01*
X223500D02*X221000Y59400D01*
X220000D02*X224000D01*
X222000Y58200D02*X224000Y56200D01*
X222000Y58200D02*Y55700D01*
X220000Y56200D02*X224000D01*
X235800Y67500D02*Y66000D01*
X236300Y68000D02*X235800Y67500D01*
X236300Y68000D02*X239300D01*
X239800Y67500D01*
Y66000D01*
X235800Y64300D02*Y63300D01*
Y63800D02*X239800D01*
X238800Y64800D02*X239800Y63800D01*
X239300Y62100D02*X239800Y61600D01*
Y60100D01*
X239300Y59600D01*
X238300D02*X239300D01*
X235800Y62100D02*X238300Y59600D01*
X235800Y62100D02*Y59600D01*
X252700Y87500D02*Y86000D01*
X253200Y88000D02*X252700Y87500D01*
X253200Y88000D02*X256200D01*
X256700Y87500D01*
Y86000D01*
X252700Y84300D02*Y83300D01*
Y83800D02*X256700D01*
X255700Y84800D02*X256700Y83800D01*
X252700Y81600D02*Y80600D01*
Y81100D02*X256700D01*
X255700Y82100D02*X256700Y81100D01*
X213500Y110300D02*X215500D01*
X216000Y109800D01*
Y108800D01*
X215500Y108300D02*X216000Y108800D01*
X214000Y108300D02*X215500D01*
X214000Y110300D02*Y106300D01*
Y108300D02*X216000Y106300D01*
X217200Y109800D02*X217700Y110300D01*
X218700D01*
X219200Y109800D01*
Y106800D01*
X218700Y106300D02*X219200Y106800D01*
X217700Y106300D02*X218700D01*
X217200Y106800D02*X217700Y106300D01*
Y108300D02*X219200D01*
X203500Y134000D02*X205000D01*
X203000Y134500D02*X203500Y134000D01*
X203000Y137500D02*Y134500D01*
Y137500D02*X203500Y138000D01*
X205000D01*
X206200D02*X208200D01*
X206200D02*Y136000D01*
X206700Y136500D01*
X207700D01*
X208200Y136000D01*
Y134500D01*
X207700Y134000D02*X208200Y134500D01*
X206700Y134000D02*X207700D01*
X206200Y134500D02*X206700Y134000D01*
X60500Y124000D02*X61000Y123500D01*
X59000Y124000D02*X60500D01*
X58500Y123500D02*X59000Y124000D01*
X58500Y123500D02*Y122500D01*
X59000Y122000D01*
X60500D01*
X61000Y121500D01*
Y120500D01*
X60500Y120000D02*X61000Y120500D01*
X59000Y120000D02*X60500D01*
X58500Y120500D02*X59000Y120000D01*
X62700D02*X63700D01*
X63200Y124000D02*Y120000D01*
X62200Y123000D02*X63200Y124000D01*
X141500Y97000D02*Y93500D01*
X142000Y93000D01*
X143000D01*
X143500Y93500D01*
Y97000D02*Y93500D01*
X144700Y96500D02*X145200Y97000D01*
X146700D01*
X147200Y96500D01*
Y95500D01*
X144700Y93000D02*X147200Y95500D01*
X144700Y93000D02*X147200D01*
X123000Y114800D02*X124500D01*
X122500Y115300D02*X123000Y114800D01*
X122500Y118300D02*Y115300D01*
Y118300D02*X123000Y118800D01*
X124500D01*
X126200Y114800D02*X127200D01*
X126700Y118800D02*Y114800D01*
X125700Y117800D02*X126700Y118800D01*
X41650Y99650D02*Y97650D01*
X41150Y97150D01*
X40150D02*X41150D01*
X39650Y97650D02*X40150Y97150D01*
X39650Y99150D02*Y97650D01*
X37650Y99150D02*X41650D01*
X39650D02*X37650Y97150D01*
Y95450D02*Y94450D01*
Y94950D02*X41650D01*
X40650Y95950D02*X41650Y94950D01*
X24650Y100150D02*Y98150D01*
X24150Y97650D01*
X23150D02*X24150D01*
X22650Y98150D02*X23150Y97650D01*
X22650Y99650D02*Y98150D01*
X20650Y99650D02*X24650D01*
X22650D02*X20650Y97650D01*
X24150Y96450D02*X24650Y95950D01*
Y94450D01*
X24150Y93950D01*
X23150D02*X24150D01*
X20650Y96450D02*X23150Y93950D01*
X20650Y96450D02*Y93950D01*
X61000Y97000D02*Y93500D01*
X61500Y93000D01*
X62500D01*
X63000Y93500D01*
Y97000D02*Y93500D01*
X64700Y93000D02*X65700D01*
X65200Y97000D02*Y93000D01*
X64200Y96000D02*X65200Y97000D01*
X93634Y128252D02*X95134D01*
X93134Y128752D02*X93634Y128252D01*
X93134Y131752D02*Y128752D01*
Y131752D02*X93634Y132252D01*
X95134D01*
X96334Y131752D02*Y128752D01*
Y131752D02*X96834Y132252D01*
X97834D01*
X98334Y131752D01*
Y128752D01*
X97834Y128252D02*X98334Y128752D01*
X96834Y128252D02*X97834D01*
X96334Y128752D02*X96834Y128252D01*
X99534Y132252D02*Y128252D01*
Y132252D02*Y131752D01*
X102034Y129252D01*
Y132252D02*Y128252D01*
X103234Y132252D02*Y128252D01*
Y132252D02*Y131752D01*
X105734Y129252D01*
Y132252D02*Y128252D01*
X106934Y131752D02*X107434Y132252D01*
X108934D01*
X109434Y131752D01*
Y130752D01*
X106934Y128252D02*X109434Y130752D01*
X106934Y128252D02*X109434D01*
X94650Y94745D02*Y93245D01*
X95150Y95245D02*X94650Y94745D01*
X95150Y95245D02*X98150D01*
X98650Y94745D01*
Y93245D01*
X94650Y92045D02*X97150Y89545D01*
X98650D01*
Y92045D02*Y89545D01*
X175650Y91150D02*Y89650D01*
X176150Y91650D02*X175650Y91150D01*
X176150Y91650D02*X179150D01*
X179650Y91150D01*
Y89650D01*
X175650Y88450D02*X177650Y86450D01*
X179150D01*
X179650Y86950D02*X179150Y86450D01*
X179650Y87950D02*Y86950D01*
X179150Y88450D02*X179650Y87950D01*
X178150Y88450D02*X179150D01*
X178150D02*X177650Y87950D01*
Y86450D01*
X41650Y81150D02*Y79650D01*
X42150Y81650D02*X41650Y81150D01*
X42150Y81650D02*X45150D01*
X45650Y81150D01*
Y79650D01*
X42150Y78450D02*X41650Y77950D01*
X42150Y78450D02*X43150D01*
X43650Y77950D01*
Y76950D01*
X43150Y76450D01*
X42150D02*X43150D01*
X41650Y76950D02*X42150Y76450D01*
X41650Y77950D02*Y76950D01*
X44150Y78450D02*X43650Y77950D01*
X44150Y78450D02*X45150D01*
X45650Y77950D01*
Y76950D01*
X45150Y76450D01*
X44150D02*X45150D01*
X43650Y76950D02*X44150Y76450D01*
X59850Y66150D02*X61350D01*
X59350Y66650D02*X59850Y66150D01*
X59350Y69650D02*Y66650D01*
Y69650D02*X59850Y70150D01*
X61350D01*
X63050Y66150D02*X64050D01*
X63550Y70150D02*Y66150D01*
X62550Y69150D02*X63550Y70150D01*
X65250Y68150D02*X67250Y70150D01*
X65250Y68150D02*X67750D01*
X67250Y70150D02*Y66150D01*
M02*
