G04 start of page 3 for group 1 idx 1 *
G04 Title: (unknown), solder *
G04 Creator: pcb 20140316 *
G04 CreationDate: Wed 09 Mar 2016 04:49:46 PM GMT UTC *
G04 For: fosse *
G04 Format: Gerber/RS-274X *
G04 PCB-Dimensions (mil): 3665.00 1935.00 *
G04 PCB-Coordinate-Origin: lower left *
%MOIN*%
%FSLAX25Y25*%
%LNBOTTOM*%
%ADD59C,0.0358*%
%ADD58C,0.0925*%
%ADD57C,0.0710*%
%ADD56C,0.0650*%
%ADD55C,0.0300*%
%ADD54C,0.0420*%
%ADD53C,0.0320*%
%ADD52C,0.0790*%
%ADD51C,0.0350*%
%ADD50C,0.0360*%
%ADD49R,0.0512X0.0512*%
%ADD48R,0.0600X0.0600*%
%ADD47R,0.0197X0.0197*%
%ADD46C,0.0591*%
%ADD45C,0.1575*%
%ADD44C,0.1050*%
%ADD43C,0.0550*%
%ADD42C,0.0600*%
%ADD41C,0.0800*%
%ADD40C,0.2000*%
%ADD39C,0.0090*%
%ADD38C,0.0100*%
%ADD37C,0.0400*%
%ADD36C,0.0200*%
%ADD35C,0.0250*%
%ADD34C,0.0001*%
G54D34*G36*
X238500Y168500D02*X248500D01*
Y160000D01*
X238500D01*
Y168500D01*
G37*
G36*
X242500Y131000D02*X245500D01*
Y126000D01*
X242500D01*
Y131000D01*
G37*
G36*
X184500Y134000D02*Y139000D01*
X188500D01*
Y134000D01*
X184500D01*
G37*
G36*
X204000Y176000D02*X240000D01*
X247231Y168769D01*
X247215Y168776D01*
X246985Y168831D01*
X246750Y168845D01*
X241015Y168831D01*
X240785Y168776D01*
X240567Y168686D01*
X240366Y168562D01*
X240186Y168409D01*
X240033Y168229D01*
X239909Y168028D01*
X239819Y167810D01*
X239764Y167580D01*
X239750Y167345D01*
X239764Y161610D01*
X239819Y161380D01*
X239909Y161162D01*
X240033Y160960D01*
X240186Y160781D01*
X240366Y160628D01*
X240567Y160504D01*
X240785Y160414D01*
X241015Y160359D01*
X241250Y160345D01*
X246985Y160359D01*
X247215Y160414D01*
X247433Y160504D01*
X247634Y160628D01*
X247814Y160781D01*
X247967Y160960D01*
X248091Y161162D01*
X248181Y161380D01*
X248236Y161610D01*
X248250Y161845D01*
X248236Y167580D01*
X248181Y167810D01*
X248174Y167826D01*
X250000Y166000D01*
Y142000D01*
X204000D01*
Y143351D01*
X207897Y143355D01*
X208050Y143392D01*
X208195Y143452D01*
X208330Y143534D01*
X208449Y143637D01*
X208552Y143756D01*
X208634Y143891D01*
X208694Y144036D01*
X208731Y144189D01*
X208740Y144346D01*
X208731Y149621D01*
X208694Y149774D01*
X208634Y149919D01*
X208552Y150054D01*
X208449Y150173D01*
X208330Y150276D01*
X208195Y150358D01*
X208050Y150418D01*
X207897Y150455D01*
X207740Y150464D01*
X204000Y150459D01*
Y176000D01*
G37*
G36*
X191823Y144142D02*X193965Y142000D01*
X189000D01*
X185500Y145500D01*
Y150500D01*
X184000Y152000D01*
X163730D01*
Y154714D01*
X163798Y154728D01*
X163871Y154755D01*
X163940Y154794D01*
X164002Y154843D01*
X164055Y154901D01*
X164098Y154966D01*
X164130Y155038D01*
X164206Y155271D01*
X164260Y155511D01*
X164292Y155755D01*
X164303Y156000D01*
X164292Y156245D01*
X164260Y156489D01*
X164206Y156729D01*
X164132Y156963D01*
X164100Y157035D01*
X164056Y157100D01*
X164003Y157159D01*
X163941Y157208D01*
X163872Y157246D01*
X163798Y157274D01*
X163730Y157288D01*
Y176000D01*
X204000D01*
Y150459D01*
X200103Y150455D01*
X199950Y150418D01*
X199805Y150358D01*
X199670Y150276D01*
X199551Y150173D01*
X199448Y150054D01*
X199366Y149919D01*
X199306Y149774D01*
X199269Y149621D01*
X199260Y149464D01*
X199269Y144189D01*
X199306Y144036D01*
X199366Y143891D01*
X199448Y143756D01*
X199551Y143637D01*
X199670Y143534D01*
X199805Y143452D01*
X199950Y143392D01*
X200103Y143355D01*
X200260Y143346D01*
X204000Y143351D01*
Y142000D01*
X193965D01*
X191823Y144142D01*
G37*
G36*
X163730Y152000D02*X161501D01*
Y153197D01*
X161745Y153208D01*
X161989Y153240D01*
X162229Y153294D01*
X162463Y153368D01*
X162535Y153400D01*
X162600Y153444D01*
X162659Y153497D01*
X162708Y153559D01*
X162746Y153628D01*
X162774Y153702D01*
X162790Y153779D01*
X162793Y153858D01*
X162784Y153937D01*
X162763Y154013D01*
X162730Y154085D01*
X162686Y154150D01*
X162633Y154209D01*
X162571Y154258D01*
X162502Y154296D01*
X162428Y154324D01*
X162351Y154340D01*
X162272Y154343D01*
X162193Y154334D01*
X162118Y154311D01*
X161968Y154262D01*
X161814Y154228D01*
X161658Y154207D01*
X161501Y154200D01*
Y157800D01*
X161658Y157793D01*
X161814Y157772D01*
X161968Y157738D01*
X162118Y157690D01*
X162194Y157668D01*
X162272Y157659D01*
X162350Y157662D01*
X162427Y157678D01*
X162501Y157705D01*
X162570Y157744D01*
X162631Y157793D01*
X162685Y157851D01*
X162728Y157916D01*
X162761Y157988D01*
X162782Y158064D01*
X162791Y158142D01*
X162788Y158220D01*
X162772Y158298D01*
X162745Y158371D01*
X162706Y158440D01*
X162657Y158502D01*
X162599Y158555D01*
X162534Y158598D01*
X162462Y158630D01*
X162229Y158706D01*
X161989Y158760D01*
X161745Y158792D01*
X161501Y158803D01*
Y176000D01*
X163730D01*
Y157288D01*
X163721Y157290D01*
X163642Y157293D01*
X163563Y157284D01*
X163487Y157263D01*
X163415Y157230D01*
X163350Y157186D01*
X163291Y157133D01*
X163242Y157071D01*
X163204Y157002D01*
X163176Y156928D01*
X163160Y156851D01*
X163157Y156772D01*
X163166Y156693D01*
X163189Y156618D01*
X163238Y156468D01*
X163272Y156314D01*
X163293Y156158D01*
X163300Y156000D01*
X163293Y155842D01*
X163272Y155686D01*
X163238Y155532D01*
X163190Y155382D01*
X163168Y155306D01*
X163159Y155228D01*
X163162Y155150D01*
X163178Y155073D01*
X163205Y154999D01*
X163244Y154930D01*
X163293Y154869D01*
X163351Y154815D01*
X163416Y154772D01*
X163488Y154739D01*
X163564Y154718D01*
X163642Y154709D01*
X163720Y154712D01*
X163730Y154714D01*
Y152000D01*
G37*
G36*
X161501D02*X159270D01*
Y154712D01*
X159279Y154710D01*
X159358Y154707D01*
X159437Y154716D01*
X159513Y154737D01*
X159585Y154770D01*
X159650Y154814D01*
X159709Y154867D01*
X159758Y154929D01*
X159796Y154998D01*
X159824Y155072D01*
X159840Y155149D01*
X159843Y155228D01*
X159834Y155307D01*
X159811Y155382D01*
X159762Y155532D01*
X159728Y155686D01*
X159707Y155842D01*
X159700Y156000D01*
X159707Y156158D01*
X159728Y156314D01*
X159762Y156468D01*
X159810Y156618D01*
X159832Y156694D01*
X159841Y156772D01*
X159838Y156850D01*
X159822Y156927D01*
X159795Y157001D01*
X159756Y157070D01*
X159707Y157131D01*
X159649Y157185D01*
X159584Y157228D01*
X159512Y157261D01*
X159436Y157282D01*
X159358Y157291D01*
X159280Y157288D01*
X159270Y157286D01*
Y176000D01*
X161501D01*
Y158803D01*
X161500Y158803D01*
X161255Y158792D01*
X161011Y158760D01*
X160771Y158706D01*
X160537Y158632D01*
X160465Y158600D01*
X160400Y158556D01*
X160341Y158503D01*
X160292Y158441D01*
X160254Y158372D01*
X160226Y158298D01*
X160210Y158221D01*
X160207Y158142D01*
X160216Y158063D01*
X160237Y157987D01*
X160270Y157915D01*
X160314Y157850D01*
X160367Y157791D01*
X160429Y157742D01*
X160498Y157704D01*
X160572Y157676D01*
X160649Y157660D01*
X160728Y157657D01*
X160807Y157666D01*
X160882Y157689D01*
X161032Y157738D01*
X161186Y157772D01*
X161342Y157793D01*
X161500Y157800D01*
X161501Y157800D01*
Y154200D01*
X161500Y154200D01*
X161342Y154207D01*
X161186Y154228D01*
X161032Y154262D01*
X160882Y154310D01*
X160806Y154332D01*
X160728Y154341D01*
X160650Y154338D01*
X160573Y154322D01*
X160499Y154295D01*
X160430Y154256D01*
X160369Y154207D01*
X160315Y154149D01*
X160272Y154084D01*
X160239Y154012D01*
X160218Y153936D01*
X160209Y153858D01*
X160212Y153780D01*
X160228Y153702D01*
X160255Y153629D01*
X160294Y153560D01*
X160343Y153498D01*
X160401Y153445D01*
X160466Y153402D01*
X160538Y153370D01*
X160771Y153294D01*
X161011Y153240D01*
X161255Y153208D01*
X161500Y153197D01*
X161501Y153197D01*
Y152000D01*
G37*
G36*
X159270D02*X157500D01*
Y176000D01*
X159270D01*
Y157286D01*
X159202Y157272D01*
X159129Y157245D01*
X159060Y157206D01*
X158998Y157157D01*
X158945Y157099D01*
X158902Y157034D01*
X158870Y156962D01*
X158794Y156729D01*
X158740Y156489D01*
X158708Y156245D01*
X158697Y156000D01*
X158708Y155755D01*
X158740Y155511D01*
X158794Y155271D01*
X158868Y155037D01*
X158900Y154965D01*
X158944Y154900D01*
X158997Y154841D01*
X159059Y154792D01*
X159128Y154754D01*
X159202Y154726D01*
X159270Y154712D01*
Y152000D01*
G37*
G36*
X199000Y151000D02*X209000D01*
Y142500D01*
X199000D01*
Y151000D01*
G37*
G36*
X243993Y140500D02*X248500D01*
Y120000D01*
X243993Y115493D01*
Y120332D01*
X244000Y120332D01*
X244667Y120384D01*
X245317Y120540D01*
X245935Y120796D01*
X246506Y121146D01*
X247014Y121580D01*
X247449Y122089D01*
X247798Y122659D01*
X248054Y123278D01*
X248211Y123928D01*
X248250Y124595D01*
X248211Y125262D01*
X248054Y125912D01*
X247798Y126530D01*
X247449Y127101D01*
X247014Y127609D01*
X246506Y128044D01*
X245935Y128393D01*
X245317Y128649D01*
X244667Y128806D01*
X244000Y128858D01*
X243993Y128857D01*
Y140500D01*
G37*
G36*
X210493D02*X243993D01*
Y128857D01*
X243333Y128806D01*
X242683Y128649D01*
X242065Y128393D01*
X241494Y128044D01*
X240986Y127609D01*
X240551Y127101D01*
X240202Y126530D01*
X239946Y125912D01*
X239789Y125262D01*
X239737Y124595D01*
X239789Y123928D01*
X239946Y123278D01*
X240202Y122659D01*
X240551Y122089D01*
X240986Y121580D01*
X241494Y121146D01*
X242065Y120796D01*
X242683Y120540D01*
X243333Y120384D01*
X243993Y120332D01*
Y115493D01*
X240245Y111745D01*
X240236Y115485D01*
X240181Y115715D01*
X240091Y115933D01*
X239967Y116134D01*
X239814Y116314D01*
X239634Y116467D01*
X239433Y116591D01*
X239215Y116681D01*
X238985Y116736D01*
X238750Y116750D01*
X233015Y116736D01*
X232785Y116681D01*
X232567Y116591D01*
X232366Y116467D01*
X232186Y116314D01*
X232033Y116134D01*
X231909Y115933D01*
X231819Y115715D01*
X231764Y115485D01*
X231750Y115250D01*
X231764Y109515D01*
X231819Y109285D01*
X231909Y109067D01*
X232033Y108866D01*
X232186Y108686D01*
X232366Y108533D01*
X232567Y108409D01*
X232785Y108319D01*
X233015Y108264D01*
X233250Y108250D01*
X236758Y108258D01*
X233500Y105000D01*
X210493D01*
Y117487D01*
X210500Y117486D01*
X211206Y117542D01*
X211895Y117707D01*
X212549Y117978D01*
X213153Y118348D01*
X213692Y118808D01*
X214152Y119347D01*
X214522Y119951D01*
X214793Y120605D01*
X214958Y121294D01*
X215000Y122000D01*
X214958Y122706D01*
X214793Y123395D01*
X214522Y124049D01*
X214152Y124653D01*
X213692Y125192D01*
X213153Y125652D01*
X212549Y126022D01*
X211895Y126293D01*
X211206Y126458D01*
X210500Y126514D01*
X210493Y126513D01*
Y140500D01*
G37*
G36*
X204000D02*X210493D01*
Y126513D01*
X209794Y126458D01*
X209105Y126293D01*
X208451Y126022D01*
X207847Y125652D01*
X207308Y125192D01*
X206848Y124653D01*
X206478Y124049D01*
X206207Y123395D01*
X206042Y122706D01*
X205986Y122000D01*
X206042Y121294D01*
X206207Y120605D01*
X206478Y119951D01*
X206848Y119347D01*
X207308Y118808D01*
X207847Y118348D01*
X208451Y117978D01*
X209105Y117707D01*
X209794Y117542D01*
X210493Y117487D01*
Y105000D01*
X204000D01*
Y117584D01*
X204183Y117659D01*
X204384Y117783D01*
X204564Y117936D01*
X204717Y118116D01*
X204841Y118317D01*
X204931Y118535D01*
X204986Y118765D01*
X205000Y119000D01*
X204986Y125235D01*
X204931Y125465D01*
X204841Y125683D01*
X204717Y125884D01*
X204564Y126064D01*
X204384Y126217D01*
X204183Y126341D01*
X204000Y126416D01*
Y131541D01*
X207897Y131545D01*
X208050Y131582D01*
X208195Y131642D01*
X208330Y131724D01*
X208449Y131827D01*
X208552Y131946D01*
X208634Y132081D01*
X208694Y132226D01*
X208731Y132379D01*
X208740Y132536D01*
X208731Y137811D01*
X208694Y137964D01*
X208634Y138109D01*
X208552Y138244D01*
X208449Y138363D01*
X208330Y138466D01*
X208195Y138548D01*
X208050Y138608D01*
X207897Y138645D01*
X207740Y138654D01*
X204000Y138649D01*
Y140500D01*
G37*
G36*
X187484Y138452D02*X185422Y138446D01*
X185330Y138424D01*
X185243Y138388D01*
X185162Y138339D01*
X185090Y138278D01*
X185029Y138206D01*
X184980Y138125D01*
X184944Y138038D01*
X184922Y137946D01*
X184916Y137852D01*
X184918Y136928D01*
X184906Y136975D01*
X184771Y137302D01*
X184586Y137604D01*
X184356Y137873D01*
X184339Y137888D01*
X184338Y137946D01*
X184316Y138038D01*
X184280Y138125D01*
X184231Y138206D01*
X184170Y138278D01*
X184098Y138339D01*
X184017Y138388D01*
X183930Y138424D01*
X183838Y138446D01*
X183744Y138452D01*
X183345Y138451D01*
X183113Y138507D01*
X182760Y138528D01*
X179366D01*
X179278Y138534D01*
X178924Y138507D01*
X178580Y138424D01*
X178253Y138289D01*
X177951Y138103D01*
X177951Y138103D01*
X177752Y137933D01*
X177628Y137963D01*
X177011Y138011D01*
X179500Y140500D01*
X204000D01*
Y138649D01*
X200103Y138645D01*
X199950Y138608D01*
X199805Y138548D01*
X199670Y138466D01*
X199551Y138363D01*
X199448Y138244D01*
X199366Y138109D01*
X199306Y137964D01*
X199269Y137811D01*
X199260Y137654D01*
X199269Y132379D01*
X199306Y132226D01*
X199366Y132081D01*
X199448Y131946D01*
X199551Y131827D01*
X199670Y131724D01*
X199805Y131642D01*
X199950Y131582D01*
X200103Y131545D01*
X200260Y131536D01*
X204000Y131541D01*
Y126416D01*
X203965Y126431D01*
X203735Y126486D01*
X203500Y126500D01*
X197265Y126486D01*
X197035Y126431D01*
X196817Y126341D01*
X196616Y126217D01*
X196436Y126064D01*
X196283Y125884D01*
X196159Y125683D01*
X196069Y125465D01*
X196014Y125235D01*
X196000Y125000D01*
X196014Y118765D01*
X196069Y118535D01*
X196159Y118317D01*
X196283Y118116D01*
X196436Y117936D01*
X196616Y117783D01*
X196817Y117659D01*
X197035Y117569D01*
X197265Y117514D01*
X197500Y117500D01*
X203735Y117514D01*
X203965Y117569D01*
X204000Y117584D01*
Y105000D01*
X199581D01*
X199433Y105091D01*
X199215Y105181D01*
X198985Y105236D01*
X198750Y105250D01*
X193015Y105236D01*
X192785Y105181D01*
X192567Y105091D01*
X192419Y105000D01*
X166399D01*
Y122764D01*
X169121Y122769D01*
X169274Y122806D01*
X169419Y122866D01*
X169554Y122948D01*
X169673Y123051D01*
X169776Y123170D01*
X169858Y123305D01*
X169918Y123450D01*
X169955Y123603D01*
X169964Y123760D01*
X169962Y125648D01*
X169980Y125678D01*
X170221Y126260D01*
X170368Y126872D01*
X170405Y127500D01*
X170368Y128128D01*
X170221Y128740D01*
X169980Y129322D01*
X169957Y129359D01*
X169955Y131397D01*
X169918Y131550D01*
X169858Y131695D01*
X169776Y131830D01*
X169673Y131949D01*
X169554Y132052D01*
X169419Y132134D01*
X169274Y132194D01*
X169121Y132231D01*
X168964Y132240D01*
X166399Y132235D01*
Y137000D01*
X174354D01*
X174163Y136837D01*
X173754Y136358D01*
X173425Y135822D01*
X173184Y135240D01*
X173037Y134628D01*
X172988Y134000D01*
X173037Y133372D01*
X173184Y132760D01*
X173425Y132178D01*
X173754Y131642D01*
X174163Y131163D01*
X174642Y130754D01*
X175178Y130425D01*
X175760Y130184D01*
X176372Y130037D01*
X177000Y129988D01*
X177628Y130037D01*
X178240Y130184D01*
X178822Y130425D01*
X179358Y130754D01*
X179837Y131163D01*
X180246Y131642D01*
X180575Y132178D01*
X180816Y132760D01*
X180963Y133372D01*
X181000Y134000D01*
X180998Y134028D01*
X182760D01*
X183113Y134048D01*
X183358Y134107D01*
X183838Y134109D01*
X183930Y134131D01*
X184017Y134167D01*
X184098Y134216D01*
X184170Y134277D01*
X184231Y134349D01*
X184280Y134430D01*
X184316Y134517D01*
X184338Y134609D01*
X184342Y134670D01*
X184356Y134682D01*
X184586Y134951D01*
X184771Y135253D01*
X184906Y135580D01*
X184920Y135636D01*
X184922Y134609D01*
X184944Y134517D01*
X184980Y134430D01*
X185029Y134349D01*
X185090Y134277D01*
X185162Y134216D01*
X185243Y134167D01*
X185330Y134131D01*
X185422Y134109D01*
X185516Y134103D01*
X187578Y134109D01*
X187670Y134131D01*
X187757Y134167D01*
X187838Y134216D01*
X187910Y134277D01*
X187971Y134349D01*
X188020Y134430D01*
X188056Y134517D01*
X188078Y134609D01*
X188084Y134703D01*
X188082Y135627D01*
X188094Y135580D01*
X188229Y135253D01*
X188414Y134951D01*
X188644Y134682D01*
X188661Y134667D01*
X188662Y134609D01*
X188684Y134517D01*
X188720Y134430D01*
X188769Y134349D01*
X188830Y134277D01*
X188902Y134216D01*
X188983Y134167D01*
X189070Y134131D01*
X189162Y134109D01*
X189256Y134103D01*
X189655Y134104D01*
X189732Y134086D01*
X191067Y132751D01*
X191037Y132628D01*
X190988Y132000D01*
X191037Y131372D01*
X191184Y130760D01*
X191425Y130178D01*
X191754Y129642D01*
X192163Y129163D01*
X192642Y128754D01*
X193178Y128425D01*
X193760Y128184D01*
X194372Y128037D01*
X195000Y127988D01*
X195628Y128037D01*
X196240Y128184D01*
X196822Y128425D01*
X197358Y128754D01*
X197837Y129163D01*
X198246Y129642D01*
X198575Y130178D01*
X198816Y130760D01*
X198963Y131372D01*
X199000Y132000D01*
X198963Y132628D01*
X198816Y133240D01*
X198575Y133822D01*
X198246Y134358D01*
X197837Y134837D01*
X197358Y135246D01*
X196822Y135575D01*
X196240Y135816D01*
X195628Y135963D01*
X195000Y136012D01*
X194372Y135963D01*
X194249Y135933D01*
X192376Y137806D01*
X192318Y137873D01*
X192049Y138103D01*
X191747Y138289D01*
X191420Y138424D01*
X191076Y138507D01*
X191075Y138507D01*
X190722Y138534D01*
X190634Y138528D01*
X190240D01*
X189887Y138507D01*
X189641Y138448D01*
X189162Y138446D01*
X189070Y138424D01*
X188983Y138388D01*
X188902Y138339D01*
X188830Y138278D01*
X188769Y138206D01*
X188720Y138125D01*
X188684Y138038D01*
X188662Y137946D01*
X188658Y137885D01*
X188644Y137873D01*
X188414Y137604D01*
X188229Y137302D01*
X188094Y136975D01*
X188080Y136919D01*
X188078Y137946D01*
X188056Y138038D01*
X188020Y138125D01*
X187971Y138206D01*
X187910Y138278D01*
X187838Y138339D01*
X187757Y138388D01*
X187670Y138424D01*
X187578Y138446D01*
X187484Y138452D01*
G37*
G36*
X166399Y105000D02*X156500D01*
X154595Y106905D01*
Y122764D01*
X157311Y122769D01*
X157464Y122806D01*
X157609Y122866D01*
X157744Y122948D01*
X157863Y123051D01*
X157966Y123170D01*
X158048Y123305D01*
X158108Y123450D01*
X158145Y123603D01*
X158154Y123760D01*
X158145Y131397D01*
X158108Y131550D01*
X158048Y131695D01*
X157966Y131830D01*
X157863Y131949D01*
X157744Y132052D01*
X157609Y132134D01*
X157464Y132194D01*
X157311Y132231D01*
X157154Y132240D01*
X154595Y132236D01*
Y137000D01*
X166399D01*
Y132235D01*
X163689Y132231D01*
X163536Y132194D01*
X163391Y132134D01*
X163256Y132052D01*
X163137Y131949D01*
X163034Y131830D01*
X162952Y131695D01*
X162892Y131550D01*
X162855Y131397D01*
X162846Y131240D01*
X162848Y129351D01*
X162830Y129322D01*
X162589Y128740D01*
X162442Y128128D01*
X162393Y127500D01*
X162442Y126872D01*
X162589Y126260D01*
X162830Y125678D01*
X162853Y125641D01*
X162855Y123603D01*
X162892Y123450D01*
X162952Y123305D01*
X163034Y123170D01*
X163137Y123051D01*
X163256Y122948D01*
X163391Y122866D01*
X163536Y122806D01*
X163689Y122769D01*
X163846Y122760D01*
X166399Y122764D01*
Y105000D01*
G37*
G36*
X154595Y106905D02*X145000Y116500D01*
Y137000D01*
X154595D01*
Y132236D01*
X151879Y132231D01*
X151726Y132194D01*
X151581Y132134D01*
X151446Y132052D01*
X151327Y131949D01*
X151224Y131830D01*
X151142Y131695D01*
X151082Y131550D01*
X151045Y131397D01*
X151036Y131240D01*
X151045Y123603D01*
X151082Y123450D01*
X151142Y123305D01*
X151224Y123170D01*
X151327Y123051D01*
X151446Y122948D01*
X151581Y122866D01*
X151726Y122806D01*
X151879Y122769D01*
X152036Y122760D01*
X154595Y122764D01*
Y106905D01*
G37*
G36*
X204000Y140500D02*X207000D01*
Y135500D01*
X204000D01*
Y140500D01*
G37*
G36*
Y49417D02*X204450Y49230D01*
X205215Y49046D01*
X205804Y49000D01*
X205215Y48954D01*
X204450Y48770D01*
X204000Y48583D01*
Y49417D01*
G37*
G36*
Y59417D02*X204450Y59230D01*
X205215Y59046D01*
X205804Y59000D01*
X205215Y58954D01*
X204450Y58770D01*
X204000Y58583D01*
Y59417D01*
G37*
G36*
Y69417D02*X204450Y69230D01*
X205215Y69046D01*
X205804Y69000D01*
X205215Y68954D01*
X204450Y68770D01*
X204000Y68583D01*
Y69417D01*
G37*
G36*
Y79002D02*X205860Y79004D01*
X205215Y78954D01*
X204450Y78770D01*
X204000Y78583D01*
Y79002D01*
G37*
G36*
X303994Y147754D02*X305265Y147854D01*
X306987Y148268D01*
X308623Y148945D01*
X310133Y149870D01*
X311479Y151021D01*
X312630Y152367D01*
X313555Y153877D01*
X314000Y154952D01*
Y39500D01*
X308000Y33500D01*
X303994D01*
Y87988D01*
X304000Y87988D01*
X304628Y88037D01*
X305240Y88184D01*
X305822Y88425D01*
X306358Y88754D01*
X306837Y89163D01*
X307246Y89642D01*
X307575Y90178D01*
X307816Y90760D01*
X307963Y91372D01*
X308000Y92000D01*
X307963Y92628D01*
X307816Y93240D01*
X307575Y93822D01*
X307246Y94358D01*
X306837Y94837D01*
X306358Y95246D01*
X305822Y95575D01*
X305240Y95816D01*
X304628Y95963D01*
X304000Y96012D01*
X303994Y96012D01*
Y147754D01*
G37*
G36*
Y185500D02*X314000D01*
Y163048D01*
X313555Y164123D01*
X312630Y165633D01*
X311479Y166979D01*
X310133Y168130D01*
X308623Y169055D01*
X306987Y169732D01*
X305265Y170146D01*
X303994Y170246D01*
Y185500D01*
G37*
G36*
X293994Y152982D02*X294370Y152367D01*
X295521Y151021D01*
X296867Y149870D01*
X298377Y148945D01*
X300013Y148268D01*
X301735Y147854D01*
X303500Y147715D01*
X303994Y147754D01*
Y96012D01*
X303372Y95963D01*
X302760Y95816D01*
X302178Y95575D01*
X301642Y95246D01*
X301163Y94837D01*
X300754Y94358D01*
X300425Y93822D01*
X300184Y93240D01*
X300037Y92628D01*
X299988Y92000D01*
X300037Y91372D01*
X300184Y90760D01*
X300425Y90178D01*
X300754Y89642D01*
X301163Y89163D01*
X301642Y88754D01*
X302178Y88425D01*
X302760Y88184D01*
X303372Y88037D01*
X303994Y87988D01*
Y33500D01*
X293994D01*
Y87988D01*
X294000Y87988D01*
X294628Y88037D01*
X295240Y88184D01*
X295822Y88425D01*
X296358Y88754D01*
X296837Y89163D01*
X297246Y89642D01*
X297575Y90178D01*
X297816Y90760D01*
X297963Y91372D01*
X298000Y92000D01*
X297963Y92628D01*
X297816Y93240D01*
X297575Y93822D01*
X297246Y94358D01*
X296837Y94837D01*
X296358Y95246D01*
X295822Y95575D01*
X295240Y95816D01*
X294628Y95963D01*
X294000Y96012D01*
X293994Y96012D01*
Y152982D01*
G37*
G36*
Y185500D02*X303994D01*
Y170246D01*
X303500Y170285D01*
X301735Y170146D01*
X300013Y169732D01*
X298377Y169055D01*
X296867Y168130D01*
X295521Y166979D01*
X294370Y165633D01*
X293994Y165018D01*
Y185500D01*
G37*
G36*
X282822D02*X293994D01*
Y165018D01*
X293445Y164123D01*
X292768Y162487D01*
X292354Y160765D01*
X292215Y159000D01*
X292354Y157235D01*
X292768Y155513D01*
X293445Y153877D01*
X293994Y152982D01*
Y96012D01*
X293372Y95963D01*
X292760Y95816D01*
X292178Y95575D01*
X291642Y95246D01*
X291163Y94837D01*
X290754Y94358D01*
X290425Y93822D01*
X290184Y93240D01*
X290037Y92628D01*
X289988Y92000D01*
X290037Y91372D01*
X290184Y90760D01*
X290425Y90178D01*
X290754Y89642D01*
X291163Y89163D01*
X291642Y88754D01*
X292178Y88425D01*
X292760Y88184D01*
X293372Y88037D01*
X293994Y87988D01*
Y33500D01*
X282822D01*
Y88169D01*
X283372Y88037D01*
X284000Y87988D01*
X284628Y88037D01*
X285240Y88184D01*
X285822Y88425D01*
X286358Y88754D01*
X286837Y89163D01*
X287246Y89642D01*
X287575Y90178D01*
X287816Y90760D01*
X287963Y91372D01*
X288000Y92000D01*
X287963Y92628D01*
X287816Y93240D01*
X287575Y93822D01*
X287246Y94358D01*
X286837Y94837D01*
X286358Y95246D01*
X285822Y95575D01*
X285240Y95816D01*
X284628Y95963D01*
X284000Y96012D01*
X283372Y95963D01*
X282822Y95831D01*
Y133787D01*
X283500Y133734D01*
X284324Y133799D01*
X285127Y133992D01*
X285891Y134308D01*
X286595Y134740D01*
X287224Y135276D01*
X287760Y135905D01*
X288192Y136609D01*
X288508Y137373D01*
X288701Y138176D01*
X288750Y139000D01*
X288701Y139824D01*
X288508Y140627D01*
X288192Y141391D01*
X287760Y142095D01*
X287224Y142724D01*
X286595Y143260D01*
X285891Y143692D01*
X285127Y144008D01*
X284324Y144201D01*
X283500Y144266D01*
X282822Y144213D01*
Y185500D01*
G37*
G36*
X273502D02*X282822D01*
Y144213D01*
X282676Y144201D01*
X281873Y144008D01*
X281109Y143692D01*
X280405Y143260D01*
X279776Y142724D01*
X279240Y142095D01*
X278808Y141391D01*
X278493Y140632D01*
X278476Y140692D01*
X278296Y141150D01*
X278074Y141589D01*
X278019Y141672D01*
X277951Y141744D01*
X277873Y141805D01*
X277786Y141853D01*
X277693Y141887D01*
X277596Y141906D01*
X277497Y141909D01*
X277399Y141897D01*
X277304Y141870D01*
X277214Y141828D01*
X277132Y141772D01*
X277059Y141705D01*
X276998Y141627D01*
X276950Y141540D01*
X276916Y141447D01*
X276898Y141350D01*
X276894Y141251D01*
X276906Y141152D01*
X276934Y141057D01*
X276977Y140968D01*
X277150Y140636D01*
X277287Y140288D01*
X277391Y139928D01*
X277461Y139560D01*
X277496Y139187D01*
Y138813D01*
X277461Y138440D01*
X277391Y138072D01*
X277287Y137712D01*
X277150Y137364D01*
X276981Y137029D01*
X276938Y136941D01*
X276911Y136847D01*
X276898Y136749D01*
X276902Y136651D01*
X276921Y136554D01*
X276954Y136462D01*
X277002Y136376D01*
X277062Y136298D01*
X277134Y136231D01*
X277216Y136176D01*
X277305Y136134D01*
X277400Y136107D01*
X277497Y136095D01*
X277596Y136099D01*
X277692Y136117D01*
X277785Y136151D01*
X277871Y136199D01*
X277948Y136259D01*
X278015Y136331D01*
X278069Y136414D01*
X278296Y136850D01*
X278476Y137308D01*
X278493Y137368D01*
X278808Y136609D01*
X279240Y135905D01*
X279776Y135276D01*
X280405Y134740D01*
X281109Y134308D01*
X281873Y133992D01*
X282676Y133799D01*
X282822Y133787D01*
Y95831D01*
X282760Y95816D01*
X282178Y95575D01*
X281642Y95246D01*
X281163Y94837D01*
X280754Y94358D01*
X280425Y93822D01*
X280184Y93240D01*
X280037Y92628D01*
X279988Y92000D01*
X280037Y91372D01*
X280184Y90760D01*
X280425Y90178D01*
X280754Y89642D01*
X281163Y89163D01*
X281642Y88754D01*
X282178Y88425D01*
X282760Y88184D01*
X282822Y88169D01*
Y33500D01*
X273502D01*
Y88027D01*
X274000Y87988D01*
X274628Y88037D01*
X275240Y88184D01*
X275822Y88425D01*
X276358Y88754D01*
X276837Y89163D01*
X277246Y89642D01*
X277575Y90178D01*
X277816Y90760D01*
X277963Y91372D01*
X278000Y92000D01*
X277963Y92628D01*
X277816Y93240D01*
X277575Y93822D01*
X277246Y94358D01*
X276837Y94837D01*
X276358Y95246D01*
X275822Y95575D01*
X275240Y95816D01*
X274628Y95963D01*
X274000Y96012D01*
X273502Y95973D01*
Y109046D01*
X274065Y108702D01*
X274683Y108446D01*
X275333Y108289D01*
X276000Y108237D01*
X276667Y108289D01*
X277317Y108446D01*
X277935Y108702D01*
X278506Y109051D01*
X279014Y109486D01*
X279449Y109994D01*
X279798Y110565D01*
X280054Y111183D01*
X280211Y111833D01*
X280250Y112500D01*
X280211Y113167D01*
X280054Y113817D01*
X279798Y114435D01*
X279449Y115006D01*
X279014Y115514D01*
X278506Y115949D01*
X277935Y116298D01*
X277317Y116554D01*
X276667Y116711D01*
X276000Y116763D01*
X275333Y116711D01*
X274683Y116554D01*
X274065Y116298D01*
X273502Y115954D01*
Y133750D01*
X273746D01*
X274236Y133796D01*
X274719Y133888D01*
X275192Y134024D01*
X275650Y134204D01*
X276089Y134426D01*
X276172Y134481D01*
X276244Y134549D01*
X276305Y134627D01*
X276353Y134714D01*
X276387Y134807D01*
X276406Y134904D01*
X276409Y135003D01*
X276397Y135101D01*
X276370Y135196D01*
X276328Y135286D01*
X276272Y135368D01*
X276205Y135441D01*
X276127Y135502D01*
X276040Y135550D01*
X275947Y135584D01*
X275850Y135602D01*
X275751Y135606D01*
X275652Y135594D01*
X275557Y135566D01*
X275468Y135523D01*
X275136Y135350D01*
X274788Y135213D01*
X274428Y135109D01*
X274060Y135039D01*
X273687Y135004D01*
X273502D01*
Y142996D01*
X273687D01*
X274060Y142961D01*
X274428Y142891D01*
X274788Y142787D01*
X275136Y142650D01*
X275471Y142481D01*
X275559Y142438D01*
X275653Y142411D01*
X275751Y142398D01*
X275849Y142402D01*
X275946Y142421D01*
X276038Y142454D01*
X276124Y142502D01*
X276202Y142562D01*
X276269Y142634D01*
X276324Y142716D01*
X276366Y142805D01*
X276393Y142900D01*
X276405Y142997D01*
X276401Y143096D01*
X276383Y143192D01*
X276349Y143285D01*
X276301Y143371D01*
X276241Y143448D01*
X276169Y143515D01*
X276086Y143569D01*
X275650Y143796D01*
X275192Y143976D01*
X274719Y144112D01*
X274236Y144204D01*
X273746Y144250D01*
X273502D01*
Y153791D01*
X273555Y153877D01*
X274232Y155513D01*
X274646Y157235D01*
X274750Y159000D01*
X274646Y160765D01*
X274232Y162487D01*
X273555Y164123D01*
X273502Y164209D01*
Y185500D01*
G37*
G36*
Y33500D02*X269178D01*
Y136167D01*
X269214Y136147D01*
X269307Y136113D01*
X269404Y136094D01*
X269503Y136091D01*
X269601Y136103D01*
X269696Y136130D01*
X269786Y136172D01*
X269868Y136228D01*
X269941Y136295D01*
X270002Y136373D01*
X270050Y136460D01*
X270084Y136553D01*
X270102Y136650D01*
X270106Y136749D01*
X270094Y136848D01*
X270066Y136943D01*
X270023Y137032D01*
X269850Y137364D01*
X269713Y137712D01*
X269609Y138072D01*
X269539Y138440D01*
X269504Y138813D01*
Y139187D01*
X269539Y139560D01*
X269609Y139928D01*
X269713Y140288D01*
X269850Y140636D01*
X270019Y140971D01*
X270062Y141059D01*
X270089Y141153D01*
X270102Y141251D01*
X270098Y141349D01*
X270079Y141446D01*
X270046Y141538D01*
X269998Y141624D01*
X269938Y141702D01*
X269866Y141769D01*
X269784Y141824D01*
X269695Y141866D01*
X269600Y141893D01*
X269503Y141905D01*
X269404Y141901D01*
X269308Y141883D01*
X269215Y141849D01*
X269178Y141828D01*
Y149285D01*
X270133Y149870D01*
X271479Y151021D01*
X272630Y152367D01*
X273502Y153791D01*
Y144250D01*
X273254D01*
X272764Y144204D01*
X272281Y144112D01*
X271808Y143976D01*
X271350Y143796D01*
X270911Y143574D01*
X270828Y143519D01*
X270756Y143451D01*
X270695Y143373D01*
X270647Y143286D01*
X270613Y143193D01*
X270594Y143096D01*
X270591Y142997D01*
X270603Y142899D01*
X270630Y142804D01*
X270672Y142714D01*
X270728Y142632D01*
X270795Y142559D01*
X270873Y142498D01*
X270960Y142450D01*
X271053Y142416D01*
X271150Y142398D01*
X271249Y142394D01*
X271348Y142406D01*
X271443Y142434D01*
X271532Y142477D01*
X271864Y142650D01*
X272212Y142787D01*
X272572Y142891D01*
X272940Y142961D01*
X273313Y142996D01*
X273502D01*
Y135004D01*
X273313D01*
X272940Y135039D01*
X272572Y135109D01*
X272212Y135213D01*
X271864Y135350D01*
X271529Y135519D01*
X271441Y135562D01*
X271347Y135589D01*
X271249Y135602D01*
X271151Y135598D01*
X271054Y135579D01*
X270962Y135546D01*
X270876Y135498D01*
X270798Y135438D01*
X270731Y135366D01*
X270676Y135284D01*
X270634Y135195D01*
X270607Y135100D01*
X270595Y135003D01*
X270599Y134904D01*
X270617Y134808D01*
X270651Y134715D01*
X270699Y134629D01*
X270759Y134552D01*
X270831Y134485D01*
X270914Y134431D01*
X271350Y134204D01*
X271808Y134024D01*
X272281Y133888D01*
X272764Y133796D01*
X273254Y133750D01*
X273502D01*
Y115954D01*
X273494Y115949D01*
X272986Y115514D01*
X272551Y115006D01*
X272202Y114435D01*
X271946Y113817D01*
X271789Y113167D01*
X271737Y112500D01*
X271789Y111833D01*
X271946Y111183D01*
X272202Y110565D01*
X272551Y109994D01*
X272986Y109486D01*
X273494Y109051D01*
X273502Y109046D01*
Y95973D01*
X273372Y95963D01*
X272760Y95816D01*
X272178Y95575D01*
X271642Y95246D01*
X271163Y94837D01*
X270754Y94358D01*
X270425Y93822D01*
X270184Y93240D01*
X270037Y92628D01*
X269988Y92000D01*
X270037Y91372D01*
X270184Y90760D01*
X270425Y90178D01*
X270754Y89642D01*
X271163Y89163D01*
X271642Y88754D01*
X272178Y88425D01*
X272760Y88184D01*
X273372Y88037D01*
X273502Y88027D01*
Y33500D01*
G37*
G36*
X269178D02*X263483D01*
Y88004D01*
X267157Y88009D01*
X267310Y88046D01*
X267455Y88106D01*
X267590Y88188D01*
X267709Y88291D01*
X267812Y88410D01*
X267894Y88545D01*
X267954Y88690D01*
X267991Y88843D01*
X268000Y89000D01*
X267991Y95157D01*
X267954Y95310D01*
X267894Y95455D01*
X267812Y95590D01*
X267709Y95709D01*
X267590Y95812D01*
X267455Y95894D01*
X267310Y95954D01*
X267157Y95991D01*
X267000Y96000D01*
X263483Y95995D01*
Y147717D01*
X263500Y147715D01*
X265265Y147854D01*
X266987Y148268D01*
X268623Y148945D01*
X269178Y149285D01*
Y141828D01*
X269129Y141801D01*
X269052Y141741D01*
X268985Y141669D01*
X268931Y141586D01*
X268704Y141150D01*
X268524Y140692D01*
X268388Y140219D01*
X268296Y139736D01*
X268250Y139246D01*
Y138754D01*
X268296Y138264D01*
X268388Y137781D01*
X268524Y137308D01*
X268704Y136850D01*
X268926Y136411D01*
X268981Y136328D01*
X269049Y136256D01*
X269127Y136195D01*
X269178Y136167D01*
Y33500D01*
G37*
G36*
X263483Y185500D02*X273502D01*
Y164209D01*
X272630Y165633D01*
X271479Y166979D01*
X270133Y168130D01*
X268623Y169055D01*
X266987Y169732D01*
X265265Y170146D01*
X263500Y170285D01*
X263483Y170283D01*
Y185500D01*
G37*
G36*
X248000Y140000D02*X248500D01*
Y140500D01*
X251500D01*
Y167000D01*
X248000Y170500D01*
Y185500D01*
X263483D01*
Y170283D01*
X261735Y170146D01*
X260013Y169732D01*
X258377Y169055D01*
X256867Y168130D01*
X255521Y166979D01*
X254370Y165633D01*
X253445Y164123D01*
X252768Y162487D01*
X252354Y160765D01*
X252215Y159000D01*
X252354Y157235D01*
X252768Y155513D01*
X253445Y153877D01*
X254370Y152367D01*
X255521Y151021D01*
X256867Y149870D01*
X258377Y148945D01*
X260013Y148268D01*
X261735Y147854D01*
X263483Y147717D01*
Y95995D01*
X260843Y95991D01*
X260690Y95954D01*
X260545Y95894D01*
X260410Y95812D01*
X260291Y95709D01*
X260188Y95590D01*
X260106Y95455D01*
X260046Y95310D01*
X260009Y95157D01*
X260000Y95000D01*
X260009Y88843D01*
X260046Y88690D01*
X260106Y88545D01*
X260188Y88410D01*
X260291Y88291D01*
X260410Y88188D01*
X260545Y88106D01*
X260690Y88046D01*
X260843Y88009D01*
X261000Y88000D01*
X263483Y88004D01*
Y33500D01*
X248000D01*
Y59737D01*
X248667Y59789D01*
X249317Y59946D01*
X249935Y60202D01*
X250506Y60551D01*
X251014Y60986D01*
X251449Y61494D01*
X251798Y62065D01*
X252054Y62683D01*
X252211Y63333D01*
X252250Y64000D01*
X252211Y64667D01*
X252054Y65317D01*
X251798Y65935D01*
X251449Y66506D01*
X251014Y67014D01*
X250506Y67449D01*
X249935Y67798D01*
X249317Y68054D01*
X248667Y68211D01*
X248000Y68263D01*
Y99757D01*
X250985Y99764D01*
X251215Y99819D01*
X251433Y99909D01*
X251634Y100033D01*
X251814Y100186D01*
X251967Y100366D01*
X252091Y100567D01*
X252181Y100785D01*
X252236Y101015D01*
X252250Y101250D01*
X252236Y106985D01*
X252181Y107215D01*
X252091Y107433D01*
X251967Y107634D01*
X251814Y107814D01*
X251634Y107967D01*
X251433Y108091D01*
X251215Y108181D01*
X250985Y108236D01*
X250750Y108250D01*
X248000Y108243D01*
Y123146D01*
X248054Y123278D01*
X248211Y123928D01*
X248250Y124595D01*
X248211Y125262D01*
X248054Y125912D01*
X248000Y126044D01*
Y140000D01*
G37*
G36*
Y33500D02*X240784D01*
Y70869D01*
X240787Y70870D01*
X240855Y70909D01*
X240916Y70958D01*
X240969Y71017D01*
X241011Y71083D01*
X241174Y71408D01*
X241303Y71748D01*
X241401Y72098D01*
X241467Y72456D01*
X241500Y72818D01*
Y73182D01*
X241467Y73544D01*
X241401Y73902D01*
X241303Y74252D01*
X241174Y74592D01*
X241015Y74919D01*
X240972Y74985D01*
X240919Y75044D01*
X240857Y75094D01*
X240788Y75133D01*
X240784Y75135D01*
Y121817D01*
X240986Y121580D01*
X241494Y121146D01*
X242065Y120796D01*
X242683Y120540D01*
X243333Y120384D01*
X244000Y120332D01*
X244667Y120384D01*
X245317Y120540D01*
X245935Y120796D01*
X246506Y121146D01*
X247014Y121580D01*
X247449Y122089D01*
X247798Y122659D01*
X248000Y123146D01*
Y108243D01*
X245015Y108236D01*
X244785Y108181D01*
X244567Y108091D01*
X244366Y107967D01*
X244186Y107814D01*
X244033Y107634D01*
X243909Y107433D01*
X243819Y107215D01*
X243764Y106985D01*
X243750Y106750D01*
X243764Y101015D01*
X243819Y100785D01*
X243909Y100567D01*
X244033Y100366D01*
X244186Y100186D01*
X244366Y100033D01*
X244567Y99909D01*
X244785Y99819D01*
X245015Y99764D01*
X245250Y99750D01*
X248000Y99757D01*
Y68263D01*
X247333Y68211D01*
X246683Y68054D01*
X246065Y67798D01*
X245494Y67449D01*
X244986Y67014D01*
X244551Y66506D01*
X244202Y65935D01*
X243946Y65317D01*
X243789Y64667D01*
X243737Y64000D01*
X243789Y63333D01*
X243946Y62683D01*
X244202Y62065D01*
X244551Y61494D01*
X244986Y60986D01*
X245494Y60551D01*
X246065Y60202D01*
X246683Y59946D01*
X247333Y59789D01*
X248000Y59737D01*
Y33500D01*
G37*
G36*
Y170500D02*X241500Y177000D01*
X240784D01*
Y185500D01*
X248000D01*
Y170500D01*
G37*
G36*
X240784Y140000D02*X248000D01*
Y126044D01*
X247798Y126530D01*
X247449Y127101D01*
X247014Y127609D01*
X246506Y128044D01*
X245935Y128393D01*
X245317Y128649D01*
X244667Y128806D01*
X244000Y128858D01*
X243333Y128806D01*
X242683Y128649D01*
X242065Y128393D01*
X241494Y128044D01*
X240986Y127609D01*
X240784Y127373D01*
Y140000D01*
G37*
G36*
Y177000D02*X237502D01*
Y185500D01*
X240784D01*
Y177000D01*
G37*
G36*
X237502Y140000D02*X240784D01*
Y127373D01*
X240551Y127101D01*
X240202Y126530D01*
X239946Y125912D01*
X239789Y125262D01*
X239737Y124595D01*
X239789Y123928D01*
X239946Y123278D01*
X240202Y122659D01*
X240551Y122089D01*
X240784Y121817D01*
Y75135D01*
X240714Y75161D01*
X240637Y75177D01*
X240558Y75181D01*
X240479Y75173D01*
X240403Y75152D01*
X240330Y75120D01*
X240264Y75077D01*
X240205Y75024D01*
X240156Y74962D01*
X240116Y74893D01*
X240088Y74819D01*
X240072Y74742D01*
X240068Y74663D01*
X240076Y74584D01*
X240097Y74507D01*
X240130Y74436D01*
X240253Y74193D01*
X240350Y73938D01*
X240423Y73676D01*
X240472Y73408D01*
X240497Y73136D01*
Y72864D01*
X240472Y72592D01*
X240423Y72324D01*
X240350Y72062D01*
X240253Y71807D01*
X240133Y71563D01*
X240100Y71491D01*
X240079Y71416D01*
X240071Y71337D01*
X240075Y71259D01*
X240091Y71182D01*
X240119Y71108D01*
X240158Y71040D01*
X240207Y70979D01*
X240266Y70926D01*
X240332Y70883D01*
X240404Y70851D01*
X240480Y70830D01*
X240558Y70822D01*
X240636Y70826D01*
X240713Y70842D01*
X240784Y70869D01*
Y33500D01*
X237502D01*
Y69000D01*
X237682D01*
X238044Y69033D01*
X238402Y69099D01*
X238752Y69197D01*
X239092Y69326D01*
X239419Y69485D01*
X239485Y69528D01*
X239544Y69581D01*
X239594Y69643D01*
X239633Y69712D01*
X239661Y69786D01*
X239677Y69863D01*
X239681Y69942D01*
X239673Y70021D01*
X239652Y70097D01*
X239620Y70170D01*
X239577Y70236D01*
X239524Y70295D01*
X239462Y70344D01*
X239393Y70384D01*
X239319Y70412D01*
X239242Y70428D01*
X239163Y70432D01*
X239084Y70424D01*
X239007Y70403D01*
X238936Y70370D01*
X238693Y70247D01*
X238438Y70150D01*
X238176Y70077D01*
X237908Y70028D01*
X237636Y70003D01*
X237502D01*
Y75997D01*
X237636D01*
X237908Y75972D01*
X238176Y75923D01*
X238438Y75850D01*
X238693Y75753D01*
X238937Y75633D01*
X239009Y75600D01*
X239084Y75579D01*
X239163Y75571D01*
X239241Y75575D01*
X239318Y75591D01*
X239392Y75619D01*
X239460Y75658D01*
X239521Y75707D01*
X239574Y75766D01*
X239617Y75832D01*
X239649Y75904D01*
X239670Y75980D01*
X239678Y76058D01*
X239674Y76136D01*
X239658Y76213D01*
X239630Y76287D01*
X239591Y76355D01*
X239542Y76416D01*
X239483Y76469D01*
X239417Y76511D01*
X239092Y76674D01*
X238752Y76803D01*
X238402Y76901D01*
X238044Y76967D01*
X237682Y77000D01*
X237502D01*
Y97022D01*
X237935Y97202D01*
X238506Y97551D01*
X239014Y97986D01*
X239449Y98494D01*
X239798Y99065D01*
X240054Y99683D01*
X240211Y100333D01*
X240250Y101000D01*
X240211Y101667D01*
X240054Y102317D01*
X239798Y102935D01*
X239449Y103506D01*
X239014Y104014D01*
X238506Y104449D01*
X237935Y104798D01*
X237502Y104978D01*
Y108260D01*
X238985Y108264D01*
X239215Y108319D01*
X239433Y108409D01*
X239634Y108533D01*
X239814Y108686D01*
X239967Y108866D01*
X240091Y109067D01*
X240181Y109285D01*
X240236Y109515D01*
X240250Y109750D01*
X240236Y115485D01*
X240181Y115715D01*
X240091Y115933D01*
X239967Y116134D01*
X239814Y116314D01*
X239634Y116467D01*
X239433Y116591D01*
X239215Y116681D01*
X238985Y116736D01*
X238750Y116750D01*
X237502Y116747D01*
Y140000D01*
G37*
G36*
Y104978D02*X237317Y105054D01*
X236667Y105211D01*
X236000Y105263D01*
X235333Y105211D01*
X234683Y105054D01*
X234065Y104798D01*
X233494Y104449D01*
X232986Y104014D01*
X232551Y103506D01*
X232284Y103070D01*
Y108603D01*
X232366Y108533D01*
X232567Y108409D01*
X232785Y108319D01*
X233015Y108264D01*
X233250Y108250D01*
X237502Y108260D01*
Y104978D01*
G37*
G36*
Y33500D02*X234216D01*
Y41222D01*
X234449Y41494D01*
X234798Y42065D01*
X235054Y42683D01*
X235211Y43333D01*
X235250Y44000D01*
X235211Y44667D01*
X235054Y45317D01*
X234798Y45935D01*
X234449Y46506D01*
X234216Y46778D01*
Y70865D01*
X234286Y70839D01*
X234363Y70823D01*
X234442Y70819D01*
X234521Y70827D01*
X234597Y70848D01*
X234670Y70880D01*
X234736Y70923D01*
X234795Y70976D01*
X234844Y71038D01*
X234884Y71107D01*
X234912Y71181D01*
X234928Y71258D01*
X234932Y71337D01*
X234924Y71416D01*
X234903Y71493D01*
X234870Y71564D01*
X234747Y71807D01*
X234650Y72062D01*
X234577Y72324D01*
X234528Y72592D01*
X234503Y72864D01*
Y73136D01*
X234528Y73408D01*
X234577Y73676D01*
X234650Y73938D01*
X234747Y74193D01*
X234867Y74437D01*
X234900Y74509D01*
X234921Y74585D01*
X234929Y74663D01*
X234925Y74741D01*
X234909Y74818D01*
X234881Y74892D01*
X234842Y74960D01*
X234793Y75021D01*
X234734Y75074D01*
X234668Y75117D01*
X234596Y75149D01*
X234520Y75170D01*
X234442Y75178D01*
X234364Y75174D01*
X234287Y75158D01*
X234216Y75131D01*
Y79820D01*
X234433Y79909D01*
X234634Y80033D01*
X234814Y80186D01*
X234967Y80366D01*
X235091Y80567D01*
X235181Y80785D01*
X235236Y81015D01*
X235250Y81250D01*
X235236Y86985D01*
X235181Y87215D01*
X235091Y87433D01*
X234967Y87634D01*
X234814Y87814D01*
X234634Y87967D01*
X234433Y88091D01*
X234216Y88180D01*
Y97139D01*
X234683Y96946D01*
X235333Y96789D01*
X236000Y96737D01*
X236667Y96789D01*
X237317Y96946D01*
X237502Y97022D01*
Y77000D01*
X237318D01*
X236956Y76967D01*
X236598Y76901D01*
X236248Y76803D01*
X235908Y76674D01*
X235581Y76515D01*
X235515Y76472D01*
X235456Y76419D01*
X235406Y76357D01*
X235367Y76288D01*
X235339Y76214D01*
X235323Y76137D01*
X235319Y76058D01*
X235327Y75979D01*
X235348Y75903D01*
X235380Y75830D01*
X235423Y75764D01*
X235476Y75705D01*
X235538Y75656D01*
X235607Y75616D01*
X235681Y75588D01*
X235758Y75572D01*
X235837Y75568D01*
X235916Y75576D01*
X235993Y75597D01*
X236064Y75630D01*
X236307Y75753D01*
X236562Y75850D01*
X236824Y75923D01*
X237092Y75972D01*
X237364Y75997D01*
X237502D01*
Y70003D01*
X237364D01*
X237092Y70028D01*
X236824Y70077D01*
X236562Y70150D01*
X236307Y70247D01*
X236063Y70367D01*
X235991Y70400D01*
X235915Y70421D01*
X235837Y70429D01*
X235759Y70425D01*
X235682Y70409D01*
X235608Y70381D01*
X235540Y70342D01*
X235479Y70293D01*
X235426Y70234D01*
X235383Y70168D01*
X235351Y70096D01*
X235330Y70020D01*
X235322Y69942D01*
X235326Y69864D01*
X235342Y69787D01*
X235370Y69713D01*
X235409Y69645D01*
X235458Y69584D01*
X235517Y69531D01*
X235583Y69489D01*
X235908Y69326D01*
X236248Y69197D01*
X236598Y69099D01*
X236956Y69033D01*
X237318Y69000D01*
X237502D01*
Y33500D01*
G37*
G36*
X234216Y88180D02*X234215Y88181D01*
X233985Y88236D01*
X233750Y88250D01*
X232284Y88246D01*
Y98930D01*
X232551Y98494D01*
X232986Y97986D01*
X233494Y97551D01*
X234065Y97202D01*
X234216Y97139D01*
Y88180D01*
G37*
G36*
Y46778D02*X234014Y47014D01*
X233506Y47449D01*
X232935Y47798D01*
X232317Y48054D01*
X232284Y48063D01*
Y63369D01*
X232287Y63370D01*
X232355Y63409D01*
X232416Y63458D01*
X232469Y63517D01*
X232511Y63583D01*
X232674Y63908D01*
X232803Y64248D01*
X232901Y64598D01*
X232967Y64956D01*
X233000Y65318D01*
Y65682D01*
X232967Y66044D01*
X232901Y66402D01*
X232803Y66752D01*
X232674Y67092D01*
X232515Y67419D01*
X232472Y67485D01*
X232419Y67544D01*
X232357Y67594D01*
X232288Y67633D01*
X232284Y67635D01*
Y79760D01*
X233985Y79764D01*
X234215Y79819D01*
X234216Y79820D01*
Y75131D01*
X234213Y75130D01*
X234145Y75091D01*
X234084Y75042D01*
X234031Y74983D01*
X233989Y74917D01*
X233826Y74592D01*
X233697Y74252D01*
X233599Y73902D01*
X233533Y73544D01*
X233500Y73182D01*
Y72818D01*
X233533Y72456D01*
X233599Y72098D01*
X233697Y71748D01*
X233826Y71408D01*
X233985Y71081D01*
X234028Y71015D01*
X234081Y70956D01*
X234143Y70906D01*
X234212Y70867D01*
X234216Y70865D01*
Y46778D01*
G37*
G36*
Y33500D02*X232284D01*
Y39937D01*
X232317Y39946D01*
X232935Y40202D01*
X233506Y40551D01*
X234014Y40986D01*
X234216Y41222D01*
Y33500D01*
G37*
G36*
X237502Y177000D02*X232284D01*
Y185500D01*
X237502D01*
Y177000D01*
G37*
G36*
X232284Y140000D02*X237502D01*
Y116747D01*
X233015Y116736D01*
X232785Y116681D01*
X232567Y116591D01*
X232366Y116467D01*
X232284Y116397D01*
Y140000D01*
G37*
G36*
Y48063D02*X231667Y48211D01*
X231000Y48263D01*
X230333Y48211D01*
X229683Y48054D01*
X229065Y47798D01*
X229002Y47760D01*
Y61500D01*
X229182D01*
X229544Y61533D01*
X229902Y61599D01*
X230252Y61697D01*
X230592Y61826D01*
X230919Y61985D01*
X230985Y62028D01*
X231044Y62081D01*
X231094Y62143D01*
X231133Y62212D01*
X231161Y62286D01*
X231177Y62363D01*
X231181Y62442D01*
X231173Y62521D01*
X231152Y62597D01*
X231120Y62670D01*
X231077Y62736D01*
X231024Y62795D01*
X230962Y62844D01*
X230893Y62884D01*
X230819Y62912D01*
X230742Y62928D01*
X230663Y62932D01*
X230584Y62924D01*
X230507Y62903D01*
X230436Y62870D01*
X230193Y62747D01*
X229938Y62650D01*
X229676Y62577D01*
X229408Y62528D01*
X229136Y62503D01*
X229002D01*
Y68497D01*
X229136D01*
X229408Y68472D01*
X229676Y68423D01*
X229938Y68350D01*
X230193Y68253D01*
X230437Y68133D01*
X230509Y68100D01*
X230584Y68079D01*
X230663Y68071D01*
X230741Y68075D01*
X230818Y68091D01*
X230892Y68119D01*
X230960Y68158D01*
X231021Y68207D01*
X231074Y68266D01*
X231117Y68332D01*
X231149Y68404D01*
X231170Y68480D01*
X231178Y68558D01*
X231174Y68636D01*
X231158Y68713D01*
X231130Y68787D01*
X231091Y68855D01*
X231042Y68916D01*
X230983Y68969D01*
X230917Y69011D01*
X230592Y69174D01*
X230252Y69303D01*
X229902Y69401D01*
X229544Y69467D01*
X229182Y69500D01*
X229002D01*
Y79752D01*
X232284Y79760D01*
Y67635D01*
X232214Y67661D01*
X232137Y67677D01*
X232058Y67681D01*
X231979Y67673D01*
X231903Y67652D01*
X231830Y67620D01*
X231764Y67577D01*
X231705Y67524D01*
X231656Y67462D01*
X231616Y67393D01*
X231588Y67319D01*
X231572Y67242D01*
X231568Y67163D01*
X231576Y67084D01*
X231597Y67007D01*
X231630Y66936D01*
X231753Y66693D01*
X231850Y66438D01*
X231923Y66176D01*
X231972Y65908D01*
X231997Y65636D01*
Y65364D01*
X231972Y65092D01*
X231923Y64824D01*
X231850Y64562D01*
X231753Y64307D01*
X231633Y64063D01*
X231600Y63991D01*
X231579Y63916D01*
X231571Y63837D01*
X231575Y63759D01*
X231591Y63682D01*
X231619Y63608D01*
X231658Y63540D01*
X231707Y63479D01*
X231766Y63426D01*
X231832Y63383D01*
X231904Y63351D01*
X231980Y63330D01*
X232058Y63322D01*
X232136Y63326D01*
X232213Y63342D01*
X232284Y63369D01*
Y48063D01*
G37*
G36*
Y33500D02*X229002D01*
Y40240D01*
X229065Y40202D01*
X229683Y39946D01*
X230333Y39789D01*
X231000Y39737D01*
X231667Y39789D01*
X232284Y39937D01*
Y33500D01*
G37*
G36*
Y177000D02*X229002D01*
Y185500D01*
X232284D01*
Y177000D01*
G37*
G36*
X229002Y140000D02*X232284D01*
Y116397D01*
X232186Y116314D01*
X232033Y116134D01*
X231909Y115933D01*
X231819Y115715D01*
X231764Y115485D01*
X231750Y115250D01*
X231764Y109515D01*
X231819Y109285D01*
X231909Y109067D01*
X232033Y108866D01*
X232186Y108686D01*
X232284Y108603D01*
Y103070D01*
X232202Y102935D01*
X231946Y102317D01*
X231789Y101667D01*
X231737Y101000D01*
X231789Y100333D01*
X231946Y99683D01*
X232202Y99065D01*
X232284Y98930D01*
Y88246D01*
X229002Y88238D01*
Y140000D01*
G37*
G36*
Y177000D02*X204000D01*
Y185500D01*
X229002D01*
Y177000D01*
G37*
G36*
X225716Y140000D02*X229002D01*
Y88238D01*
X228015Y88236D01*
X227785Y88181D01*
X227567Y88091D01*
X227366Y87967D01*
X227186Y87814D01*
X227033Y87634D01*
X226909Y87433D01*
X226819Y87215D01*
X226764Y86985D01*
X226750Y86750D01*
X226764Y81015D01*
X226819Y80785D01*
X226909Y80567D01*
X227033Y80366D01*
X227186Y80186D01*
X227366Y80033D01*
X227567Y79909D01*
X227785Y79819D01*
X228015Y79764D01*
X228250Y79750D01*
X229002Y79752D01*
Y69500D01*
X228818D01*
X228456Y69467D01*
X228098Y69401D01*
X227748Y69303D01*
X227408Y69174D01*
X227081Y69015D01*
X227015Y68972D01*
X226956Y68919D01*
X226906Y68857D01*
X226867Y68788D01*
X226839Y68714D01*
X226823Y68637D01*
X226819Y68558D01*
X226827Y68479D01*
X226848Y68403D01*
X226880Y68330D01*
X226923Y68264D01*
X226976Y68205D01*
X227038Y68156D01*
X227107Y68116D01*
X227181Y68088D01*
X227258Y68072D01*
X227337Y68068D01*
X227416Y68076D01*
X227493Y68097D01*
X227564Y68130D01*
X227807Y68253D01*
X228062Y68350D01*
X228324Y68423D01*
X228592Y68472D01*
X228864Y68497D01*
X229002D01*
Y62503D01*
X228864D01*
X228592Y62528D01*
X228324Y62577D01*
X228062Y62650D01*
X227807Y62747D01*
X227563Y62867D01*
X227491Y62900D01*
X227415Y62921D01*
X227337Y62929D01*
X227259Y62925D01*
X227182Y62909D01*
X227108Y62881D01*
X227040Y62842D01*
X226979Y62793D01*
X226926Y62734D01*
X226883Y62668D01*
X226851Y62596D01*
X226830Y62520D01*
X226822Y62442D01*
X226826Y62364D01*
X226842Y62287D01*
X226870Y62213D01*
X226909Y62145D01*
X226958Y62084D01*
X227017Y62031D01*
X227083Y61989D01*
X227408Y61826D01*
X227748Y61697D01*
X228098Y61599D01*
X228456Y61533D01*
X228818Y61500D01*
X229002D01*
Y47760D01*
X228494Y47449D01*
X227986Y47014D01*
X227551Y46506D01*
X227202Y45935D01*
X226946Y45317D01*
X226789Y44667D01*
X226737Y44000D01*
X226789Y43333D01*
X226946Y42683D01*
X227202Y42065D01*
X227551Y41494D01*
X227986Y40986D01*
X228494Y40551D01*
X229002Y40240D01*
Y33500D01*
X225716D01*
Y63365D01*
X225786Y63339D01*
X225863Y63323D01*
X225942Y63319D01*
X226021Y63327D01*
X226097Y63348D01*
X226170Y63380D01*
X226236Y63423D01*
X226295Y63476D01*
X226344Y63538D01*
X226384Y63607D01*
X226412Y63681D01*
X226428Y63758D01*
X226432Y63837D01*
X226424Y63916D01*
X226403Y63993D01*
X226370Y64064D01*
X226247Y64307D01*
X226150Y64562D01*
X226077Y64824D01*
X226028Y65092D01*
X226003Y65364D01*
Y65636D01*
X226028Y65908D01*
X226077Y66176D01*
X226150Y66438D01*
X226247Y66693D01*
X226367Y66937D01*
X226400Y67009D01*
X226421Y67085D01*
X226429Y67163D01*
X226425Y67241D01*
X226409Y67318D01*
X226381Y67392D01*
X226342Y67460D01*
X226293Y67521D01*
X226234Y67574D01*
X226168Y67617D01*
X226096Y67649D01*
X226020Y67670D01*
X225942Y67678D01*
X225864Y67674D01*
X225787Y67658D01*
X225716Y67631D01*
Y140000D01*
G37*
G36*
X210493D02*X225716D01*
Y67631D01*
X225713Y67630D01*
X225645Y67591D01*
X225584Y67542D01*
X225531Y67483D01*
X225489Y67417D01*
X225326Y67092D01*
X225197Y66752D01*
X225099Y66402D01*
X225033Y66044D01*
X225000Y65682D01*
Y65318D01*
X225033Y64956D01*
X225099Y64598D01*
X225197Y64248D01*
X225326Y63908D01*
X225485Y63581D01*
X225528Y63515D01*
X225581Y63456D01*
X225643Y63406D01*
X225712Y63367D01*
X225716Y63365D01*
Y33500D01*
X210493D01*
Y41782D01*
X210770Y42450D01*
X210954Y43215D01*
X211000Y44000D01*
X210954Y44785D01*
X210770Y45550D01*
X210493Y46218D01*
Y51782D01*
X210770Y52450D01*
X210954Y53215D01*
X211000Y54000D01*
X210954Y54785D01*
X210770Y55550D01*
X210493Y56218D01*
Y61782D01*
X210770Y62450D01*
X210954Y63215D01*
X211000Y64000D01*
X210954Y64785D01*
X210770Y65550D01*
X210493Y66218D01*
Y71782D01*
X210770Y72450D01*
X210954Y73215D01*
X211000Y74000D01*
X210954Y74785D01*
X210770Y75550D01*
X210493Y76218D01*
Y79129D01*
X210590Y79188D01*
X210709Y79291D01*
X210812Y79410D01*
X210894Y79545D01*
X210954Y79690D01*
X210991Y79843D01*
X211000Y80000D01*
X210991Y88157D01*
X210954Y88310D01*
X210894Y88455D01*
X210812Y88590D01*
X210709Y88709D01*
X210590Y88812D01*
X210493Y88871D01*
Y117487D01*
X210500Y117486D01*
X211206Y117542D01*
X211895Y117707D01*
X212549Y117978D01*
X213153Y118348D01*
X213692Y118808D01*
X214152Y119347D01*
X214522Y119951D01*
X214793Y120605D01*
X214958Y121294D01*
X215000Y122000D01*
X214958Y122706D01*
X214793Y123395D01*
X214522Y124049D01*
X214152Y124653D01*
X213692Y125192D01*
X213153Y125652D01*
X212549Y126022D01*
X211895Y126293D01*
X211206Y126458D01*
X210500Y126514D01*
X210493Y126513D01*
Y140000D01*
G37*
G36*
Y76218D02*X210469Y76277D01*
X210058Y76948D01*
X209546Y77546D01*
X208948Y78058D01*
X208277Y78469D01*
X207550Y78770D01*
X206785Y78954D01*
X206136Y79005D01*
X210157Y79009D01*
X210310Y79046D01*
X210455Y79106D01*
X210493Y79129D01*
Y76218D01*
G37*
G36*
Y66218D02*X210469Y66277D01*
X210058Y66948D01*
X209546Y67546D01*
X208948Y68058D01*
X208277Y68469D01*
X207550Y68770D01*
X206785Y68954D01*
X206196Y69000D01*
X206785Y69046D01*
X207550Y69230D01*
X208277Y69531D01*
X208948Y69942D01*
X209546Y70454D01*
X210058Y71052D01*
X210469Y71723D01*
X210493Y71782D01*
Y66218D01*
G37*
G36*
Y56218D02*X210469Y56277D01*
X210058Y56948D01*
X209546Y57546D01*
X208948Y58058D01*
X208277Y58469D01*
X207550Y58770D01*
X206785Y58954D01*
X206196Y59000D01*
X206785Y59046D01*
X207550Y59230D01*
X208277Y59531D01*
X208948Y59942D01*
X209546Y60454D01*
X210058Y61052D01*
X210469Y61723D01*
X210493Y61782D01*
Y56218D01*
G37*
G36*
Y46218D02*X210469Y46277D01*
X210058Y46948D01*
X209546Y47546D01*
X208948Y48058D01*
X208277Y48469D01*
X207550Y48770D01*
X206785Y48954D01*
X206196Y49000D01*
X206785Y49046D01*
X207550Y49230D01*
X208277Y49531D01*
X208948Y49942D01*
X209546Y50454D01*
X210058Y51052D01*
X210469Y51723D01*
X210493Y51782D01*
Y46218D01*
G37*
G36*
Y33500D02*X204000D01*
Y39417D01*
X204450Y39230D01*
X205215Y39046D01*
X206000Y38985D01*
X206785Y39046D01*
X207550Y39230D01*
X208277Y39531D01*
X208948Y39942D01*
X209546Y40454D01*
X210058Y41052D01*
X210469Y41723D01*
X210493Y41782D01*
Y33500D01*
G37*
G36*
X204000Y140000D02*X210493D01*
Y126513D01*
X209794Y126458D01*
X209105Y126293D01*
X208451Y126022D01*
X207847Y125652D01*
X207308Y125192D01*
X206848Y124653D01*
X206478Y124049D01*
X206207Y123395D01*
X206042Y122706D01*
X205986Y122000D01*
X206042Y121294D01*
X206207Y120605D01*
X206478Y119951D01*
X206848Y119347D01*
X207308Y118808D01*
X207847Y118348D01*
X208451Y117978D01*
X209105Y117707D01*
X209794Y117542D01*
X210493Y117487D01*
Y88871D01*
X210455Y88894D01*
X210310Y88954D01*
X210157Y88991D01*
X210000Y89000D01*
X204000Y88993D01*
Y117584D01*
X204183Y117659D01*
X204384Y117783D01*
X204564Y117936D01*
X204717Y118116D01*
X204841Y118317D01*
X204931Y118535D01*
X204986Y118765D01*
X205000Y119000D01*
X204986Y125235D01*
X204931Y125465D01*
X204841Y125683D01*
X204717Y125884D01*
X204564Y126064D01*
X204384Y126217D01*
X204183Y126341D01*
X204000Y126416D01*
Y131541D01*
X207897Y131545D01*
X208050Y131582D01*
X208195Y131642D01*
X208330Y131724D01*
X208449Y131827D01*
X208552Y131946D01*
X208634Y132081D01*
X208694Y132226D01*
X208731Y132379D01*
X208740Y132536D01*
X208731Y137811D01*
X208694Y137964D01*
X208634Y138109D01*
X208552Y138244D01*
X208449Y138363D01*
X208330Y138466D01*
X208195Y138548D01*
X208050Y138608D01*
X207897Y138645D01*
X207740Y138654D01*
X204000Y138649D01*
Y140000D01*
G37*
G36*
Y177000D02*X203500D01*
Y185500D01*
X204000D01*
Y177000D01*
G37*
G36*
X159500Y185500D02*X203500D01*
Y177000D01*
X159500D01*
Y185500D01*
G37*
G36*
X196000Y125000D02*X196014Y118765D01*
X196069Y118535D01*
X196159Y118317D01*
X196283Y118116D01*
X196436Y117936D01*
X196616Y117783D01*
X196817Y117659D01*
X197035Y117569D01*
X197265Y117514D01*
X197500Y117500D01*
X203735Y117514D01*
X203965Y117569D01*
X204000Y117584D01*
Y88993D01*
X201843Y88991D01*
X201690Y88954D01*
X201545Y88894D01*
X201410Y88812D01*
X201291Y88709D01*
X201188Y88590D01*
X201106Y88455D01*
X201046Y88310D01*
X201009Y88157D01*
X201000Y88000D01*
X201009Y79843D01*
X201046Y79690D01*
X201106Y79545D01*
X201188Y79410D01*
X201291Y79291D01*
X201410Y79188D01*
X201545Y79106D01*
X201690Y79046D01*
X201843Y79009D01*
X202000Y79000D01*
X204000Y79002D01*
Y78583D01*
X203723Y78469D01*
X203052Y78058D01*
X202454Y77546D01*
X201942Y76948D01*
X201531Y76277D01*
X201230Y75550D01*
X201046Y74785D01*
X200985Y74000D01*
X201046Y73215D01*
X201230Y72450D01*
X201531Y71723D01*
X201942Y71052D01*
X202454Y70454D01*
X203052Y69942D01*
X203723Y69531D01*
X204000Y69417D01*
Y68583D01*
X203723Y68469D01*
X203052Y68058D01*
X202454Y67546D01*
X201942Y66948D01*
X201531Y66277D01*
X201230Y65550D01*
X201046Y64785D01*
X200985Y64000D01*
X201046Y63215D01*
X201230Y62450D01*
X201531Y61723D01*
X201942Y61052D01*
X202454Y60454D01*
X203052Y59942D01*
X203723Y59531D01*
X204000Y59417D01*
Y58583D01*
X203723Y58469D01*
X203052Y58058D01*
X202454Y57546D01*
X201942Y56948D01*
X201531Y56277D01*
X201230Y55550D01*
X201046Y54785D01*
X200985Y54000D01*
X201046Y53215D01*
X201230Y52450D01*
X201531Y51723D01*
X201942Y51052D01*
X202454Y50454D01*
X203052Y49942D01*
X203723Y49531D01*
X204000Y49417D01*
Y48583D01*
X203723Y48469D01*
X203052Y48058D01*
X202454Y47546D01*
X201942Y46948D01*
X201531Y46277D01*
X201230Y45550D01*
X201046Y44785D01*
X200985Y44000D01*
X201046Y43215D01*
X201230Y42450D01*
X201531Y41723D01*
X201942Y41052D01*
X202454Y40454D01*
X203052Y39942D01*
X203723Y39531D01*
X204000Y39417D01*
Y33500D01*
X196000D01*
Y96757D01*
X198985Y96764D01*
X199215Y96819D01*
X199433Y96909D01*
X199634Y97033D01*
X199814Y97186D01*
X199967Y97366D01*
X200091Y97567D01*
X200181Y97785D01*
X200236Y98015D01*
X200250Y98250D01*
X200236Y103985D01*
X200181Y104215D01*
X200091Y104433D01*
X199967Y104634D01*
X199814Y104814D01*
X199634Y104967D01*
X199433Y105091D01*
X199215Y105181D01*
X198985Y105236D01*
X198750Y105250D01*
X196000Y105243D01*
Y125000D01*
G37*
G36*
Y140000D02*X204000D01*
Y138649D01*
X200103Y138645D01*
X199950Y138608D01*
X199805Y138548D01*
X199670Y138466D01*
X199551Y138363D01*
X199448Y138244D01*
X199366Y138109D01*
X199306Y137964D01*
X199269Y137811D01*
X199260Y137654D01*
X199269Y132379D01*
X199306Y132226D01*
X199366Y132081D01*
X199448Y131946D01*
X199551Y131827D01*
X199670Y131724D01*
X199805Y131642D01*
X199950Y131582D01*
X200103Y131545D01*
X200260Y131536D01*
X204000Y131541D01*
Y126416D01*
X203965Y126431D01*
X203735Y126486D01*
X203500Y126500D01*
X197265Y126486D01*
X197035Y126431D01*
X196817Y126341D01*
X196616Y126217D01*
X196436Y126064D01*
X196283Y125884D01*
X196159Y125683D01*
X196069Y125465D01*
X196014Y125235D01*
X196000Y125000D01*
Y128126D01*
X196240Y128184D01*
X196822Y128425D01*
X197358Y128754D01*
X197837Y129163D01*
X198246Y129642D01*
X198575Y130178D01*
X198816Y130760D01*
X198963Y131372D01*
X199000Y132000D01*
X198963Y132628D01*
X198816Y133240D01*
X198575Y133822D01*
X198246Y134358D01*
X197837Y134837D01*
X197358Y135246D01*
X196822Y135575D01*
X196240Y135816D01*
X196000Y135874D01*
Y140000D01*
G37*
G36*
Y125000D02*Y105243D01*
X193015Y105236D01*
X192785Y105181D01*
X192567Y105091D01*
X192366Y104967D01*
X192186Y104814D01*
X192033Y104634D01*
X191909Y104433D01*
X191819Y104215D01*
X191764Y103985D01*
X191750Y103750D01*
X191764Y98015D01*
X191819Y97785D01*
X191909Y97567D01*
X192033Y97366D01*
X192186Y97186D01*
X192366Y97033D01*
X192567Y96909D01*
X192785Y96819D01*
X193015Y96764D01*
X193250Y96750D01*
X196000Y96757D01*
Y33500D01*
X185994D01*
Y94143D01*
X186079Y94313D01*
X186209Y94653D01*
X186306Y95003D01*
X186372Y95361D01*
X186405Y95723D01*
Y96087D01*
X186372Y96449D01*
X186306Y96807D01*
X186209Y97157D01*
X186079Y97497D01*
X185994Y97672D01*
Y134104D01*
X187578Y134109D01*
X187670Y134131D01*
X187757Y134167D01*
X187838Y134216D01*
X187910Y134277D01*
X187971Y134349D01*
X188020Y134430D01*
X188056Y134517D01*
X188078Y134609D01*
X188084Y134703D01*
X188082Y135627D01*
X188094Y135580D01*
X188229Y135253D01*
X188414Y134951D01*
X188644Y134682D01*
X188661Y134667D01*
X188662Y134609D01*
X188684Y134517D01*
X188720Y134430D01*
X188769Y134349D01*
X188830Y134277D01*
X188902Y134216D01*
X188983Y134167D01*
X189070Y134131D01*
X189162Y134109D01*
X189256Y134103D01*
X189655Y134104D01*
X189732Y134086D01*
X191067Y132751D01*
X191037Y132628D01*
X190988Y132000D01*
X191037Y131372D01*
X191184Y130760D01*
X191425Y130178D01*
X191754Y129642D01*
X192163Y129163D01*
X192642Y128754D01*
X193178Y128425D01*
X193760Y128184D01*
X194372Y128037D01*
X195000Y127988D01*
X195628Y128037D01*
X196000Y128126D01*
Y125000D01*
G37*
G36*
X185994Y140000D02*X196000D01*
Y135874D01*
X195628Y135963D01*
X195000Y136012D01*
X194372Y135963D01*
X194249Y135933D01*
X192376Y137806D01*
X192318Y137873D01*
X192049Y138103D01*
X191747Y138289D01*
X191420Y138424D01*
X191076Y138507D01*
X191075Y138507D01*
X190722Y138534D01*
X190634Y138528D01*
X190240D01*
X189887Y138507D01*
X189641Y138448D01*
X189162Y138446D01*
X189070Y138424D01*
X188983Y138388D01*
X188902Y138339D01*
X188830Y138278D01*
X188769Y138206D01*
X188720Y138125D01*
X188684Y138038D01*
X188662Y137946D01*
X188658Y137885D01*
X188644Y137873D01*
X188414Y137604D01*
X188229Y137302D01*
X188094Y136975D01*
X188080Y136919D01*
X188078Y137946D01*
X188056Y138038D01*
X188020Y138125D01*
X187971Y138206D01*
X187910Y138278D01*
X187838Y138339D01*
X187757Y138388D01*
X187670Y138424D01*
X187578Y138446D01*
X187484Y138452D01*
X185994Y138448D01*
Y140000D01*
G37*
G36*
X182407Y134028D02*X182760D01*
X183113Y134048D01*
X183358Y134107D01*
X183838Y134109D01*
X183930Y134131D01*
X184017Y134167D01*
X184098Y134216D01*
X184170Y134277D01*
X184231Y134349D01*
X184280Y134430D01*
X184316Y134517D01*
X184338Y134609D01*
X184342Y134670D01*
X184356Y134682D01*
X184586Y134951D01*
X184771Y135253D01*
X184906Y135580D01*
X184920Y135636D01*
X184922Y134609D01*
X184944Y134517D01*
X184980Y134430D01*
X185029Y134349D01*
X185090Y134277D01*
X185162Y134216D01*
X185243Y134167D01*
X185330Y134131D01*
X185422Y134109D01*
X185516Y134103D01*
X185994Y134104D01*
Y97672D01*
X185920Y97824D01*
X185877Y97890D01*
X185824Y97949D01*
X185762Y97999D01*
X185693Y98038D01*
X185619Y98066D01*
X185542Y98083D01*
X185463Y98087D01*
X185384Y98078D01*
X185308Y98057D01*
X185235Y98025D01*
X185169Y97982D01*
X185110Y97929D01*
X185061Y97867D01*
X185021Y97798D01*
X184993Y97724D01*
X184977Y97647D01*
X184973Y97568D01*
X184981Y97489D01*
X185002Y97413D01*
X185036Y97341D01*
X185158Y97098D01*
X185255Y96843D01*
X185328Y96581D01*
X185377Y96313D01*
X185402Y96041D01*
Y95769D01*
X185377Y95498D01*
X185328Y95230D01*
X185255Y94967D01*
X185158Y94713D01*
X185038Y94468D01*
X185005Y94397D01*
X184984Y94321D01*
X184976Y94242D01*
X184980Y94164D01*
X184996Y94087D01*
X185024Y94013D01*
X185063Y93945D01*
X185113Y93884D01*
X185171Y93831D01*
X185237Y93788D01*
X185309Y93756D01*
X185385Y93735D01*
X185463Y93727D01*
X185542Y93731D01*
X185619Y93747D01*
X185692Y93775D01*
X185760Y93814D01*
X185822Y93864D01*
X185874Y93922D01*
X185916Y93989D01*
X185994Y94143D01*
Y33500D01*
X182407D01*
Y91905D01*
X182587D01*
X182949Y91938D01*
X183307Y92004D01*
X183657Y92102D01*
X183997Y92231D01*
X184324Y92391D01*
X184390Y92433D01*
X184449Y92487D01*
X184499Y92548D01*
X184538Y92617D01*
X184566Y92691D01*
X184583Y92768D01*
X184587Y92847D01*
X184578Y92926D01*
X184557Y93003D01*
X184525Y93075D01*
X184482Y93141D01*
X184429Y93200D01*
X184367Y93250D01*
X184298Y93289D01*
X184224Y93317D01*
X184147Y93334D01*
X184068Y93337D01*
X183989Y93329D01*
X183913Y93308D01*
X183841Y93275D01*
X183598Y93152D01*
X183343Y93056D01*
X183081Y92982D01*
X182813Y92933D01*
X182541Y92908D01*
X182407D01*
Y98902D01*
X182541D01*
X182813Y98877D01*
X183081Y98828D01*
X183343Y98755D01*
X183598Y98658D01*
X183843Y98538D01*
X183914Y98505D01*
X183990Y98484D01*
X184068Y98476D01*
X184146Y98480D01*
X184223Y98496D01*
X184297Y98524D01*
X184365Y98563D01*
X184427Y98613D01*
X184479Y98671D01*
X184522Y98737D01*
X184555Y98809D01*
X184575Y98885D01*
X184583Y98963D01*
X184580Y99042D01*
X184563Y99119D01*
X184535Y99192D01*
X184496Y99260D01*
X184447Y99322D01*
X184388Y99374D01*
X184322Y99416D01*
X183997Y99579D01*
X183657Y99709D01*
X183307Y99806D01*
X182949Y99872D01*
X182587Y99905D01*
X182407D01*
Y134028D01*
G37*
G36*
Y143553D02*X183838Y143557D01*
X183930Y143579D01*
X184017Y143615D01*
X184098Y143664D01*
X184170Y143725D01*
X184231Y143797D01*
X184280Y143878D01*
X184316Y143965D01*
X184338Y144057D01*
X184344Y144151D01*
X184343Y144500D01*
X184383Y144546D01*
X184500Y144738D01*
Y140000D01*
X185994D01*
Y138448D01*
X185422Y138446D01*
X185330Y138424D01*
X185243Y138388D01*
X185162Y138339D01*
X185090Y138278D01*
X185029Y138206D01*
X184980Y138125D01*
X184944Y138038D01*
X184922Y137946D01*
X184916Y137852D01*
X184918Y136928D01*
X184906Y136975D01*
X184771Y137302D01*
X184586Y137604D01*
X184356Y137873D01*
X184339Y137888D01*
X184338Y137946D01*
X184316Y138038D01*
X184280Y138125D01*
X184231Y138206D01*
X184170Y138278D01*
X184098Y138339D01*
X184017Y138388D01*
X183930Y138424D01*
X183838Y138446D01*
X183744Y138452D01*
X183345Y138451D01*
X183113Y138507D01*
X182760Y138528D01*
X182407D01*
Y143553D01*
G37*
G36*
X183744Y147900D02*X182407Y147896D01*
Y151000D01*
X183000D01*
X184500Y149500D01*
Y146714D01*
X184383Y146905D01*
X184339Y146956D01*
X184338Y147394D01*
X184316Y147486D01*
X184280Y147573D01*
X184231Y147654D01*
X184170Y147726D01*
X184098Y147787D01*
X184017Y147836D01*
X183930Y147872D01*
X183838Y147894D01*
X183744Y147900D01*
G37*
G36*
X179121Y130609D02*X179358Y130754D01*
X179837Y131163D01*
X180246Y131642D01*
X180575Y132178D01*
X180816Y132760D01*
X180963Y133372D01*
X181000Y134000D01*
X180998Y134028D01*
X182407D01*
Y99905D01*
X182223D01*
X181861Y99872D01*
X181503Y99806D01*
X181153Y99709D01*
X180813Y99579D01*
X180487Y99420D01*
X180420Y99377D01*
X180361Y99324D01*
X180312Y99262D01*
X180272Y99193D01*
X180244Y99119D01*
X180228Y99042D01*
X180224Y98963D01*
X180232Y98884D01*
X180253Y98808D01*
X180285Y98735D01*
X180328Y98669D01*
X180382Y98610D01*
X180443Y98561D01*
X180512Y98521D01*
X180586Y98493D01*
X180663Y98477D01*
X180742Y98473D01*
X180821Y98481D01*
X180898Y98502D01*
X180969Y98536D01*
X181212Y98658D01*
X181467Y98755D01*
X181730Y98828D01*
X181998Y98877D01*
X182269Y98902D01*
X182407D01*
Y92908D01*
X182269D01*
X181998Y92933D01*
X181730Y92982D01*
X181467Y93056D01*
X181212Y93152D01*
X180968Y93272D01*
X180897Y93305D01*
X180821Y93326D01*
X180742Y93334D01*
X180664Y93330D01*
X180587Y93314D01*
X180513Y93286D01*
X180445Y93247D01*
X180384Y93198D01*
X180331Y93139D01*
X180288Y93073D01*
X180256Y93002D01*
X180235Y92926D01*
X180227Y92847D01*
X180231Y92769D01*
X180247Y92692D01*
X180275Y92618D01*
X180314Y92550D01*
X180364Y92489D01*
X180422Y92436D01*
X180489Y92394D01*
X180813Y92231D01*
X181153Y92102D01*
X181503Y92004D01*
X181861Y91938D01*
X182223Y91905D01*
X182407D01*
Y33500D01*
X179121D01*
Y93770D01*
X179191Y93744D01*
X179268Y93728D01*
X179347Y93724D01*
X179426Y93732D01*
X179503Y93753D01*
X179575Y93785D01*
X179641Y93828D01*
X179700Y93882D01*
X179750Y93943D01*
X179789Y94012D01*
X179817Y94086D01*
X179834Y94163D01*
X179837Y94242D01*
X179829Y94321D01*
X179808Y94398D01*
X179775Y94469D01*
X179652Y94713D01*
X179556Y94967D01*
X179482Y95230D01*
X179433Y95498D01*
X179408Y95769D01*
Y96041D01*
X179433Y96313D01*
X179482Y96581D01*
X179556Y96843D01*
X179652Y97098D01*
X179772Y97343D01*
X179805Y97414D01*
X179826Y97490D01*
X179834Y97568D01*
X179830Y97646D01*
X179814Y97723D01*
X179786Y97797D01*
X179747Y97865D01*
X179698Y97927D01*
X179639Y97979D01*
X179573Y98022D01*
X179502Y98055D01*
X179426Y98075D01*
X179347Y98083D01*
X179269Y98080D01*
X179192Y98063D01*
X179121Y98037D01*
Y130609D01*
G37*
G36*
Y143726D02*X181350D01*
X181350Y143725D01*
X181422Y143664D01*
X181503Y143615D01*
X181590Y143579D01*
X181682Y143557D01*
X181776Y143551D01*
X182407Y143553D01*
Y138528D01*
X179366D01*
X179278Y138534D01*
X179121Y138522D01*
Y143726D01*
G37*
G36*
X182407Y147896D02*X181682Y147894D01*
X181590Y147872D01*
X181503Y147836D01*
X181422Y147787D01*
X181350Y147726D01*
X179121D01*
Y151000D01*
X182407D01*
Y147896D01*
G37*
G36*
X179121Y147726D02*X175989D01*
X175986Y149235D01*
X175931Y149465D01*
X175841Y149683D01*
X175717Y149884D01*
X175564Y150064D01*
X175384Y150217D01*
X175183Y150341D01*
X174965Y150431D01*
X174735Y150486D01*
X174500Y150500D01*
X168265Y150486D01*
X168035Y150431D01*
X167817Y150341D01*
X167616Y150217D01*
X167436Y150064D01*
X167283Y149884D01*
X167159Y149683D01*
X167069Y149465D01*
X167014Y149235D01*
X167000Y149000D01*
X167014Y141765D01*
X167069Y141535D01*
X167159Y141317D01*
X167283Y141116D01*
X167436Y140936D01*
X167616Y140783D01*
X167817Y140659D01*
X168035Y140569D01*
X168265Y140514D01*
X168500Y140500D01*
X174735Y140514D01*
X174965Y140569D01*
X175183Y140659D01*
X175384Y140783D01*
X175564Y140936D01*
X175717Y141116D01*
X175841Y141317D01*
X175931Y141535D01*
X175986Y141765D01*
X176000Y142000D01*
X175997Y143726D01*
X179121D01*
Y138522D01*
X178924Y138507D01*
X178580Y138424D01*
X178253Y138289D01*
X177951Y138103D01*
X177951Y138103D01*
X177752Y137933D01*
X177628Y137963D01*
X177000Y138012D01*
X176372Y137963D01*
X175760Y137816D01*
X175178Y137575D01*
X174642Y137246D01*
X174163Y136837D01*
X173754Y136358D01*
X173425Y135822D01*
X173184Y135240D01*
X173037Y134628D01*
X172988Y134000D01*
X173037Y133372D01*
X173184Y132760D01*
X173425Y132178D01*
X173754Y131642D01*
X174163Y131163D01*
X174642Y130754D01*
X175178Y130425D01*
X175760Y130184D01*
X176372Y130037D01*
X177000Y129988D01*
X177628Y130037D01*
X178240Y130184D01*
X178822Y130425D01*
X179121Y130609D01*
Y98037D01*
X179118Y98035D01*
X179050Y97996D01*
X178989Y97947D01*
X178936Y97888D01*
X178894Y97822D01*
X178731Y97497D01*
X178602Y97157D01*
X178504Y96807D01*
X178438Y96449D01*
X178405Y96087D01*
Y95723D01*
X178438Y95361D01*
X178504Y95003D01*
X178602Y94653D01*
X178731Y94313D01*
X178891Y93987D01*
X178933Y93920D01*
X178986Y93861D01*
X179048Y93812D01*
X179117Y93772D01*
X179121Y93770D01*
Y33500D01*
X166399D01*
Y122764D01*
X169121Y122769D01*
X169274Y122806D01*
X169419Y122866D01*
X169554Y122948D01*
X169673Y123051D01*
X169776Y123170D01*
X169858Y123305D01*
X169918Y123450D01*
X169955Y123603D01*
X169964Y123760D01*
X169962Y125648D01*
X169980Y125678D01*
X170221Y126260D01*
X170368Y126872D01*
X170405Y127500D01*
X170368Y128128D01*
X170221Y128740D01*
X169980Y129322D01*
X169957Y129359D01*
X169955Y131397D01*
X169918Y131550D01*
X169858Y131695D01*
X169776Y131830D01*
X169673Y131949D01*
X169554Y132052D01*
X169419Y132134D01*
X169274Y132194D01*
X169121Y132231D01*
X168964Y132240D01*
X166399Y132235D01*
Y151000D01*
X179121D01*
Y147726D01*
G37*
G36*
X166399Y33500D02*X159500D01*
Y56792D01*
X159822Y56925D01*
X160358Y57254D01*
X160837Y57663D01*
X161246Y58142D01*
X161575Y58678D01*
X161816Y59260D01*
X161963Y59872D01*
X162000Y60500D01*
X161963Y61128D01*
X161816Y61740D01*
X161575Y62322D01*
X161246Y62858D01*
X160837Y63337D01*
X160358Y63746D01*
X159822Y64075D01*
X159500Y64208D01*
Y140507D01*
X162735Y140514D01*
X162965Y140569D01*
X163183Y140659D01*
X163384Y140783D01*
X163564Y140936D01*
X163717Y141116D01*
X163841Y141317D01*
X163931Y141535D01*
X163986Y141765D01*
X164000Y142000D01*
X163986Y149235D01*
X163931Y149465D01*
X163841Y149683D01*
X163717Y149884D01*
X163564Y150064D01*
X163384Y150217D01*
X163183Y150341D01*
X162965Y150431D01*
X162735Y150486D01*
X162500Y150500D01*
X159500Y150493D01*
Y151000D01*
X166399D01*
Y132235D01*
X163689Y132231D01*
X163536Y132194D01*
X163391Y132134D01*
X163256Y132052D01*
X163137Y131949D01*
X163034Y131830D01*
X162952Y131695D01*
X162892Y131550D01*
X162855Y131397D01*
X162846Y131240D01*
X162848Y129351D01*
X162830Y129322D01*
X162589Y128740D01*
X162442Y128128D01*
X162393Y127500D01*
X162442Y126872D01*
X162589Y126260D01*
X162830Y125678D01*
X162853Y125641D01*
X162855Y123603D01*
X162892Y123450D01*
X162952Y123305D01*
X163034Y123170D01*
X163137Y123051D01*
X163256Y122948D01*
X163391Y122866D01*
X163536Y122806D01*
X163689Y122769D01*
X163846Y122760D01*
X166399Y122764D01*
Y33500D01*
G37*
G36*
X159500Y64208D02*X159240Y64316D01*
X158628Y64463D01*
X158000Y64512D01*
X157372Y64463D01*
X156760Y64316D01*
X156178Y64075D01*
X155642Y63746D01*
X155163Y63337D01*
X154754Y62858D01*
X154595Y62599D01*
Y122764D01*
X157311Y122769D01*
X157464Y122806D01*
X157609Y122866D01*
X157744Y122948D01*
X157863Y123051D01*
X157966Y123170D01*
X158048Y123305D01*
X158108Y123450D01*
X158145Y123603D01*
X158154Y123760D01*
X158145Y131397D01*
X158108Y131550D01*
X158048Y131695D01*
X157966Y131830D01*
X157863Y131949D01*
X157744Y132052D01*
X157609Y132134D01*
X157464Y132194D01*
X157311Y132231D01*
X157154Y132240D01*
X154595Y132236D01*
Y160606D01*
X155041Y161682D01*
X155367Y163041D01*
X155449Y164433D01*
X155367Y165825D01*
X155041Y167184D01*
X154595Y168260D01*
Y185500D01*
X159500D01*
Y177000D01*
X156500D01*
Y151000D01*
X159500D01*
Y150493D01*
X156265Y150486D01*
X156035Y150431D01*
X155817Y150341D01*
X155616Y150217D01*
X155436Y150064D01*
X155283Y149884D01*
X155159Y149683D01*
X155069Y149465D01*
X155014Y149235D01*
X155000Y149000D01*
X155014Y141765D01*
X155069Y141535D01*
X155159Y141317D01*
X155283Y141116D01*
X155436Y140936D01*
X155616Y140783D01*
X155817Y140659D01*
X156035Y140569D01*
X156265Y140514D01*
X156500Y140500D01*
X159500Y140507D01*
Y64208D01*
G37*
G36*
Y33500D02*X154595D01*
Y52852D01*
X158250Y56507D01*
X158628Y56537D01*
X159240Y56684D01*
X159500Y56792D01*
Y33500D01*
G37*
G36*
X144493Y155807D02*X145183Y155641D01*
X146575Y155532D01*
X147967Y155641D01*
X149326Y155967D01*
X150616Y156502D01*
X151807Y157232D01*
X152869Y158139D01*
X153776Y159201D01*
X154506Y160392D01*
X154595Y160606D01*
Y132236D01*
X151879Y132231D01*
X151726Y132194D01*
X151581Y132134D01*
X151446Y132052D01*
X151327Y131949D01*
X151224Y131830D01*
X151142Y131695D01*
X151082Y131550D01*
X151045Y131397D01*
X151036Y131240D01*
X151045Y123603D01*
X151082Y123450D01*
X151142Y123305D01*
X151224Y123170D01*
X151327Y123051D01*
X151446Y122948D01*
X151581Y122866D01*
X151726Y122806D01*
X151879Y122769D01*
X152036Y122760D01*
X154595Y122764D01*
Y62599D01*
X154425Y62322D01*
X154184Y61740D01*
X154037Y61128D01*
X154007Y60750D01*
X148257Y55000D01*
X144493D01*
Y105237D01*
X144500Y105237D01*
X145167Y105289D01*
X145817Y105446D01*
X146435Y105702D01*
X147006Y106051D01*
X147514Y106486D01*
X147949Y106994D01*
X148298Y107565D01*
X148554Y108183D01*
X148711Y108833D01*
X148750Y109500D01*
X148711Y110167D01*
X148554Y110817D01*
X148298Y111435D01*
X147949Y112006D01*
X147514Y112514D01*
X147006Y112949D01*
X146435Y113298D01*
X145817Y113554D01*
X145167Y113711D01*
X144500Y113763D01*
X144493Y113763D01*
Y155807D01*
G37*
G36*
Y185500D02*X154595D01*
Y168260D01*
X154506Y168474D01*
X153776Y169665D01*
X152869Y170727D01*
X151807Y171634D01*
X150616Y172364D01*
X149326Y172899D01*
X147967Y173225D01*
X146575Y173334D01*
X145183Y173225D01*
X144493Y173059D01*
Y185500D01*
G37*
G36*
X133380D02*X144493D01*
Y173059D01*
X143824Y172899D01*
X142534Y172364D01*
X141343Y171634D01*
X140281Y170727D01*
X139374Y169665D01*
X138644Y168474D01*
X138109Y167184D01*
X137783Y165825D01*
X137674Y164433D01*
X137783Y163041D01*
X138109Y161682D01*
X138644Y160392D01*
X139374Y159201D01*
X140281Y158139D01*
X141343Y157232D01*
X142534Y156502D01*
X143824Y155967D01*
X144493Y155807D01*
Y113763D01*
X143833Y113711D01*
X143183Y113554D01*
X142565Y113298D01*
X141994Y112949D01*
X141486Y112514D01*
X141051Y112006D01*
X140702Y111435D01*
X140446Y110817D01*
X140289Y110167D01*
X140237Y109500D01*
X140289Y108833D01*
X140446Y108183D01*
X140702Y107565D01*
X141051Y106994D01*
X141486Y106486D01*
X141994Y106051D01*
X142565Y105702D01*
X143183Y105446D01*
X143833Y105289D01*
X144493Y105237D01*
Y55000D01*
X133380D01*
Y138815D01*
X133386Y138815D01*
X134006Y138864D01*
X134611Y139009D01*
X135186Y139247D01*
X135717Y139572D01*
X136190Y139976D01*
X136594Y140449D01*
X136919Y140980D01*
X137157Y141555D01*
X137302Y142160D01*
X137339Y142780D01*
X137302Y143400D01*
X137157Y144005D01*
X136919Y144580D01*
X136594Y145111D01*
X136190Y145584D01*
X135717Y145988D01*
X135186Y146313D01*
X134611Y146551D01*
X134006Y146696D01*
X133386Y146745D01*
X133380Y146745D01*
Y148657D01*
X133386Y148657D01*
X134006Y148706D01*
X134611Y148851D01*
X135186Y149089D01*
X135717Y149414D01*
X136190Y149818D01*
X136594Y150291D01*
X136919Y150822D01*
X137157Y151397D01*
X137302Y152002D01*
X137339Y152622D01*
X137302Y153242D01*
X137157Y153847D01*
X136919Y154422D01*
X136594Y154953D01*
X136190Y155426D01*
X135717Y155830D01*
X135186Y156155D01*
X134611Y156393D01*
X134006Y156538D01*
X133386Y156587D01*
X133380Y156587D01*
Y185500D01*
G37*
G36*
X117784D02*X133380D01*
Y156587D01*
X132766Y156538D01*
X132161Y156393D01*
X131586Y156155D01*
X131055Y155830D01*
X130582Y155426D01*
X130178Y154953D01*
X129853Y154422D01*
X129615Y153847D01*
X129470Y153242D01*
X129421Y152622D01*
X129470Y152002D01*
X129615Y151397D01*
X129853Y150822D01*
X130178Y150291D01*
X130582Y149818D01*
X131055Y149414D01*
X131586Y149089D01*
X132161Y148851D01*
X132766Y148706D01*
X133380Y148657D01*
Y146745D01*
X132766Y146696D01*
X132161Y146551D01*
X131586Y146313D01*
X131055Y145988D01*
X130582Y145584D01*
X130178Y145111D01*
X129853Y144580D01*
X129615Y144005D01*
X129470Y143400D01*
X129421Y142780D01*
X129470Y142160D01*
X129615Y141555D01*
X129853Y140980D01*
X130178Y140449D01*
X130582Y139976D01*
X131055Y139572D01*
X131586Y139247D01*
X132161Y139009D01*
X132766Y138864D01*
X133380Y138815D01*
Y55000D01*
X117784D01*
Y86869D01*
X117787Y86870D01*
X117855Y86909D01*
X117916Y86958D01*
X117969Y87017D01*
X118011Y87083D01*
X118174Y87408D01*
X118303Y87748D01*
X118401Y88098D01*
X118467Y88456D01*
X118500Y88818D01*
Y89182D01*
X118467Y89544D01*
X118401Y89902D01*
X118303Y90252D01*
X118174Y90592D01*
X118015Y90919D01*
X117972Y90985D01*
X117919Y91044D01*
X117857Y91094D01*
X117788Y91133D01*
X117784Y91135D01*
Y149933D01*
X118090Y150291D01*
X118415Y150822D01*
X118653Y151397D01*
X118798Y152002D01*
X118835Y152622D01*
X118798Y153242D01*
X118653Y153847D01*
X118415Y154422D01*
X118090Y154953D01*
X117784Y155311D01*
Y158989D01*
X118608Y158791D01*
X120000Y158682D01*
X121392Y158791D01*
X122751Y159117D01*
X124041Y159652D01*
X125232Y160382D01*
X126294Y161289D01*
X127201Y162351D01*
X127931Y163542D01*
X128466Y164832D01*
X128792Y166191D01*
X128874Y167583D01*
X128792Y168975D01*
X128466Y170334D01*
X127931Y171624D01*
X127201Y172815D01*
X126294Y173877D01*
X125232Y174784D01*
X124041Y175514D01*
X122751Y176049D01*
X121392Y176375D01*
X120000Y176484D01*
X118608Y176375D01*
X117784Y176177D01*
Y185500D01*
G37*
G36*
Y155311D02*X117686Y155426D01*
X117213Y155830D01*
X116682Y156155D01*
X116107Y156393D01*
X115502Y156538D01*
X114882Y156587D01*
X114502Y156557D01*
Y160609D01*
X114768Y160382D01*
X115959Y159652D01*
X117249Y159117D01*
X117784Y158989D01*
Y155311D01*
G37*
G36*
Y55000D02*X114502D01*
Y85000D01*
X114682D01*
X115044Y85033D01*
X115402Y85099D01*
X115752Y85197D01*
X116092Y85326D01*
X116419Y85485D01*
X116485Y85528D01*
X116544Y85581D01*
X116594Y85643D01*
X116633Y85712D01*
X116661Y85786D01*
X116677Y85863D01*
X116681Y85942D01*
X116673Y86021D01*
X116652Y86097D01*
X116620Y86170D01*
X116577Y86236D01*
X116524Y86295D01*
X116462Y86344D01*
X116393Y86384D01*
X116319Y86412D01*
X116242Y86428D01*
X116163Y86432D01*
X116084Y86424D01*
X116007Y86403D01*
X115936Y86370D01*
X115693Y86247D01*
X115438Y86150D01*
X115176Y86077D01*
X114908Y86028D01*
X114636Y86003D01*
X114502D01*
Y91997D01*
X114636D01*
X114908Y91972D01*
X115176Y91923D01*
X115438Y91850D01*
X115693Y91753D01*
X115937Y91633D01*
X116009Y91600D01*
X116084Y91579D01*
X116163Y91571D01*
X116241Y91575D01*
X116318Y91591D01*
X116392Y91619D01*
X116460Y91658D01*
X116521Y91707D01*
X116574Y91766D01*
X116617Y91832D01*
X116649Y91904D01*
X116670Y91980D01*
X116678Y92058D01*
X116674Y92136D01*
X116658Y92213D01*
X116630Y92287D01*
X116591Y92355D01*
X116542Y92416D01*
X116483Y92469D01*
X116417Y92511D01*
X116092Y92674D01*
X115752Y92803D01*
X115402Y92901D01*
X115044Y92967D01*
X114682Y93000D01*
X114502D01*
Y148687D01*
X114882Y148657D01*
X115502Y148706D01*
X116107Y148851D01*
X116682Y149089D01*
X117213Y149414D01*
X117686Y149818D01*
X117784Y149933D01*
Y91135D01*
X117714Y91161D01*
X117637Y91177D01*
X117558Y91181D01*
X117479Y91173D01*
X117403Y91152D01*
X117330Y91120D01*
X117264Y91077D01*
X117205Y91024D01*
X117156Y90962D01*
X117116Y90893D01*
X117088Y90819D01*
X117072Y90742D01*
X117068Y90663D01*
X117076Y90584D01*
X117097Y90507D01*
X117130Y90436D01*
X117253Y90193D01*
X117350Y89938D01*
X117423Y89676D01*
X117472Y89408D01*
X117497Y89136D01*
Y88864D01*
X117472Y88592D01*
X117423Y88324D01*
X117350Y88062D01*
X117253Y87807D01*
X117133Y87563D01*
X117100Y87491D01*
X117079Y87416D01*
X117071Y87337D01*
X117075Y87259D01*
X117091Y87182D01*
X117119Y87108D01*
X117158Y87040D01*
X117207Y86979D01*
X117266Y86926D01*
X117332Y86883D01*
X117404Y86851D01*
X117480Y86830D01*
X117558Y86822D01*
X117636Y86826D01*
X117713Y86842D01*
X117784Y86869D01*
Y55000D01*
G37*
G36*
X114502Y185500D02*X117784D01*
Y176177D01*
X117249Y176049D01*
X115959Y175514D01*
X114768Y174784D01*
X114502Y174557D01*
Y185500D01*
G37*
G36*
X111216Y151142D02*X111349Y150822D01*
X111674Y150291D01*
X112078Y149818D01*
X112551Y149414D01*
X113082Y149089D01*
X113657Y148851D01*
X114262Y148706D01*
X114502Y148687D01*
Y93000D01*
X114318D01*
X113956Y92967D01*
X113598Y92901D01*
X113248Y92803D01*
X112908Y92674D01*
X112581Y92515D01*
X112515Y92472D01*
X112456Y92419D01*
X112406Y92357D01*
X112367Y92288D01*
X112339Y92214D01*
X112323Y92137D01*
X112319Y92058D01*
X112327Y91979D01*
X112348Y91903D01*
X112380Y91830D01*
X112423Y91764D01*
X112476Y91705D01*
X112538Y91656D01*
X112607Y91616D01*
X112681Y91588D01*
X112758Y91572D01*
X112837Y91568D01*
X112916Y91576D01*
X112993Y91597D01*
X113064Y91630D01*
X113307Y91753D01*
X113562Y91850D01*
X113824Y91923D01*
X114092Y91972D01*
X114364Y91997D01*
X114502D01*
Y86003D01*
X114364D01*
X114092Y86028D01*
X113824Y86077D01*
X113562Y86150D01*
X113307Y86247D01*
X113063Y86367D01*
X112991Y86400D01*
X112915Y86421D01*
X112837Y86429D01*
X112759Y86425D01*
X112682Y86409D01*
X112608Y86381D01*
X112540Y86342D01*
X112479Y86293D01*
X112426Y86234D01*
X112383Y86168D01*
X112351Y86096D01*
X112330Y86020D01*
X112322Y85942D01*
X112326Y85864D01*
X112342Y85787D01*
X112370Y85713D01*
X112409Y85645D01*
X112458Y85584D01*
X112517Y85531D01*
X112583Y85489D01*
X112908Y85326D01*
X113248Y85197D01*
X113598Y85099D01*
X113956Y85033D01*
X114318Y85000D01*
X114502D01*
Y55000D01*
X111216D01*
Y86865D01*
X111286Y86839D01*
X111363Y86823D01*
X111442Y86819D01*
X111521Y86827D01*
X111597Y86848D01*
X111670Y86880D01*
X111736Y86923D01*
X111795Y86976D01*
X111844Y87038D01*
X111884Y87107D01*
X111912Y87181D01*
X111928Y87258D01*
X111932Y87337D01*
X111924Y87416D01*
X111903Y87493D01*
X111870Y87564D01*
X111747Y87807D01*
X111650Y88062D01*
X111577Y88324D01*
X111528Y88592D01*
X111503Y88864D01*
Y89136D01*
X111528Y89408D01*
X111577Y89676D01*
X111650Y89938D01*
X111747Y90193D01*
X111867Y90437D01*
X111900Y90509D01*
X111921Y90585D01*
X111929Y90663D01*
X111925Y90741D01*
X111909Y90818D01*
X111881Y90892D01*
X111842Y90960D01*
X111793Y91021D01*
X111734Y91074D01*
X111668Y91117D01*
X111596Y91149D01*
X111520Y91170D01*
X111442Y91178D01*
X111364Y91174D01*
X111287Y91158D01*
X111216Y91131D01*
Y151142D01*
G37*
G36*
Y166157D02*X111534Y164832D01*
X112069Y163542D01*
X112799Y162351D01*
X113706Y161289D01*
X114502Y160609D01*
Y156557D01*
X114262Y156538D01*
X113657Y156393D01*
X113082Y156155D01*
X112551Y155830D01*
X112078Y155426D01*
X111674Y154953D01*
X111349Y154422D01*
X111216Y154102D01*
Y166157D01*
G37*
G36*
Y185500D02*X114502D01*
Y174557D01*
X113706Y173877D01*
X112799Y172815D01*
X112069Y171624D01*
X111534Y170334D01*
X111216Y169009D01*
Y185500D01*
G37*
G36*
X109857D02*X111216D01*
Y169009D01*
X111208Y168975D01*
X111099Y167583D01*
X111208Y166191D01*
X111216Y166157D01*
Y154102D01*
X111111Y153847D01*
X110966Y153242D01*
X110917Y152622D01*
X110966Y152002D01*
X111111Y151397D01*
X111216Y151142D01*
Y91131D01*
X111213Y91130D01*
X111145Y91091D01*
X111084Y91042D01*
X111031Y90983D01*
X110989Y90917D01*
X110826Y90592D01*
X110697Y90252D01*
X110599Y89902D01*
X110533Y89544D01*
X110500Y89182D01*
Y88818D01*
X110533Y88456D01*
X110599Y88098D01*
X110697Y87748D01*
X110826Y87408D01*
X110985Y87081D01*
X111028Y87015D01*
X111081Y86956D01*
X111143Y86906D01*
X111212Y86867D01*
X111216Y86865D01*
Y55000D01*
X109857D01*
Y140506D01*
X110147Y140980D01*
X110385Y141555D01*
X110530Y142160D01*
X110567Y142780D01*
X110530Y143400D01*
X110385Y144005D01*
X110147Y144580D01*
X109857Y145054D01*
Y150523D01*
X109868Y150527D01*
X109936Y150566D01*
X109997Y150616D01*
X110050Y150675D01*
X110091Y150741D01*
X110250Y151060D01*
X110376Y151394D01*
X110471Y151738D01*
X110535Y152089D01*
X110567Y152444D01*
Y152800D01*
X110535Y153155D01*
X110471Y153506D01*
X110376Y153850D01*
X110250Y154184D01*
X110095Y154504D01*
X110052Y154571D01*
X109999Y154630D01*
X109938Y154680D01*
X109869Y154720D01*
X109857Y154724D01*
Y185500D01*
G37*
G36*
Y55000D02*X107743D01*
X106614Y56128D01*
Y105262D01*
X107485Y105264D01*
X107715Y105319D01*
X107933Y105409D01*
X108134Y105533D01*
X108314Y105686D01*
X108467Y105866D01*
X108591Y106067D01*
X108681Y106285D01*
X108736Y106515D01*
X108750Y106750D01*
X108736Y112485D01*
X108681Y112715D01*
X108591Y112933D01*
X108467Y113134D01*
X108314Y113314D01*
X108134Y113467D01*
X107933Y113591D01*
X107715Y113681D01*
X107485Y113736D01*
X107250Y113750D01*
X106614Y113748D01*
Y138815D01*
X107234Y138864D01*
X107839Y139009D01*
X108414Y139247D01*
X108945Y139572D01*
X109418Y139976D01*
X109822Y140449D01*
X109857Y140506D01*
Y55000D01*
G37*
G36*
X106614Y185500D02*X109857D01*
Y154724D01*
X109795Y154748D01*
X109718Y154765D01*
X109639Y154769D01*
X109560Y154761D01*
X109484Y154741D01*
X109411Y154708D01*
X109345Y154665D01*
X109286Y154613D01*
X109236Y154551D01*
X109196Y154483D01*
X109168Y154409D01*
X109151Y154331D01*
X109147Y154252D01*
X109155Y154174D01*
X109175Y154097D01*
X109209Y154025D01*
X109327Y153787D01*
X109421Y153538D01*
X109492Y153282D01*
X109540Y153020D01*
X109564Y152755D01*
Y152489D01*
X109540Y152224D01*
X109492Y151962D01*
X109421Y151706D01*
X109327Y151457D01*
X109211Y151217D01*
X109178Y151146D01*
X109158Y151070D01*
X109150Y150992D01*
X109154Y150913D01*
X109171Y150836D01*
X109199Y150763D01*
X109238Y150695D01*
X109288Y150633D01*
X109347Y150581D01*
X109413Y150538D01*
X109485Y150506D01*
X109561Y150486D01*
X109639Y150478D01*
X109717Y150482D01*
X109794Y150499D01*
X109857Y150523D01*
Y145054D01*
X109822Y145111D01*
X109418Y145584D01*
X108945Y145988D01*
X108414Y146313D01*
X107839Y146551D01*
X107234Y146696D01*
X106614Y146745D01*
Y148669D01*
X106792D01*
X107147Y148701D01*
X107498Y148765D01*
X107842Y148860D01*
X108176Y148986D01*
X108496Y149141D01*
X108563Y149184D01*
X108622Y149237D01*
X108672Y149298D01*
X108712Y149367D01*
X108740Y149441D01*
X108757Y149518D01*
X108761Y149597D01*
X108753Y149676D01*
X108733Y149752D01*
X108700Y149825D01*
X108657Y149891D01*
X108605Y149950D01*
X108543Y150000D01*
X108475Y150040D01*
X108401Y150068D01*
X108323Y150085D01*
X108244Y150089D01*
X108166Y150081D01*
X108089Y150061D01*
X108017Y150027D01*
X107779Y149909D01*
X107530Y149815D01*
X107274Y149744D01*
X107012Y149696D01*
X106747Y149672D01*
X106614D01*
Y150129D01*
X106967Y150157D01*
X107312Y150239D01*
X107639Y150375D01*
X107941Y150560D01*
X108210Y150790D01*
X108440Y151059D01*
X108625Y151361D01*
X108761Y151688D01*
X108843Y152033D01*
X108864Y152386D01*
Y152622D01*
X108843Y152975D01*
X108761Y153319D01*
X108625Y153647D01*
X108440Y153949D01*
X108210Y154218D01*
X107941Y154448D01*
X107639Y154633D01*
X107312Y154769D01*
X106967Y154851D01*
X106614Y154879D01*
Y155572D01*
X106747D01*
X107012Y155548D01*
X107274Y155500D01*
X107530Y155429D01*
X107779Y155335D01*
X108019Y155219D01*
X108090Y155186D01*
X108166Y155166D01*
X108244Y155158D01*
X108323Y155162D01*
X108400Y155179D01*
X108473Y155207D01*
X108541Y155246D01*
X108603Y155296D01*
X108655Y155355D01*
X108698Y155421D01*
X108730Y155493D01*
X108750Y155569D01*
X108758Y155647D01*
X108754Y155726D01*
X108737Y155802D01*
X108709Y155876D01*
X108670Y155944D01*
X108620Y156005D01*
X108561Y156058D01*
X108495Y156099D01*
X108176Y156258D01*
X107842Y156384D01*
X107498Y156479D01*
X107147Y156543D01*
X106792Y156575D01*
X106614D01*
Y185500D01*
G37*
G36*
X154595Y33500D02*X106614D01*
Y49000D01*
X106618Y49000D01*
X149382D01*
X149500Y48991D01*
X149970Y49028D01*
X149971Y49028D01*
X150430Y49138D01*
X150866Y49319D01*
X151269Y49565D01*
X151628Y49872D01*
X151705Y49962D01*
X154595Y52852D01*
Y33500D01*
G37*
G36*
X103371Y105254D02*X106614Y105262D01*
Y56128D01*
X103371Y59372D01*
Y105254D01*
G37*
G36*
Y140506D02*X103406Y140449D01*
X103810Y139976D01*
X104283Y139572D01*
X104814Y139247D01*
X105389Y139009D01*
X105994Y138864D01*
X106614Y138815D01*
X106614Y138815D01*
Y113748D01*
X103371Y113741D01*
Y140506D01*
G37*
G36*
Y185500D02*X106614D01*
Y156575D01*
X106436D01*
X106081Y156543D01*
X105730Y156479D01*
X105386Y156384D01*
X105052Y156258D01*
X104732Y156103D01*
X104665Y156060D01*
X104606Y156007D01*
X104556Y155946D01*
X104516Y155877D01*
X104488Y155803D01*
X104471Y155726D01*
X104467Y155647D01*
X104475Y155568D01*
X104495Y155492D01*
X104528Y155419D01*
X104571Y155353D01*
X104623Y155294D01*
X104685Y155244D01*
X104753Y155204D01*
X104827Y155176D01*
X104905Y155159D01*
X104984Y155155D01*
X105062Y155163D01*
X105139Y155183D01*
X105211Y155217D01*
X105449Y155335D01*
X105698Y155429D01*
X105954Y155500D01*
X106216Y155548D01*
X106481Y155572D01*
X106614D01*
Y154879D01*
X106261Y154851D01*
X105917Y154769D01*
X105590Y154633D01*
X105288Y154448D01*
X105018Y154218D01*
X104788Y153949D01*
X104603Y153647D01*
X104468Y153319D01*
X104385Y152975D01*
X104364Y152622D01*
Y152386D01*
X104385Y152033D01*
X104468Y151688D01*
X104603Y151361D01*
X104788Y151059D01*
X105018Y150790D01*
X105288Y150560D01*
X105590Y150375D01*
X105917Y150239D01*
X106261Y150157D01*
X106614Y150129D01*
Y149672D01*
X106481D01*
X106216Y149696D01*
X105954Y149744D01*
X105698Y149815D01*
X105449Y149909D01*
X105209Y150025D01*
X105138Y150058D01*
X105062Y150078D01*
X104984Y150086D01*
X104905Y150082D01*
X104828Y150065D01*
X104755Y150037D01*
X104687Y149998D01*
X104625Y149948D01*
X104573Y149889D01*
X104530Y149823D01*
X104498Y149751D01*
X104478Y149675D01*
X104470Y149597D01*
X104474Y149519D01*
X104491Y149442D01*
X104519Y149368D01*
X104558Y149300D01*
X104608Y149239D01*
X104667Y149186D01*
X104733Y149145D01*
X105052Y148986D01*
X105386Y148860D01*
X105730Y148765D01*
X106081Y148701D01*
X106436Y148669D01*
X106614D01*
Y146745D01*
X106614Y146745D01*
X105994Y146696D01*
X105389Y146551D01*
X104814Y146313D01*
X104283Y145988D01*
X103810Y145584D01*
X103406Y145111D01*
X103371Y145054D01*
Y150520D01*
X103433Y150496D01*
X103510Y150479D01*
X103589Y150475D01*
X103668Y150483D01*
X103744Y150503D01*
X103817Y150536D01*
X103883Y150579D01*
X103942Y150631D01*
X103992Y150693D01*
X104032Y150761D01*
X104060Y150835D01*
X104077Y150913D01*
X104081Y150992D01*
X104073Y151070D01*
X104053Y151147D01*
X104019Y151219D01*
X103901Y151457D01*
X103807Y151706D01*
X103736Y151962D01*
X103688Y152224D01*
X103664Y152489D01*
Y152755D01*
X103688Y153020D01*
X103736Y153282D01*
X103807Y153538D01*
X103901Y153787D01*
X104017Y154027D01*
X104050Y154098D01*
X104070Y154174D01*
X104078Y154252D01*
X104074Y154331D01*
X104057Y154408D01*
X104029Y154481D01*
X103990Y154549D01*
X103940Y154611D01*
X103881Y154663D01*
X103815Y154706D01*
X103743Y154738D01*
X103667Y154758D01*
X103589Y154766D01*
X103510Y154762D01*
X103434Y154745D01*
X103371Y154721D01*
Y185500D01*
G37*
G36*
X97994D02*X103371D01*
Y154721D01*
X103360Y154717D01*
X103292Y154678D01*
X103231Y154628D01*
X103178Y154569D01*
X103137Y154503D01*
X102978Y154184D01*
X102852Y153850D01*
X102757Y153506D01*
X102693Y153155D01*
X102661Y152800D01*
Y152444D01*
X102693Y152089D01*
X102757Y151738D01*
X102852Y151394D01*
X102978Y151060D01*
X103133Y150740D01*
X103176Y150673D01*
X103229Y150614D01*
X103290Y150564D01*
X103359Y150524D01*
X103371Y150520D01*
Y145054D01*
X103081Y144580D01*
X102843Y144005D01*
X102698Y143400D01*
X102649Y142780D01*
X102698Y142160D01*
X102843Y141555D01*
X103081Y140980D01*
X103371Y140506D01*
Y113741D01*
X101515Y113736D01*
X101285Y113681D01*
X101067Y113591D01*
X100866Y113467D01*
X100686Y113314D01*
X100533Y113134D01*
X100409Y112933D01*
X100319Y112715D01*
X100264Y112485D01*
X100250Y112250D01*
X100264Y106515D01*
X100319Y106285D01*
X100409Y106067D01*
X100533Y105866D01*
X100686Y105686D01*
X100866Y105533D01*
X101067Y105409D01*
X101285Y105319D01*
X101515Y105264D01*
X101750Y105250D01*
X103371Y105254D01*
Y59372D01*
X101985Y60758D01*
X101963Y61128D01*
X101816Y61740D01*
X101575Y62322D01*
X101246Y62858D01*
X100837Y63337D01*
X100358Y63746D01*
X99822Y64075D01*
X99240Y64316D01*
X98628Y64463D01*
X98000Y64512D01*
X97994Y64512D01*
Y69488D01*
X98000Y69488D01*
X98628Y69537D01*
X99240Y69684D01*
X99822Y69925D01*
X100358Y70254D01*
X100837Y70663D01*
X101246Y71142D01*
X101575Y71678D01*
X101816Y72260D01*
X101963Y72872D01*
X102000Y73500D01*
X101963Y74128D01*
X101816Y74740D01*
X101575Y75322D01*
X101246Y75858D01*
X101000Y76146D01*
Y81854D01*
X101246Y82142D01*
X101575Y82678D01*
X101816Y83260D01*
X101963Y83872D01*
X102000Y84500D01*
X101963Y85128D01*
X101816Y85740D01*
X101575Y86322D01*
X101246Y86858D01*
X100837Y87337D01*
X100358Y87746D01*
X99822Y88075D01*
X99240Y88316D01*
X98628Y88463D01*
X98000Y88512D01*
X97994Y88512D01*
Y156825D01*
X98657Y157232D01*
X99719Y158139D01*
X100626Y159201D01*
X101356Y160392D01*
X101891Y161682D01*
X102217Y163041D01*
X102299Y164433D01*
X102217Y165825D01*
X101891Y167184D01*
X101356Y168474D01*
X100626Y169665D01*
X99719Y170727D01*
X98657Y171634D01*
X97994Y172041D01*
Y185500D01*
G37*
G36*
X106614Y33500D02*X97994D01*
Y56264D01*
X104296Y49962D01*
X104372Y49872D01*
X104731Y49565D01*
X104731Y49565D01*
X105134Y49319D01*
X105570Y49138D01*
X105940Y49049D01*
X106029Y49028D01*
X106029D01*
X106500Y48991D01*
X106614Y49000D01*
Y33500D01*
G37*
G36*
X89502Y185500D02*X97994D01*
Y172041D01*
X97466Y172364D01*
X96176Y172899D01*
X94817Y173225D01*
X93425Y173334D01*
X92033Y173225D01*
X90674Y172899D01*
X89502Y172413D01*
Y185500D01*
G37*
G36*
X97994Y33500D02*X92784D01*
Y101369D01*
X92787Y101370D01*
X92855Y101409D01*
X92916Y101458D01*
X92969Y101517D01*
X93011Y101583D01*
X93174Y101908D01*
X93303Y102248D01*
X93401Y102598D01*
X93467Y102956D01*
X93500Y103318D01*
Y103682D01*
X93467Y104044D01*
X93401Y104402D01*
X93303Y104752D01*
X93174Y105092D01*
X93015Y105419D01*
X92972Y105485D01*
X92919Y105544D01*
X92857Y105594D01*
X92788Y105633D01*
X92784Y105635D01*
Y155582D01*
X93425Y155532D01*
X94817Y155641D01*
X96176Y155967D01*
X97466Y156502D01*
X97994Y156825D01*
Y88512D01*
X97372Y88463D01*
X96760Y88316D01*
X96178Y88075D01*
X95642Y87746D01*
X95163Y87337D01*
X94754Y86858D01*
X94425Y86322D01*
X94184Y85740D01*
X94037Y85128D01*
X93988Y84500D01*
X94037Y83872D01*
X94184Y83260D01*
X94425Y82678D01*
X94754Y82142D01*
X95000Y81854D01*
Y76146D01*
X94754Y75858D01*
X94425Y75322D01*
X94184Y74740D01*
X94037Y74128D01*
X93988Y73500D01*
X94037Y72872D01*
X94184Y72260D01*
X94425Y71678D01*
X94754Y71142D01*
X95163Y70663D01*
X95642Y70254D01*
X96178Y69925D01*
X96760Y69684D01*
X97372Y69537D01*
X97994Y69488D01*
Y64512D01*
X97372Y64463D01*
X96760Y64316D01*
X96178Y64075D01*
X95642Y63746D01*
X95163Y63337D01*
X94754Y62858D01*
X94425Y62322D01*
X94184Y61740D01*
X94037Y61128D01*
X93988Y60500D01*
X94037Y59872D01*
X94184Y59260D01*
X94425Y58678D01*
X94754Y58142D01*
X95163Y57663D01*
X95642Y57254D01*
X96178Y56925D01*
X96760Y56684D01*
X97372Y56537D01*
X97750Y56507D01*
X97994Y56264D01*
Y33500D01*
G37*
G36*
X92784D02*X89502D01*
Y99500D01*
X89682D01*
X90044Y99533D01*
X90402Y99599D01*
X90752Y99697D01*
X91092Y99826D01*
X91419Y99985D01*
X91485Y100028D01*
X91544Y100081D01*
X91594Y100143D01*
X91633Y100212D01*
X91661Y100286D01*
X91677Y100363D01*
X91681Y100442D01*
X91673Y100521D01*
X91652Y100597D01*
X91620Y100670D01*
X91577Y100736D01*
X91524Y100795D01*
X91462Y100844D01*
X91393Y100884D01*
X91319Y100912D01*
X91242Y100928D01*
X91163Y100932D01*
X91084Y100924D01*
X91007Y100903D01*
X90936Y100870D01*
X90693Y100747D01*
X90438Y100650D01*
X90176Y100577D01*
X89908Y100528D01*
X89636Y100503D01*
X89502D01*
Y106497D01*
X89636D01*
X89908Y106472D01*
X90176Y106423D01*
X90438Y106350D01*
X90693Y106253D01*
X90937Y106133D01*
X91009Y106100D01*
X91084Y106079D01*
X91163Y106071D01*
X91241Y106075D01*
X91318Y106091D01*
X91392Y106119D01*
X91460Y106158D01*
X91521Y106207D01*
X91574Y106266D01*
X91617Y106332D01*
X91649Y106404D01*
X91670Y106480D01*
X91678Y106558D01*
X91674Y106636D01*
X91658Y106713D01*
X91630Y106787D01*
X91591Y106855D01*
X91542Y106916D01*
X91483Y106969D01*
X91417Y107011D01*
X91092Y107174D01*
X90752Y107303D01*
X90402Y107401D01*
X90044Y107467D01*
X89682Y107500D01*
X89502D01*
Y156453D01*
X90674Y155967D01*
X92033Y155641D01*
X92784Y155582D01*
Y105635D01*
X92714Y105661D01*
X92637Y105677D01*
X92558Y105681D01*
X92479Y105673D01*
X92403Y105652D01*
X92330Y105620D01*
X92264Y105577D01*
X92205Y105524D01*
X92156Y105462D01*
X92116Y105393D01*
X92088Y105319D01*
X92072Y105242D01*
X92068Y105163D01*
X92076Y105084D01*
X92097Y105007D01*
X92130Y104936D01*
X92253Y104693D01*
X92350Y104438D01*
X92423Y104176D01*
X92472Y103908D01*
X92497Y103636D01*
Y103364D01*
X92472Y103092D01*
X92423Y102824D01*
X92350Y102562D01*
X92253Y102307D01*
X92133Y102063D01*
X92100Y101991D01*
X92079Y101916D01*
X92071Y101837D01*
X92075Y101759D01*
X92091Y101682D01*
X92119Y101608D01*
X92158Y101540D01*
X92207Y101479D01*
X92266Y101426D01*
X92332Y101383D01*
X92404Y101351D01*
X92480Y101330D01*
X92558Y101322D01*
X92636Y101326D01*
X92713Y101342D01*
X92784Y101369D01*
Y33500D01*
G37*
G36*
X86216Y185500D02*X89502D01*
Y172413D01*
X89384Y172364D01*
X88193Y171634D01*
X87131Y170727D01*
X86224Y169665D01*
X86216Y169653D01*
Y185500D01*
G37*
G36*
X88784Y106412D02*X88824Y106423D01*
X89092Y106472D01*
X89364Y106497D01*
X89502D01*
Y100503D01*
X89364D01*
X89092Y100528D01*
X88824Y100577D01*
X88784Y100588D01*
Y106412D01*
G37*
G36*
Y156870D02*X89384Y156502D01*
X89502Y156453D01*
Y107500D01*
X89318D01*
X88956Y107467D01*
X88784Y107435D01*
Y156870D01*
G37*
G36*
X89502Y33500D02*X88784D01*
Y70369D01*
X88787Y70370D01*
X88855Y70409D01*
X88916Y70458D01*
X88969Y70517D01*
X89011Y70583D01*
X89174Y70908D01*
X89303Y71248D01*
X89401Y71598D01*
X89467Y71956D01*
X89500Y72318D01*
Y72682D01*
X89467Y73044D01*
X89401Y73402D01*
X89303Y73752D01*
X89174Y74092D01*
X89015Y74419D01*
X88972Y74485D01*
X88919Y74544D01*
X88857Y74594D01*
X88788Y74633D01*
X88784Y74635D01*
Y99565D01*
X88956Y99533D01*
X89318Y99500D01*
X89502D01*
Y33500D01*
G37*
G36*
X88784D02*X86216D01*
Y68565D01*
X86402Y68599D01*
X86752Y68697D01*
X87092Y68826D01*
X87419Y68985D01*
X87485Y69028D01*
X87544Y69081D01*
X87594Y69143D01*
X87633Y69212D01*
X87661Y69286D01*
X87677Y69363D01*
X87681Y69442D01*
X87673Y69521D01*
X87652Y69597D01*
X87620Y69670D01*
X87577Y69736D01*
X87524Y69795D01*
X87462Y69844D01*
X87393Y69884D01*
X87319Y69912D01*
X87242Y69928D01*
X87163Y69932D01*
X87084Y69924D01*
X87007Y69903D01*
X86936Y69870D01*
X86693Y69747D01*
X86438Y69650D01*
X86216Y69588D01*
Y75412D01*
X86438Y75350D01*
X86693Y75253D01*
X86937Y75133D01*
X87009Y75100D01*
X87084Y75079D01*
X87163Y75071D01*
X87241Y75075D01*
X87318Y75091D01*
X87392Y75119D01*
X87460Y75158D01*
X87521Y75207D01*
X87574Y75266D01*
X87617Y75332D01*
X87649Y75404D01*
X87670Y75480D01*
X87678Y75558D01*
X87674Y75636D01*
X87658Y75713D01*
X87630Y75787D01*
X87591Y75855D01*
X87542Y75916D01*
X87483Y75969D01*
X87417Y76011D01*
X87092Y76174D01*
X86752Y76303D01*
X86402Y76401D01*
X86216Y76435D01*
Y101365D01*
X86286Y101339D01*
X86363Y101323D01*
X86442Y101319D01*
X86521Y101327D01*
X86597Y101348D01*
X86670Y101380D01*
X86736Y101423D01*
X86795Y101476D01*
X86844Y101538D01*
X86884Y101607D01*
X86912Y101681D01*
X86928Y101758D01*
X86932Y101837D01*
X86924Y101916D01*
X86903Y101993D01*
X86870Y102064D01*
X86747Y102307D01*
X86650Y102562D01*
X86577Y102824D01*
X86528Y103092D01*
X86503Y103364D01*
Y103636D01*
X86528Y103908D01*
X86577Y104176D01*
X86650Y104438D01*
X86747Y104693D01*
X86867Y104937D01*
X86900Y105009D01*
X86921Y105085D01*
X86929Y105163D01*
X86925Y105241D01*
X86909Y105318D01*
X86881Y105392D01*
X86842Y105460D01*
X86793Y105521D01*
X86734Y105574D01*
X86668Y105617D01*
X86596Y105649D01*
X86520Y105670D01*
X86442Y105678D01*
X86364Y105674D01*
X86287Y105658D01*
X86216Y105631D01*
Y159213D01*
X86224Y159201D01*
X87131Y158139D01*
X88193Y157232D01*
X88784Y156870D01*
Y107435D01*
X88598Y107401D01*
X88248Y107303D01*
X87908Y107174D01*
X87581Y107015D01*
X87515Y106972D01*
X87456Y106919D01*
X87406Y106857D01*
X87367Y106788D01*
X87339Y106714D01*
X87323Y106637D01*
X87319Y106558D01*
X87327Y106479D01*
X87348Y106403D01*
X87380Y106330D01*
X87423Y106264D01*
X87476Y106205D01*
X87538Y106156D01*
X87607Y106116D01*
X87681Y106088D01*
X87758Y106072D01*
X87837Y106068D01*
X87916Y106076D01*
X87993Y106097D01*
X88064Y106130D01*
X88307Y106253D01*
X88562Y106350D01*
X88784Y106412D01*
Y100588D01*
X88562Y100650D01*
X88307Y100747D01*
X88063Y100867D01*
X87991Y100900D01*
X87915Y100921D01*
X87837Y100929D01*
X87759Y100925D01*
X87682Y100909D01*
X87608Y100881D01*
X87540Y100842D01*
X87479Y100793D01*
X87426Y100734D01*
X87383Y100668D01*
X87351Y100596D01*
X87330Y100520D01*
X87322Y100442D01*
X87326Y100364D01*
X87342Y100287D01*
X87370Y100213D01*
X87409Y100145D01*
X87458Y100084D01*
X87517Y100031D01*
X87583Y99989D01*
X87908Y99826D01*
X88248Y99697D01*
X88598Y99599D01*
X88784Y99565D01*
Y74635D01*
X88714Y74661D01*
X88637Y74677D01*
X88558Y74681D01*
X88479Y74673D01*
X88403Y74652D01*
X88330Y74620D01*
X88264Y74577D01*
X88205Y74524D01*
X88156Y74462D01*
X88116Y74393D01*
X88088Y74319D01*
X88072Y74242D01*
X88068Y74163D01*
X88076Y74084D01*
X88097Y74007D01*
X88130Y73936D01*
X88253Y73693D01*
X88350Y73438D01*
X88423Y73176D01*
X88472Y72908D01*
X88497Y72636D01*
Y72364D01*
X88472Y72092D01*
X88423Y71824D01*
X88350Y71562D01*
X88253Y71307D01*
X88133Y71063D01*
X88100Y70991D01*
X88079Y70916D01*
X88071Y70837D01*
X88075Y70759D01*
X88091Y70682D01*
X88119Y70608D01*
X88158Y70540D01*
X88207Y70479D01*
X88266Y70426D01*
X88332Y70383D01*
X88404Y70351D01*
X88480Y70330D01*
X88558Y70322D01*
X88636Y70326D01*
X88713Y70342D01*
X88784Y70369D01*
Y33500D01*
G37*
G36*
X86216D02*X82216D01*
Y70365D01*
X82286Y70339D01*
X82363Y70323D01*
X82442Y70319D01*
X82521Y70327D01*
X82597Y70348D01*
X82670Y70380D01*
X82736Y70423D01*
X82795Y70476D01*
X82844Y70538D01*
X82884Y70607D01*
X82912Y70681D01*
X82928Y70758D01*
X82932Y70837D01*
X82924Y70916D01*
X82903Y70993D01*
X82870Y71064D01*
X82747Y71307D01*
X82650Y71562D01*
X82577Y71824D01*
X82528Y72092D01*
X82503Y72364D01*
Y72636D01*
X82528Y72908D01*
X82577Y73176D01*
X82650Y73438D01*
X82747Y73693D01*
X82867Y73937D01*
X82900Y74009D01*
X82921Y74085D01*
X82929Y74163D01*
X82925Y74241D01*
X82909Y74318D01*
X82881Y74392D01*
X82842Y74460D01*
X82793Y74521D01*
X82734Y74574D01*
X82668Y74617D01*
X82596Y74649D01*
X82520Y74670D01*
X82442Y74678D01*
X82364Y74674D01*
X82287Y74658D01*
X82216Y74631D01*
Y185500D01*
X86216D01*
Y169653D01*
X85494Y168474D01*
X84959Y167184D01*
X84633Y165825D01*
X84524Y164433D01*
X84633Y163041D01*
X84959Y161682D01*
X85494Y160392D01*
X86216Y159213D01*
Y105631D01*
X86213Y105630D01*
X86145Y105591D01*
X86084Y105542D01*
X86031Y105483D01*
X85989Y105417D01*
X85826Y105092D01*
X85697Y104752D01*
X85599Y104402D01*
X85533Y104044D01*
X85500Y103682D01*
Y103318D01*
X85533Y102956D01*
X85599Y102598D01*
X85697Y102248D01*
X85826Y101908D01*
X85985Y101581D01*
X86028Y101515D01*
X86081Y101456D01*
X86143Y101406D01*
X86212Y101367D01*
X86216Y101365D01*
Y76435D01*
X86044Y76467D01*
X85682Y76500D01*
X85318D01*
X84956Y76467D01*
X84598Y76401D01*
X84248Y76303D01*
X83908Y76174D01*
X83581Y76015D01*
X83515Y75972D01*
X83456Y75919D01*
X83406Y75857D01*
X83367Y75788D01*
X83339Y75714D01*
X83323Y75637D01*
X83319Y75558D01*
X83327Y75479D01*
X83348Y75403D01*
X83380Y75330D01*
X83423Y75264D01*
X83476Y75205D01*
X83538Y75156D01*
X83607Y75116D01*
X83681Y75088D01*
X83758Y75072D01*
X83837Y75068D01*
X83916Y75076D01*
X83993Y75097D01*
X84064Y75130D01*
X84307Y75253D01*
X84562Y75350D01*
X84824Y75423D01*
X85092Y75472D01*
X85364Y75497D01*
X85636D01*
X85908Y75472D01*
X86176Y75423D01*
X86216Y75412D01*
Y69588D01*
X86176Y69577D01*
X85908Y69528D01*
X85636Y69503D01*
X85364D01*
X85092Y69528D01*
X84824Y69577D01*
X84562Y69650D01*
X84307Y69747D01*
X84063Y69867D01*
X83991Y69900D01*
X83915Y69921D01*
X83837Y69929D01*
X83759Y69925D01*
X83682Y69909D01*
X83608Y69881D01*
X83540Y69842D01*
X83479Y69793D01*
X83426Y69734D01*
X83383Y69668D01*
X83351Y69596D01*
X83330Y69520D01*
X83322Y69442D01*
X83326Y69364D01*
X83342Y69287D01*
X83370Y69213D01*
X83409Y69145D01*
X83458Y69084D01*
X83517Y69031D01*
X83583Y68989D01*
X83908Y68826D01*
X84248Y68697D01*
X84598Y68599D01*
X84956Y68533D01*
X85318Y68500D01*
X85682D01*
X86044Y68533D01*
X86216Y68565D01*
Y33500D01*
G37*
G36*
X82216D02*X49750D01*
Y87000D01*
X79000D01*
X80500Y88500D01*
Y99000D01*
X62500Y117000D01*
Y133500D01*
X57500Y138500D01*
X49750D01*
Y153517D01*
X49765Y153514D01*
X50000Y153495D01*
X50059Y153500D01*
X51941D01*
X52000Y153495D01*
X52235Y153514D01*
X52235Y153514D01*
X52465Y153569D01*
X52683Y153659D01*
X52884Y153783D01*
X53064Y153936D01*
X53102Y153981D01*
X53519Y154398D01*
X53564Y154436D01*
X53717Y154615D01*
X53717Y154616D01*
X53841Y154817D01*
X53931Y155035D01*
X53986Y155265D01*
X54005Y155500D01*
X54000Y155559D01*
Y155879D01*
X54121Y156000D01*
X54941D01*
X55000Y155995D01*
X55235Y156014D01*
X55235Y156014D01*
X55465Y156069D01*
X55683Y156159D01*
X55884Y156283D01*
X56064Y156436D01*
X56217Y156616D01*
X56341Y156817D01*
X56431Y157035D01*
X56486Y157265D01*
X56505Y157500D01*
X56500Y157559D01*
Y170441D01*
X56505Y170500D01*
X56486Y170735D01*
X56431Y170965D01*
X56341Y171183D01*
X56217Y171384D01*
X56064Y171564D01*
X55884Y171717D01*
X55683Y171841D01*
X55465Y171931D01*
X55235Y171986D01*
X55000Y172005D01*
X54941Y172000D01*
X50559D01*
X50500Y172005D01*
X50265Y171986D01*
X50035Y171931D01*
X49817Y171841D01*
X49750Y171800D01*
Y175438D01*
X50072Y175815D01*
X50586Y176654D01*
X50962Y177563D01*
X51192Y178519D01*
X51250Y179500D01*
X51192Y180481D01*
X50962Y181437D01*
X50586Y182346D01*
X50072Y183185D01*
X49750Y183562D01*
Y185500D01*
X82216D01*
Y74631D01*
X82213Y74630D01*
X82145Y74591D01*
X82084Y74542D01*
X82031Y74483D01*
X81989Y74417D01*
X81826Y74092D01*
X81697Y73752D01*
X81599Y73402D01*
X81533Y73044D01*
X81500Y72682D01*
Y72318D01*
X81533Y71956D01*
X81599Y71598D01*
X81697Y71248D01*
X81826Y70908D01*
X81985Y70581D01*
X82028Y70515D01*
X82081Y70456D01*
X82143Y70406D01*
X82212Y70367D01*
X82216Y70365D01*
Y33500D01*
G37*
G36*
X49750Y183562D02*X49433Y183933D01*
X48685Y184572D01*
X47846Y185086D01*
X46937Y185462D01*
X46781Y185500D01*
X49750D01*
Y183562D01*
G37*
G36*
Y138500D02*X33500D01*
Y161379D01*
X33621Y161500D01*
X39879D01*
X41398Y159981D01*
X41436Y159936D01*
X41616Y159783D01*
X41817Y159659D01*
X42035Y159569D01*
X42265Y159514D01*
X42500Y159495D01*
X42500D01*
X42735Y159514D01*
X42965Y159569D01*
X43183Y159659D01*
X43384Y159783D01*
X43564Y159936D01*
X43717Y160116D01*
X43841Y160317D01*
X43931Y160535D01*
X43986Y160765D01*
X44005Y161000D01*
X44000Y161059D01*
Y163441D01*
X44005Y163500D01*
X43986Y163735D01*
X43986Y163735D01*
X43931Y163965D01*
X43841Y164183D01*
X43717Y164384D01*
X43564Y164564D01*
X43519Y164602D01*
X43000Y165121D01*
Y166941D01*
X43005Y167000D01*
X42986Y167235D01*
X42986Y167235D01*
X42931Y167465D01*
X42841Y167683D01*
X42717Y167884D01*
X42564Y168064D01*
X42519Y168102D01*
X40602Y170019D01*
X40564Y170064D01*
X40384Y170217D01*
X40183Y170341D01*
X39965Y170431D01*
X39735Y170486D01*
X39500Y170505D01*
X39441Y170500D01*
X38505D01*
X38486Y170735D01*
X38431Y170965D01*
X38341Y171183D01*
X38217Y171384D01*
X38064Y171564D01*
X37884Y171717D01*
X37683Y171841D01*
X37465Y171931D01*
X37235Y171986D01*
X37000Y172000D01*
X33500D01*
Y185500D01*
X43219D01*
X43063Y185462D01*
X42154Y185086D01*
X41315Y184572D01*
X40567Y183933D01*
X39928Y183185D01*
X39414Y182346D01*
X39038Y181437D01*
X38808Y180481D01*
X38731Y179500D01*
X38808Y178519D01*
X39038Y177563D01*
X39414Y176654D01*
X39928Y175815D01*
X40567Y175067D01*
X41315Y174428D01*
X42154Y173914D01*
X43063Y173538D01*
X44019Y173308D01*
X45000Y173231D01*
X45981Y173308D01*
X46937Y173538D01*
X47846Y173914D01*
X48685Y174428D01*
X49433Y175067D01*
X49750Y175438D01*
Y171800D01*
X49616Y171717D01*
X49436Y171564D01*
X49283Y171384D01*
X49159Y171183D01*
X49069Y170965D01*
X49014Y170735D01*
X49014Y170735D01*
X48995Y170500D01*
X49000Y170441D01*
Y159121D01*
X47102Y161019D01*
X47064Y161064D01*
X46884Y161217D01*
X46683Y161341D01*
X46465Y161431D01*
X46280Y161475D01*
X46235Y161486D01*
X46217Y161488D01*
X46000Y161505D01*
X45765Y161486D01*
X45535Y161431D01*
X45317Y161341D01*
X45116Y161217D01*
X45115Y161217D01*
X44936Y161064D01*
X44898Y161019D01*
X43481Y159602D01*
X43436Y159564D01*
X43283Y159384D01*
X43159Y159183D01*
X43069Y158965D01*
X43014Y158735D01*
X42995Y158500D01*
X43014Y158265D01*
X43069Y158035D01*
X43159Y157817D01*
X43283Y157616D01*
X43283Y157615D01*
X43436Y157436D01*
X43481Y157398D01*
X45398Y155481D01*
X45436Y155436D01*
X45615Y155283D01*
X45616Y155283D01*
X45817Y155159D01*
X46035Y155069D01*
X46265Y155014D01*
X46500Y154995D01*
X46559Y155000D01*
X47879D01*
X48898Y153981D01*
X48936Y153936D01*
X49115Y153783D01*
X49116Y153783D01*
X49317Y153659D01*
X49535Y153569D01*
X49750Y153517D01*
Y138500D01*
G37*
G36*
Y33500D02*X33500D01*
Y89500D01*
X43000D01*
X45500Y87000D01*
X49750D01*
Y33500D01*
G37*
G36*
X28002Y157000D02*X30441D01*
X30500Y156995D01*
X30735Y157014D01*
X30735Y157014D01*
X30965Y157069D01*
X31183Y157159D01*
X31384Y157283D01*
X31564Y157436D01*
X31602Y157481D01*
X32519Y158398D01*
X32564Y158436D01*
X32717Y158615D01*
X32717Y158616D01*
X32841Y158817D01*
X32931Y159035D01*
X32986Y159265D01*
X33005Y159500D01*
X33000Y159559D01*
Y160879D01*
X33500Y161379D01*
Y138500D01*
X28002D01*
Y157000D01*
G37*
G36*
Y174009D02*X28685Y174428D01*
X29433Y175067D01*
X30072Y175815D01*
X30586Y176654D01*
X30962Y177563D01*
X31192Y178519D01*
X31250Y179500D01*
X31192Y180481D01*
X30962Y181437D01*
X30586Y182346D01*
X30072Y183185D01*
X29433Y183933D01*
X28685Y184572D01*
X28002Y184991D01*
Y185500D01*
X33500D01*
Y172000D01*
X33000D01*
X32765Y171986D01*
X32535Y171931D01*
X32317Y171841D01*
X32116Y171717D01*
X31936Y171564D01*
X31783Y171384D01*
X31659Y171183D01*
X31569Y170965D01*
X31514Y170735D01*
X31495Y170500D01*
X30559D01*
X30500Y170505D01*
X30265Y170486D01*
X30035Y170431D01*
X29817Y170341D01*
X29616Y170217D01*
X29615Y170217D01*
X29436Y170064D01*
X29398Y170019D01*
X28002Y168623D01*
Y174009D01*
G37*
G36*
X33500Y33500D02*X31284D01*
Y82869D01*
X31287Y82870D01*
X31355Y82909D01*
X31416Y82958D01*
X31469Y83017D01*
X31511Y83083D01*
X31674Y83408D01*
X31803Y83748D01*
X31901Y84098D01*
X31967Y84456D01*
X32000Y84818D01*
Y85182D01*
X31967Y85544D01*
X31901Y85902D01*
X31803Y86252D01*
X31674Y86592D01*
X31515Y86919D01*
X31472Y86985D01*
X31419Y87044D01*
X31357Y87094D01*
X31288Y87133D01*
X31284Y87135D01*
Y89500D01*
X33500D01*
Y33500D01*
G37*
G36*
X31284D02*X28002D01*
Y81000D01*
X28182D01*
X28544Y81033D01*
X28902Y81099D01*
X29252Y81197D01*
X29592Y81326D01*
X29919Y81485D01*
X29985Y81528D01*
X30044Y81581D01*
X30094Y81643D01*
X30133Y81712D01*
X30161Y81786D01*
X30177Y81863D01*
X30181Y81942D01*
X30173Y82021D01*
X30152Y82097D01*
X30120Y82170D01*
X30077Y82236D01*
X30024Y82295D01*
X29962Y82344D01*
X29893Y82384D01*
X29819Y82412D01*
X29742Y82428D01*
X29663Y82432D01*
X29584Y82424D01*
X29507Y82403D01*
X29436Y82370D01*
X29193Y82247D01*
X28938Y82150D01*
X28676Y82077D01*
X28408Y82028D01*
X28136Y82003D01*
X28002D01*
Y87997D01*
X28136D01*
X28408Y87972D01*
X28676Y87923D01*
X28938Y87850D01*
X29193Y87753D01*
X29437Y87633D01*
X29509Y87600D01*
X29585Y87579D01*
X29663Y87571D01*
X29741Y87575D01*
X29818Y87591D01*
X29892Y87619D01*
X29960Y87658D01*
X30021Y87707D01*
X30074Y87766D01*
X30117Y87832D01*
X30149Y87904D01*
X30170Y87980D01*
X30178Y88058D01*
X30174Y88136D01*
X30158Y88213D01*
X30130Y88287D01*
X30091Y88355D01*
X30042Y88416D01*
X29983Y88469D01*
X29917Y88511D01*
X29592Y88674D01*
X29252Y88803D01*
X28902Y88901D01*
X28544Y88967D01*
X28182Y89000D01*
X28002D01*
Y89500D01*
X31284D01*
Y87135D01*
X31214Y87161D01*
X31137Y87177D01*
X31058Y87181D01*
X30979Y87173D01*
X30903Y87152D01*
X30830Y87120D01*
X30764Y87077D01*
X30705Y87024D01*
X30656Y86962D01*
X30616Y86893D01*
X30588Y86819D01*
X30572Y86742D01*
X30568Y86663D01*
X30576Y86584D01*
X30597Y86507D01*
X30630Y86436D01*
X30753Y86193D01*
X30850Y85938D01*
X30923Y85676D01*
X30972Y85408D01*
X30997Y85136D01*
Y84864D01*
X30972Y84592D01*
X30923Y84324D01*
X30850Y84062D01*
X30753Y83807D01*
X30633Y83563D01*
X30600Y83491D01*
X30579Y83416D01*
X30571Y83337D01*
X30575Y83259D01*
X30591Y83182D01*
X30619Y83108D01*
X30658Y83040D01*
X30707Y82979D01*
X30766Y82926D01*
X30832Y82883D01*
X30904Y82851D01*
X30980Y82830D01*
X31058Y82822D01*
X31136Y82826D01*
X31213Y82842D01*
X31284Y82869D01*
Y33500D01*
G37*
G36*
X28002Y184991D02*X27846Y185086D01*
X26937Y185462D01*
X26781Y185500D01*
X28002D01*
Y184991D01*
G37*
G36*
X24716Y158000D02*X25379D01*
X25898Y157481D01*
X25936Y157436D01*
X26116Y157283D01*
X26317Y157159D01*
X26535Y157069D01*
X26765Y157014D01*
X27000Y156995D01*
X27059Y157000D01*
X28002D01*
Y138500D01*
X24716D01*
Y158000D01*
G37*
G36*
Y173253D02*X25000Y173231D01*
X25981Y173308D01*
X26937Y173538D01*
X27846Y173914D01*
X28002Y174009D01*
Y168623D01*
X26981Y167602D01*
X26936Y167564D01*
X26783Y167384D01*
X26659Y167183D01*
X26569Y166965D01*
X26514Y166735D01*
X26514Y166735D01*
X26495Y166500D01*
X26500Y166441D01*
Y163059D01*
X26495Y163000D01*
X26514Y162765D01*
X26569Y162535D01*
X26659Y162317D01*
X26783Y162116D01*
X26885Y161996D01*
X26765Y161986D01*
X26535Y161931D01*
X26317Y161841D01*
X26116Y161717D01*
X26115Y161717D01*
X25936Y161564D01*
X25898Y161519D01*
X25379Y161000D01*
X24716D01*
Y173253D01*
G37*
G36*
X28002Y33500D02*X24716D01*
Y82865D01*
X24786Y82839D01*
X24863Y82823D01*
X24942Y82819D01*
X25021Y82827D01*
X25097Y82848D01*
X25170Y82880D01*
X25236Y82923D01*
X25295Y82976D01*
X25344Y83038D01*
X25384Y83107D01*
X25412Y83181D01*
X25428Y83258D01*
X25432Y83337D01*
X25424Y83416D01*
X25403Y83493D01*
X25370Y83564D01*
X25247Y83807D01*
X25150Y84062D01*
X25077Y84324D01*
X25028Y84592D01*
X25003Y84864D01*
Y85136D01*
X25028Y85408D01*
X25077Y85676D01*
X25150Y85938D01*
X25247Y86193D01*
X25367Y86437D01*
X25400Y86509D01*
X25421Y86585D01*
X25429Y86663D01*
X25425Y86741D01*
X25409Y86818D01*
X25381Y86892D01*
X25342Y86960D01*
X25293Y87021D01*
X25234Y87074D01*
X25168Y87117D01*
X25096Y87149D01*
X25020Y87170D01*
X24942Y87178D01*
X24864Y87174D01*
X24787Y87158D01*
X24716Y87131D01*
Y89500D01*
X28002D01*
Y89000D01*
X27818D01*
X27456Y88967D01*
X27098Y88901D01*
X26748Y88803D01*
X26408Y88674D01*
X26081Y88515D01*
X26015Y88472D01*
X25956Y88419D01*
X25906Y88357D01*
X25867Y88288D01*
X25839Y88214D01*
X25823Y88137D01*
X25819Y88058D01*
X25827Y87979D01*
X25848Y87903D01*
X25880Y87830D01*
X25923Y87764D01*
X25976Y87705D01*
X26038Y87656D01*
X26107Y87616D01*
X26181Y87588D01*
X26258Y87572D01*
X26337Y87568D01*
X26416Y87576D01*
X26493Y87597D01*
X26564Y87630D01*
X26807Y87753D01*
X27062Y87850D01*
X27324Y87923D01*
X27592Y87972D01*
X27864Y87997D01*
X28002D01*
Y82003D01*
X27864D01*
X27592Y82028D01*
X27324Y82077D01*
X27062Y82150D01*
X26807Y82247D01*
X26563Y82367D01*
X26491Y82400D01*
X26415Y82421D01*
X26337Y82429D01*
X26259Y82425D01*
X26182Y82409D01*
X26108Y82381D01*
X26040Y82342D01*
X25979Y82293D01*
X25926Y82234D01*
X25883Y82168D01*
X25851Y82096D01*
X25830Y82020D01*
X25822Y81942D01*
X25826Y81864D01*
X25842Y81787D01*
X25870Y81713D01*
X25909Y81645D01*
X25958Y81584D01*
X26017Y81531D01*
X26083Y81489D01*
X26408Y81326D01*
X26748Y81197D01*
X27098Y81099D01*
X27456Y81033D01*
X27818Y81000D01*
X28002D01*
Y33500D01*
G37*
G36*
X24716D02*X12500D01*
X7500Y38500D01*
Y185500D01*
X23219D01*
X23063Y185462D01*
X22154Y185086D01*
X21315Y184572D01*
X20567Y183933D01*
X19928Y183185D01*
X19414Y182346D01*
X19038Y181437D01*
X18808Y180481D01*
X18731Y179500D01*
X18808Y178519D01*
X19038Y177563D01*
X19414Y176654D01*
X19928Y175815D01*
X20567Y175067D01*
X21315Y174428D01*
X22154Y173914D01*
X23063Y173538D01*
X24019Y173308D01*
X24716Y173253D01*
Y161000D01*
X24500D01*
X24265Y160986D01*
X24035Y160931D01*
X23817Y160841D01*
X23616Y160717D01*
X23436Y160564D01*
X23283Y160384D01*
X23159Y160183D01*
X23069Y159965D01*
X23014Y159735D01*
X22995Y159500D01*
X23014Y159265D01*
X23069Y159035D01*
X23159Y158817D01*
X23283Y158616D01*
X23436Y158436D01*
X23616Y158283D01*
X23817Y158159D01*
X24035Y158069D01*
X24265Y158014D01*
X24500Y158000D01*
X24716D01*
Y138500D01*
X14000D01*
X10500Y135000D01*
Y131281D01*
X10308Y130481D01*
X10231Y129500D01*
X10308Y128519D01*
X10500Y127719D01*
Y116281D01*
X10308Y115481D01*
X10231Y114500D01*
X10308Y113519D01*
X10500Y112719D01*
Y89500D01*
X24716D01*
Y87131D01*
X24713Y87130D01*
X24645Y87091D01*
X24584Y87042D01*
X24531Y86983D01*
X24489Y86917D01*
X24326Y86592D01*
X24197Y86252D01*
X24099Y85902D01*
X24033Y85544D01*
X24000Y85182D01*
Y84818D01*
X24033Y84456D01*
X24099Y84098D01*
X24197Y83748D01*
X24326Y83408D01*
X24485Y83081D01*
X24528Y83015D01*
X24581Y82956D01*
X24643Y82906D01*
X24712Y82867D01*
X24716Y82865D01*
Y33500D01*
G37*
G36*
X209000Y128500D02*X212000D01*
Y123500D01*
X209000D01*
Y128500D01*
G37*
G36*
X153000Y134500D02*X156000D01*
Y129500D01*
X153000D01*
Y134500D01*
G37*
G36*
X202500D02*X205500D01*
Y129500D01*
X202500D01*
Y134500D01*
G37*
G36*
X198500Y139000D02*X201500D01*
Y134000D01*
X198500D01*
Y139000D01*
G37*
G36*
X199000Y134500D02*X202000D01*
Y129500D01*
X199000D01*
Y134500D01*
G37*
G36*
X200000D02*X203000D01*
Y129500D01*
X200000D01*
Y134500D01*
G37*
G36*
X200500Y140500D02*X203500D01*
Y135500D01*
X200500D01*
Y140500D01*
G37*
G36*
X202000D02*X205000D01*
Y135500D01*
X202000D01*
Y140500D01*
G37*
G36*
X157000Y133000D02*Y145500D01*
X159500D01*
Y133000D01*
X157000D01*
G37*
G54D35*X106614Y152622D02*Y152386D01*
G54D36*X182760Y145726D02*X171726D01*
X171500Y145500D01*
G54D35*X190240Y136278D02*X190722D01*
X195000Y132000D01*
X182760Y136278D02*X179278D01*
X177000Y134000D01*
G54D37*X98000Y84500D02*Y73500D01*
Y60500D02*X106500Y52000D01*
X149500D01*
X158000Y60500D01*
G54D38*X42500Y161000D02*X40500Y163000D01*
G54D39*X39500Y165000D02*X37500Y163000D01*
G54D38*X41500Y164500D02*X42500Y163500D01*
Y161000D01*
G54D39*X38000Y166500D02*X39500Y165000D01*
G54D38*X41500Y167000D02*Y164500D01*
X33500Y163000D02*X40500D01*
X39500Y169000D02*X41500Y167000D01*
G54D36*X35000Y129500D02*X44000Y120500D01*
Y112000D01*
G54D38*X46000Y160000D02*X44500Y158500D01*
X48500Y157500D02*X46000Y160000D01*
X46500Y156500D02*X48500D01*
X46500D02*X44500Y158500D01*
X48500Y157500D02*Y156500D01*
X50000Y155000D02*X48500Y156500D01*
X50000Y155000D02*X52000D01*
X52500Y155500D02*X52000Y155000D01*
X52500Y156500D02*Y155500D01*
Y156500D02*X51500Y157500D01*
X53500D02*X52500Y156500D01*
X53500Y157500D02*X55000D01*
X50500D02*X55000D01*
X50500Y170500D02*Y157500D01*
Y170500D02*X55000D01*
Y157500D01*
X29500Y161500D02*Y160500D01*
X31500Y159500D02*X30500Y158500D01*
X27000D02*X30500D01*
X31500Y161500D02*Y159500D01*
X28500D02*Y159000D01*
X27000Y160500D02*X29500D01*
X26000Y159500D02*X27000Y160500D01*
Y158500D02*X26000Y159500D01*
X24500D02*X26000D01*
X28000Y166500D02*X30500Y169000D01*
X35500Y170000D02*Y169500D01*
G54D39*X30500Y165500D02*X31500Y166500D01*
G54D38*X33000Y170500D02*X37000D01*
X30500Y169000D02*X39500D01*
X29500Y161500D02*X28000Y163000D01*
Y166500D02*Y163000D01*
G54D39*X31500Y166500D02*X38000D01*
X30500Y165500D02*Y164000D01*
X31500Y163000D02*X30500Y164000D01*
X31500Y163000D02*X33000D01*
G54D38*X31500Y161500D01*
X33000Y163000D02*X34000D01*
G54D36*X44000Y112000D02*X54000Y102000D01*
X67000D01*
X74500Y94500D01*
G54D40*X263500Y159000D03*
X303500D03*
G54D41*X273500Y139000D03*
X283500D03*
G54D42*X304000Y92000D03*
X294000D03*
X284000D03*
X274000D03*
G54D43*X276000Y112500D03*
G54D34*G36*
X261000Y95000D02*Y89000D01*
X267000D01*
Y95000D01*
X261000D01*
G37*
G36*
X245250Y106750D02*Y101250D01*
X250750D01*
Y106750D01*
X245250D01*
G37*
G54D44*X25000Y179500D03*
X45000D03*
G54D34*G36*
X29750Y134750D02*Y124250D01*
X40250D01*
Y134750D01*
X29750D01*
G37*
G54D44*X16500Y129500D03*
X53500D03*
Y114500D03*
X16500D03*
X35000D03*
G54D34*G36*
X101750Y112250D02*Y106750D01*
X107250D01*
Y112250D01*
X101750D01*
G37*
G54D43*X144500Y109500D03*
G54D45*X120000Y167583D03*
X93425Y164433D03*
G54D46*X106614Y142780D03*
X114882Y152622D03*
X106614D03*
G54D45*X146575Y164433D03*
G54D46*X133386Y152622D03*
Y142780D03*
G54D34*G36*
X193250Y103750D02*Y98250D01*
X198750D01*
Y103750D01*
X193250D01*
G37*
G36*
X202000Y88000D02*Y80000D01*
X210000D01*
Y88000D01*
X202000D01*
G37*
G54D41*X206000Y74000D03*
Y64000D03*
Y54000D03*
Y44000D03*
G54D43*X236000Y101000D03*
G54D34*G36*
X228250Y86750D02*Y81250D01*
X233750D01*
Y86750D01*
X228250D01*
G37*
G54D43*X231000Y44000D03*
X248000Y64000D03*
G54D34*G36*
X233250Y115250D02*Y109750D01*
X238750D01*
Y115250D01*
X233250D01*
G37*
G36*
X241250Y167345D02*Y161845D01*
X246750D01*
Y167345D01*
X241250D01*
G37*
G54D43*X244000Y124595D03*
G54D34*G36*
X197500Y125000D02*Y119000D01*
X203500D01*
Y125000D01*
X197500D01*
G37*
G54D42*X210500Y122000D03*
G54D47*X182760Y146316D02*Y145135D01*
X190240Y146316D02*Y145135D01*
X186500Y136868D02*Y135687D01*
X190240Y136868D02*Y135687D01*
X182760Y136868D02*Y135687D01*
G54D48*X159500Y146000D02*Y145000D01*
X171500Y146000D02*Y145000D01*
G54D49*X202819Y135095D02*X205181D01*
X202819Y146905D02*X205181D01*
X154595Y128681D02*Y126319D01*
X166405Y128681D02*Y126319D01*
G54D50*X74500Y94500D03*
G54D42*X89500Y103500D03*
X114500Y89000D03*
X85500Y72500D03*
X98000Y84500D03*
Y73500D03*
X28000Y85000D03*
X229000Y65500D03*
X237500Y73000D03*
X158000Y60500D03*
X182405Y95905D03*
X177000Y134000D03*
X195000Y132000D03*
G54D50*X161500Y156000D03*
G54D42*X166405Y127500D03*
X98000Y60500D03*
G54D36*G54D51*G54D36*G54D51*G54D52*G54D53*G54D54*G54D55*G54D54*G54D55*G54D56*G54D57*G54D55*G54D58*G54D59*G54D58*G54D59*G54D55*G54D37*G54D55*M02*
