G04 start of page 6 for group -4063 idx -4063 *
G04 Title: (unknown), componentmask *
G04 Creator: pcb 20140316 *
G04 CreationDate: Wed 09 Mar 2016 04:49:46 PM GMT UTC *
G04 For: fosse *
G04 Format: Gerber/RS-274X *
G04 PCB-Dimensions (mil): 3665.00 1935.00 *
G04 PCB-Coordinate-Origin: lower left *
%MOIN*%
%FSLAX25Y25*%
%LNTOPMASK*%
%ADD81R,0.0300X0.0300*%
%ADD80R,0.0572X0.0572*%
%ADD79C,0.0651*%
%ADD78C,0.1635*%
%ADD77C,0.1110*%
%ADD76C,0.0001*%
%ADD75C,0.0610*%
%ADD74C,0.0660*%
%ADD73C,0.0860*%
%ADD72C,0.2060*%
G54D72*X263500Y159000D03*
X303500D03*
G54D73*X273500Y139000D03*
X283500D03*
G54D74*X304000Y92000D03*
X294000D03*
X284000D03*
X274000D03*
G54D75*X276000Y112500D03*
G54D76*G36*
X260700Y95300D02*Y88700D01*
X267300D01*
Y95300D01*
X260700D01*
G37*
G36*
X244950Y107050D02*Y100950D01*
X251050D01*
Y107050D01*
X244950D01*
G37*
G54D77*X25000Y179500D03*
X45000D03*
G54D76*G36*
X29450Y135050D02*Y123950D01*
X40550D01*
Y135050D01*
X29450D01*
G37*
G54D77*X16500Y129500D03*
X53500D03*
Y114500D03*
X16500D03*
X35000D03*
G54D76*G36*
X101450Y112550D02*Y106450D01*
X107550D01*
Y112550D01*
X101450D01*
G37*
G54D75*X144500Y109500D03*
G54D78*X120000Y167583D03*
X93425Y164433D03*
G54D79*X106614Y142780D03*
X114882Y152622D03*
X106614D03*
G54D78*X146575Y164433D03*
G54D79*X133386Y152622D03*
Y142780D03*
G54D76*G36*
X192950Y104050D02*Y97950D01*
X199050D01*
Y104050D01*
X192950D01*
G37*
G36*
X201700Y88300D02*Y79700D01*
X210300D01*
Y88300D01*
X201700D01*
G37*
G54D73*X206000Y74000D03*
Y64000D03*
Y54000D03*
Y44000D03*
G54D75*X236000Y101000D03*
G54D76*G36*
X227950Y87050D02*Y80950D01*
X234050D01*
Y87050D01*
X227950D01*
G37*
G54D75*X231000Y44000D03*
X248000Y64000D03*
G54D76*G36*
X232950Y115550D02*Y109450D01*
X239050D01*
Y115550D01*
X232950D01*
G37*
G36*
X240950Y167645D02*Y161545D01*
X247050D01*
Y167645D01*
X240950D01*
G37*
G54D75*X244000Y124595D03*
G54D76*G36*
X197200Y125300D02*Y118700D01*
X203800D01*
Y125300D01*
X197200D01*
G37*
G54D74*X210500Y122000D03*
G54D80*X33107Y100543D02*X33893D01*
X33107Y93457D02*X33893D01*
X35319Y84905D02*X37681D01*
X35319Y73095D02*X37681D01*
X16107Y100543D02*X16893D01*
X16107Y93457D02*X16893D01*
G54D81*X50000Y89000D02*X56500D01*
X50000Y84000D02*X56500D01*
X50000Y79000D02*X56500D01*
X50000Y74000D02*X56500D01*
G54D80*X57595Y61681D02*Y59319D01*
G54D81*X70500Y74000D02*X77000D01*
X70500Y79000D02*X77000D01*
X70500Y84000D02*X77000D01*
G54D80*X69405Y61681D02*Y59319D01*
G54D81*X70500Y89000D02*X77000D01*
G54D80*X88319Y96000D02*X90681D01*
X88319Y84190D02*X90681D01*
G54D81*X151500Y74000D02*X158000D01*
X151500Y79000D02*X158000D01*
X151500Y84000D02*X158000D01*
G54D80*X149405Y61681D02*Y59319D01*
G54D81*X131000Y89000D02*X137500D01*
X131000Y84000D02*X137500D01*
X131000Y79000D02*X137500D01*
X131000Y74000D02*X137500D01*
G54D80*X137595Y61681D02*Y59319D01*
G54D81*X151500Y89000D02*X158000D01*
G54D80*X113319Y81905D02*X115681D01*
X113319Y70095D02*X115681D01*
X169319Y95905D02*X171681D01*
X169319Y84095D02*X171681D01*
M02*
