G04 start of page 2 for group 0 idx 0 *
G04 Title: (unknown), component *
G04 Creator: pcb 20110918 *
G04 CreationDate: Fri Dec 20 22:34:44 2013 UTC *
G04 For: fosse *
G04 Format: Gerber/RS-274X *
G04 PCB-Dimensions: 316500 193500 *
G04 PCB-Coordinate-Origin: lower left *
%MOIN*%
%FSLAX25Y25*%
%LNTOP*%
%ADD30C,0.1250*%
%ADD29C,0.0280*%
%ADD28C,0.0380*%
%ADD27C,0.0420*%
%ADD26C,0.0350*%
%ADD25C,0.0860*%
%ADD24C,0.0591*%
%ADD23C,0.1575*%
%ADD22C,0.1150*%
%ADD21C,0.0550*%
%ADD20C,0.0600*%
%ADD19C,0.0720*%
%ADD18C,0.0001*%
%ADD17C,0.0800*%
%ADD16C,0.2000*%
%ADD15C,0.0070*%
%ADD14C,0.0200*%
%ADD13C,0.0100*%
%ADD12C,0.0250*%
%ADD11C,0.0400*%
G54D11*X238500Y181000D02*X22000D01*
X143500D02*Y166008D01*
X143575Y165933D01*
X117000Y169083D02*Y181000D01*
X90425Y165933D02*Y180425D01*
X90500Y180500D01*
G54D12*X119000Y121500D02*Y142736D01*
X130386Y154122D01*
X103614Y144280D02*Y102386D01*
X135500Y105000D02*X119000Y121500D01*
X22000Y105000D02*Y122500D01*
X40000Y120500D02*X50500Y131000D01*
X40000Y105000D02*Y120500D01*
Y105000D02*Y105500D01*
G54D13*X62000Y155000D02*X86000D01*
Y135000D01*
G54D12*X22000Y122500D02*X13500Y131000D01*
G54D11*X213500Y118500D02*X225500Y138500D01*
X232500Y106500D02*Y118500D01*
X174500Y44500D02*X149500D01*
G54D12*X141500Y34500D02*X131500Y44500D01*
X119500D01*
X30000Y23000D02*X95500Y65000D01*
X30000Y53000D02*Y69500D01*
X51500Y91000D01*
X95500D01*
Y105000D02*Y91000D01*
G54D11*X210500Y36500D02*Y10000D01*
X135500Y9500D02*X236500D01*
X176500Y54500D02*X211500D01*
X176500Y44500D02*X202500D01*
X210500Y36500D01*
G54D12*X202000Y34500D02*X141500D01*
X121500Y84500D02*X194500D01*
G54D11*X157500Y101500D02*X163500Y95500D01*
X221500D01*
G54D12*X103614Y102386D02*X121500Y84500D01*
G54D11*X119500Y24500D02*X96500D01*
G54D14*X95500Y65000D02*X90500Y72000D01*
G54D12*X119500Y34500D02*X113000D01*
X95500Y65000D02*X113000Y34500D01*
G54D11*X40000Y23000D02*Y14500D01*
X45000Y9500D01*
X165500D01*
X300500Y159500D02*X260000D01*
X231500Y144500D02*X263000D01*
X267000Y148500D01*
X287500D01*
X260000Y159500D02*X238500Y181000D01*
X297500Y138500D02*Y83500D01*
X278500D02*X297500D01*
X287500Y148500D02*X297500Y138500D01*
G54D12*X280500Y140500D02*Y101000D01*
G54D11*X278500Y83500D02*X256000Y61000D01*
X300500Y159500D02*Y155000D01*
X307000Y148500D01*
Y53000D01*
X159000Y124500D02*X181000Y146500D01*
X157500Y124500D02*X159000D01*
X191500Y110500D02*X197500Y124500D01*
X213500Y115000D02*Y118500D01*
X181000Y146500D02*X214000D01*
X197500Y124500D02*X205500Y138500D01*
X215500Y145000D02*Y138500D01*
X225500D02*X231500Y144500D01*
X214000Y146500D02*X215500Y145000D01*
X157500Y124500D02*Y101500D01*
X307000Y53000D02*X297500Y43500D01*
X213500Y73500D02*X232500Y78500D01*
X221500Y95500D02*X232500Y106500D01*
G54D12*X213500Y73500D02*X205500D01*
X194500Y84500D01*
G54D11*X257500Y89500D02*Y101000D01*
Y89500D02*X231500Y63500D01*
G54D12*X280500Y101000D02*X242000Y62500D01*
G54D11*X236500Y9500D02*X256000Y29000D01*
X211500Y54500D02*X240500Y25500D01*
X231500Y34500D02*X240500Y25500D01*
X256000Y29000D02*Y61000D01*
X231500Y63500D02*Y34500D01*
G54D12*X242000Y62500D02*Y34500D01*
G54D11*X278500Y43500D02*X297500D01*
G54D15*X64495Y147010D02*Y143050D01*
X64000Y147010D02*X65980D01*
X66475Y146515D01*
Y145525D01*
X65980Y145030D02*X66475Y145525D01*
X64495Y145030D02*X65980D01*
X67663Y147010D02*Y143545D01*
X68158Y143050D01*
X70633Y145030D02*X71128Y144535D01*
X69643Y145030D02*X70633D01*
X69148Y144535D02*X69643Y145030D01*
X69148Y144535D02*Y143545D01*
X69643Y143050D01*
X71128Y145030D02*Y143545D01*
X71623Y143050D01*
X69643D02*X70633D01*
X71128Y143545D01*
X73306Y144535D02*Y143050D01*
Y144535D02*X73801Y145030D01*
X74296D01*
X74791Y144535D01*
Y143050D01*
X72811Y145030D02*X73306Y144535D01*
X76474Y143050D02*X77959D01*
X75979Y143545D02*X76474Y143050D01*
X75979Y144535D02*Y143545D01*
Y144535D02*X76474Y145030D01*
X77464D01*
X77959Y144535D01*
X75979Y144040D02*X77959D01*
Y144535D02*Y144040D01*
X79642Y143050D02*X81127D01*
X81622Y143545D01*
X81127Y144040D02*X81622Y143545D01*
X79642Y144040D02*X81127D01*
X79147Y144535D02*X79642Y144040D01*
X79147Y144535D02*X79642Y145030D01*
X81127D01*
X81622Y144535D01*
X79147Y143545D02*X79642Y143050D01*
X76000Y140515D02*Y137545D01*
Y140515D02*X76495Y141010D01*
X77485D01*
X77980Y140515D01*
Y137545D01*
X77485Y137050D02*X77980Y137545D01*
X76495Y137050D02*X77485D01*
X76000Y137545D02*X76495Y137050D01*
X79168Y141010D02*Y137050D01*
Y138535D02*X80653Y137050D01*
X79168Y138535D02*X80158Y139525D01*
X162000Y173890D02*Y169450D01*
Y173890D02*Y173335D01*
X164775Y170560D01*
Y173890D02*Y169450D01*
X166107Y171115D02*Y170005D01*
Y171115D02*X166662Y171670D01*
X167772D01*
X168327Y171115D01*
Y170005D01*
X167772Y169450D02*X168327Y170005D01*
X166662Y169450D02*X167772D01*
X166107Y170005D02*X166662Y169450D01*
X169659Y171670D02*Y170005D01*
X170214Y169450D01*
X170769D01*
X171324Y170005D01*
Y171670D02*Y170005D01*
X171879Y169450D01*
X172434D01*
X172989Y170005D01*
Y171670D02*Y170005D01*
X176874Y171115D02*Y169450D01*
Y171115D02*X177429Y171670D01*
X177984D01*
X178539Y171115D01*
Y169450D01*
X176319Y171670D02*X176874Y171115D01*
X180426Y169450D02*X182091D01*
X179871Y170005D02*X180426Y169450D01*
X179871Y171115D02*Y170005D01*
Y171115D02*X180426Y171670D01*
X181536D01*
X182091Y171115D01*
X179871Y170560D02*X182091D01*
Y171115D02*Y170560D01*
X183423Y171670D02*Y170005D01*
X183978Y169450D01*
X184533D01*
X185088Y170005D01*
Y171670D02*Y170005D01*
X185643Y169450D01*
X186198D01*
X186753Y170005D01*
Y171670D02*Y170005D01*
X191748Y171670D02*X192303Y171115D01*
X190638Y171670D02*X191748D01*
X190083Y171115D02*X190638Y171670D01*
X190083Y171115D02*Y170005D01*
X190638Y169450D01*
X192303Y171670D02*Y170005D01*
X192858Y169450D01*
X190638D02*X191748D01*
X192303Y170005D01*
X194745Y171115D02*Y169450D01*
Y171115D02*X195300Y171670D01*
X195855D01*
X196410Y171115D01*
Y169450D01*
X194190Y171670D02*X194745Y171115D01*
X199962Y173890D02*Y169450D01*
X199407D02*X199962Y170005D01*
X198297Y169450D02*X199407D01*
X197742Y170005D02*X198297Y169450D01*
X197742Y171115D02*Y170005D01*
Y171115D02*X198297Y171670D01*
X199407D01*
X199962Y171115D01*
X203292Y172780D02*Y172225D01*
Y171115D02*Y169450D01*
X204957Y171115D02*Y169450D01*
Y171115D02*X205512Y171670D01*
X206067D01*
X206622Y171115D01*
Y169450D01*
Y171115D02*X207177Y171670D01*
X207732D01*
X208287Y171115D01*
Y169450D01*
X204402Y171670D02*X204957Y171115D01*
X210174D02*Y167785D01*
X209619Y171670D02*X210174Y171115D01*
X210729Y171670D01*
X211839D01*
X212394Y171115D01*
Y170005D01*
X211839Y169450D02*X212394Y170005D01*
X210729Y169450D02*X211839D01*
X210174Y170005D02*X210729Y169450D01*
X214281Y171115D02*Y169450D01*
Y171115D02*X214836Y171670D01*
X215946D01*
X213726D02*X214281Y171115D01*
X217278D02*Y170005D01*
Y171115D02*X217833Y171670D01*
X218943D01*
X219498Y171115D01*
Y170005D01*
X218943Y169450D02*X219498Y170005D01*
X217833Y169450D02*X218943D01*
X217278Y170005D02*X217833Y169450D01*
X220830Y171670D02*Y170560D01*
X221940Y169450D01*
X223050Y170560D01*
Y171670D02*Y170560D01*
X224937Y169450D02*X226602D01*
X224382Y170005D02*X224937Y169450D01*
X224382Y171115D02*Y170005D01*
Y171115D02*X224937Y171670D01*
X226047D01*
X226602Y171115D01*
X224382Y170560D02*X226602D01*
Y171115D02*Y170560D01*
X230154Y173890D02*Y169450D01*
X229599D02*X230154Y170005D01*
X228489Y169450D02*X229599D01*
X227934Y170005D02*X228489Y169450D01*
X227934Y171115D02*Y170005D01*
Y171115D02*X228489Y171670D01*
X229599D01*
X230154Y171115D01*
X162000Y163170D02*Y161505D01*
X162555Y160950D01*
X163110D01*
X163665Y161505D01*
Y163170D02*Y161505D01*
X164220Y160950D01*
X164775D01*
X165330Y161505D01*
Y163170D02*Y161505D01*
X166662Y164280D02*Y163725D01*
Y162615D02*Y160950D01*
X168327Y165390D02*Y161505D01*
X168882Y160950D01*
X167772Y163725D02*X168882D01*
X169992Y165390D02*Y160950D01*
Y162615D02*X170547Y163170D01*
X171657D01*
X172212Y162615D01*
Y160950D01*
X175542Y165390D02*Y161505D01*
X176097Y160950D01*
X177762D02*X179427D01*
X177207Y161505D02*X177762Y160950D01*
X177207Y162615D02*Y161505D01*
Y162615D02*X177762Y163170D01*
X178872D01*
X179427Y162615D01*
X177207Y162060D02*X179427D01*
Y162615D02*Y162060D01*
X181314Y160950D02*X182979D01*
X183534Y161505D01*
X182979Y162060D02*X183534Y161505D01*
X181314Y162060D02*X182979D01*
X180759Y162615D02*X181314Y162060D01*
X180759Y162615D02*X181314Y163170D01*
X182979D01*
X183534Y162615D01*
X180759Y161505D02*X181314Y160950D01*
X185421D02*X187086D01*
X187641Y161505D01*
X187086Y162060D02*X187641Y161505D01*
X185421Y162060D02*X187086D01*
X184866Y162615D02*X185421Y162060D01*
X184866Y162615D02*X185421Y163170D01*
X187086D01*
X187641Y162615D01*
X184866Y161505D02*X185421Y160950D01*
X191526Y162615D02*Y160950D01*
Y162615D02*X192081Y163170D01*
X192636D01*
X193191Y162615D01*
Y160950D01*
Y162615D02*X193746Y163170D01*
X194301D01*
X194856Y162615D01*
Y160950D01*
X190971Y163170D02*X191526Y162615D01*
X197853Y163170D02*X198408Y162615D01*
X196743Y163170D02*X197853D01*
X196188Y162615D02*X196743Y163170D01*
X196188Y162615D02*Y161505D01*
X196743Y160950D01*
X198408Y163170D02*Y161505D01*
X198963Y160950D01*
X196743D02*X197853D01*
X198408Y161505D01*
X201960Y163170D02*X202515Y162615D01*
X200850Y163170D02*X201960D01*
X200295Y162615D02*X200850Y163170D01*
X200295Y162615D02*Y161505D01*
X200850Y160950D01*
X201960D01*
X202515Y161505D01*
X200295Y159840D02*X200850Y159285D01*
X201960D01*
X202515Y159840D01*
Y163170D02*Y159840D01*
X203847Y164280D02*Y163725D01*
Y162615D02*Y160950D01*
X205512Y163170D02*X207177D01*
X204957Y162615D02*X205512Y163170D01*
X204957Y162615D02*Y161505D01*
X205512Y160950D01*
X207177D01*
X211062D02*X212727D01*
X213282Y161505D01*
X212727Y162060D02*X213282Y161505D01*
X211062Y162060D02*X212727D01*
X210507Y162615D02*X211062Y162060D01*
X210507Y162615D02*X211062Y163170D01*
X212727D01*
X213282Y162615D01*
X210507Y161505D02*X211062Y160950D01*
X215169Y162615D02*Y160950D01*
Y162615D02*X215724Y163170D01*
X216279D01*
X216834Y162615D01*
Y160950D01*
Y162615D02*X217389Y163170D01*
X217944D01*
X218499Y162615D01*
Y160950D01*
X214614Y163170D02*X215169Y162615D01*
X219831D02*Y161505D01*
Y162615D02*X220386Y163170D01*
X221496D01*
X222051Y162615D01*
Y161505D01*
X221496Y160950D02*X222051Y161505D01*
X220386Y160950D02*X221496D01*
X219831Y161505D02*X220386Y160950D01*
X223383Y165390D02*Y160950D01*
Y162615D02*X225048Y160950D01*
X223383Y162615D02*X224493Y163725D01*
X226935Y160950D02*X228600D01*
X226380Y161505D02*X226935Y160950D01*
X226380Y162615D02*Y161505D01*
Y162615D02*X226935Y163170D01*
X228045D01*
X228600Y162615D01*
X226380Y162060D02*X228600D01*
Y162615D02*Y162060D01*
X229932Y160950D02*X230487D01*
G54D16*X260500Y160500D03*
X300500D03*
G54D17*X270500Y140500D03*
X280500D03*
G54D18*G36*
X201900Y142100D02*Y134900D01*
X209100D01*
Y142100D01*
X201900D01*
G37*
G54D19*X215500Y138500D03*
X225500D03*
G54D18*G36*
X188750Y73250D02*Y67750D01*
X194250D01*
Y73250D01*
X188750D01*
G37*
G54D20*X176500Y54500D03*
G54D18*G36*
X199250Y37250D02*Y31750D01*
X204750D01*
Y37250D01*
X199250D01*
G37*
G54D21*X242000Y34500D03*
G54D18*G36*
X237750Y28250D02*Y22750D01*
X243250D01*
Y28250D01*
X237750D01*
G37*
G54D21*X197500Y124500D03*
G54D18*G36*
X210500Y108000D02*Y102000D01*
X216500D01*
Y108000D01*
X210500D01*
G37*
G54D20*X213500Y115000D03*
G54D21*X232500Y118500D03*
G54D18*G36*
X254750Y103750D02*Y98250D01*
X260250D01*
Y103750D01*
X254750D01*
G37*
G36*
X294500Y86500D02*Y80500D01*
X300500D01*
Y86500D01*
X294500D01*
G37*
G36*
X229750Y81250D02*Y75750D01*
X235250D01*
Y81250D01*
X229750D01*
G37*
G36*
X210500Y76500D02*Y70500D01*
X216500D01*
Y76500D01*
X210500D01*
G37*
G54D20*X213500Y83500D03*
G54D18*G36*
X275500Y86500D02*Y80500D01*
X281500D01*
Y86500D01*
X275500D01*
G37*
G54D20*X278500Y73500D03*
X297500D03*
G54D21*Y101000D03*
G54D20*Y63500D03*
Y53500D03*
Y43500D03*
X278500Y63500D03*
Y53500D03*
Y43500D03*
G54D21*X280500Y25500D03*
G54D18*G36*
X93500Y27500D02*Y21500D01*
X99500D01*
Y27500D01*
X93500D01*
G37*
G54D20*X20000Y23000D03*
X30000D03*
X40000D03*
X50000D03*
X119500Y24500D03*
X96500Y34500D03*
X119500Y44500D03*
Y34500D03*
G54D18*G36*
X37250Y107750D02*Y102250D01*
X42750D01*
Y107750D01*
X37250D01*
G37*
G36*
X19250D02*Y102250D01*
X24750D01*
Y107750D01*
X19250D01*
G37*
G54D21*X95500Y105000D03*
Y91000D03*
X40000Y65000D03*
G54D18*G36*
X57750Y74750D02*Y69250D01*
X63250D01*
Y74750D01*
X57750D01*
G37*
G54D21*X90500Y72000D03*
X22000Y65000D03*
G54D18*G36*
X52750Y67750D02*Y62250D01*
X58250D01*
Y67750D01*
X52750D01*
G37*
G54D21*X95500Y65000D03*
G54D22*X13500Y116000D03*
X32000D03*
X50500D03*
G54D18*G36*
X47000Y56000D02*Y50000D01*
X53000D01*
Y56000D01*
X47000D01*
G37*
G54D20*X40000Y53000D03*
X30000D03*
X20000D03*
G54D18*G36*
X116500Y57500D02*Y51500D01*
X122500D01*
Y57500D01*
X116500D01*
G37*
G54D22*X22000Y181000D03*
X42000D03*
G54D18*G36*
X26250Y136750D02*Y125250D01*
X37750D01*
Y136750D01*
X26250D01*
G37*
G54D22*X50500Y131000D03*
X13500D03*
G54D23*X117000Y169083D03*
X90425Y165933D03*
G54D24*X103614Y144280D03*
X111882Y154122D03*
X103614D03*
G54D23*X143575Y165933D03*
G54D24*X130386Y154122D03*
Y144280D03*
G54D21*X191500Y110500D03*
G54D18*G36*
X169500Y98500D02*Y92500D01*
X175500D01*
Y98500D01*
X169500D01*
G37*
G54D20*X172500Y105500D03*
G54D18*G36*
X154750Y127250D02*Y121750D01*
X160250D01*
Y127250D01*
X154750D01*
G37*
G36*
X173500Y47500D02*Y41500D01*
X179500D01*
Y47500D01*
X173500D01*
G37*
G54D20*X149500Y24500D03*
Y34500D03*
Y44500D03*
Y54500D03*
G54D18*G36*
X132750Y107750D02*Y102250D01*
X138250D01*
Y107750D01*
X132750D01*
G37*
G36*
Y93750D02*Y88250D01*
X138250D01*
Y93750D01*
X132750D01*
G37*
G54D25*G54D26*G54D27*G54D26*G54D28*G54D26*G54D28*G54D26*G54D28*G54D26*G54D29*G54D26*G54D29*G54D26*G54D25*G54D29*G54D25*G54D30*G54D28*G54D30*G54D28*G54D26*G54D29*G54D26*M02*
